G04 #@! TF.GenerationSoftware,KiCad,Pcbnew,6.0.11*
G04 #@! TF.CreationDate,2026-08-24T20:55:07+03:00*
G04 #@! TF.ProjectId,rns-gate,726e732d-6761-4746-952e-6b696361645f,rev?*
G04 #@! TF.SameCoordinates,Original*
G04 #@! TF.FileFunction,Copper,L2,Bot*
G04 #@! TF.FilePolarity,Positive*
%FSLAX46Y46*%
G04 Gerber Fmt 4.6, Leading zero omitted, Abs format (unit mm)*
G04 Created by KiCad (PCBNEW 6.0.11) date 2026-08-24 20:55:07*
%MOMM*%
%LPD*%
G01*
G04 APERTURE LIST*
G04 Aperture macros list*
%AMRoundRect*
0 Rectangle with rounded corners*
0 $1 Rounding radius*
0 $2 $3 $4 $5 $6 $7 $8 $9 X,Y pos of 4 corners*
0 Add a 4 corners polygon primitive as box body*
4,1,4,$2,$3,$4,$5,$6,$7,$8,$9,$2,$3,0*
0 Add four circle primitives for the rounded corners*
1,1,$1+$1,$2,$3*
1,1,$1+$1,$4,$5*
1,1,$1+$1,$6,$7*
1,1,$1+$1,$8,$9*
0 Add four rect primitives between the rounded corners*
20,1,$1+$1,$2,$3,$4,$5,0*
20,1,$1+$1,$4,$5,$6,$7,0*
20,1,$1+$1,$6,$7,$8,$9,0*
20,1,$1+$1,$8,$9,$2,$3,0*%
G04 Aperture macros list end*
G04 #@! TA.AperFunction,ComponentPad*
%ADD10R,1.700000X1.700000*%
G04 #@! TD*
G04 #@! TA.AperFunction,ComponentPad*
%ADD11O,1.700000X1.700000*%
G04 #@! TD*
G04 #@! TA.AperFunction,SMDPad,CuDef*
%ADD12RoundRect,0.250000X-0.450000X0.262500X-0.450000X-0.262500X0.450000X-0.262500X0.450000X0.262500X0*%
G04 #@! TD*
G04 #@! TA.AperFunction,SMDPad,CuDef*
%ADD13RoundRect,0.250000X0.450000X-0.262500X0.450000X0.262500X-0.450000X0.262500X-0.450000X-0.262500X0*%
G04 #@! TD*
G04 #@! TA.AperFunction,SMDPad,CuDef*
%ADD14R,0.500000X0.500000*%
G04 #@! TD*
G04 #@! TA.AperFunction,SMDPad,CuDef*
%ADD15RoundRect,0.100000X-0.100000X0.637500X-0.100000X-0.637500X0.100000X-0.637500X0.100000X0.637500X0*%
G04 #@! TD*
G04 #@! TA.AperFunction,SMDPad,CuDef*
%ADD16RoundRect,0.250000X-0.475000X0.337500X-0.475000X-0.337500X0.475000X-0.337500X0.475000X0.337500X0*%
G04 #@! TD*
G04 #@! TA.AperFunction,ViaPad*
%ADD17C,0.800000*%
G04 #@! TD*
G04 #@! TA.AperFunction,ViaPad*
%ADD18C,1.500000*%
G04 #@! TD*
G04 #@! TA.AperFunction,Conductor*
%ADD19C,0.250000*%
G04 #@! TD*
G04 #@! TA.AperFunction,Conductor*
%ADD20C,1.000000*%
G04 #@! TD*
G04 APERTURE END LIST*
D10*
G04 #@! TO.P,J2,1,Pin_1*
G04 #@! TO.N,+3.3V*
X170708000Y-95410000D03*
D11*
G04 #@! TO.P,J2,2,Pin_2*
G04 #@! TO.N,+5V*
X170708000Y-92870000D03*
G04 #@! TO.P,J2,3,Pin_3*
G04 #@! TO.N,/I2C_SDA*
X173248000Y-95410000D03*
G04 #@! TO.P,J2,4,Pin_4*
G04 #@! TO.N,+5V*
X173248000Y-92870000D03*
G04 #@! TO.P,J2,5,Pin_5*
G04 #@! TO.N,/I2C_SCL*
X175788000Y-95410000D03*
G04 #@! TO.P,J2,6,Pin_6*
G04 #@! TO.N,GND*
X175788000Y-92870000D03*
G04 #@! TO.P,J2,7,Pin_7*
G04 #@! TO.N,/DIO_INT*
X178328000Y-95410000D03*
G04 #@! TO.P,J2,8,Pin_8*
G04 #@! TO.N,unconnected-(J2-Pad8)*
X178328000Y-92870000D03*
G04 #@! TO.P,J2,9,Pin_9*
G04 #@! TO.N,unconnected-(J2-Pad9)*
X180868000Y-95410000D03*
G04 #@! TO.P,J2,10,Pin_10*
G04 #@! TO.N,unconnected-(J2-Pad10)*
X180868000Y-92870000D03*
G04 #@! TO.P,J2,11,Pin_11*
G04 #@! TO.N,unconnected-(J2-Pad11)*
X183408000Y-95410000D03*
G04 #@! TO.P,J2,12,Pin_12*
G04 #@! TO.N,unconnected-(J2-Pad12)*
X183408000Y-92870000D03*
G04 #@! TO.P,J2,13,Pin_13*
G04 #@! TO.N,unconnected-(J2-Pad13)*
X185948000Y-95410000D03*
G04 #@! TO.P,J2,14,Pin_14*
G04 #@! TO.N,unconnected-(J2-Pad14)*
X185948000Y-92870000D03*
G04 #@! TO.P,J2,15,Pin_15*
G04 #@! TO.N,unconnected-(J2-Pad15)*
X188488000Y-95410000D03*
G04 #@! TO.P,J2,16,Pin_16*
G04 #@! TO.N,unconnected-(J2-Pad16)*
X188488000Y-92870000D03*
G04 #@! TO.P,J2,17,Pin_17*
G04 #@! TO.N,unconnected-(J2-Pad17)*
X191028000Y-95410000D03*
G04 #@! TO.P,J2,18,Pin_18*
G04 #@! TO.N,unconnected-(J2-Pad18)*
X191028000Y-92870000D03*
G04 #@! TO.P,J2,19,Pin_19*
G04 #@! TO.N,/MOSI*
X193568000Y-95410000D03*
G04 #@! TO.P,J2,20,Pin_20*
G04 #@! TO.N,unconnected-(J2-Pad20)*
X193568000Y-92870000D03*
G04 #@! TO.P,J2,21,Pin_21*
G04 #@! TO.N,/MISO*
X196108000Y-95410000D03*
G04 #@! TO.P,J2,22,Pin_22*
G04 #@! TO.N,unconnected-(J2-Pad22)*
X196108000Y-92870000D03*
G04 #@! TO.P,J2,23,Pin_23*
G04 #@! TO.N,/SCK*
X198648000Y-95410000D03*
G04 #@! TO.P,J2,24,Pin_24*
G04 #@! TO.N,unconnected-(J2-Pad24)*
X198648000Y-92870000D03*
G04 #@! TO.P,J2,25,Pin_25*
G04 #@! TO.N,GND*
X201188000Y-95410000D03*
G04 #@! TO.P,J2,26,Pin_26*
G04 #@! TO.N,unconnected-(J2-Pad26)*
X201188000Y-92870000D03*
G04 #@! TD*
D12*
G04 #@! TO.P,R2,1*
G04 #@! TO.N,/A0*
X191488000Y-77979900D03*
G04 #@! TO.P,R2,2*
G04 #@! TO.N,GND*
X191488000Y-79804900D03*
G04 #@! TD*
D13*
G04 #@! TO.P,R7,1*
G04 #@! TO.N,/DIO_INT*
X186154000Y-79804900D03*
G04 #@! TO.P,R7,2*
G04 #@! TO.N,GND*
X186154000Y-77979900D03*
G04 #@! TD*
G04 #@! TO.P,R5,1*
G04 #@! TO.N,+3.3V*
X199108000Y-79804900D03*
G04 #@! TO.P,R5,2*
G04 #@! TO.N,/A2*
X199108000Y-77979900D03*
G04 #@! TD*
D14*
G04 #@! TO.P,D1,1,K*
G04 #@! TO.N,/DIO_INT*
X183614000Y-79992400D03*
G04 #@! TO.P,D1,2,A*
G04 #@! TO.N,/DIO1*
X183614000Y-77792400D03*
G04 #@! TD*
D12*
G04 #@! TO.P,R4,1*
G04 #@! TO.N,/A1*
X196568000Y-77979900D03*
G04 #@! TO.P,R4,2*
G04 #@! TO.N,GND*
X196568000Y-79804900D03*
G04 #@! TD*
D15*
G04 #@! TO.P,U2,1,A0*
G04 #@! TO.N,/A0*
X176005000Y-67647900D03*
G04 #@! TO.P,U2,2,A1*
G04 #@! TO.N,/A1*
X176655000Y-67647900D03*
G04 #@! TO.P,U2,3,A2*
G04 #@! TO.N,/A2*
X177305000Y-67647900D03*
G04 #@! TO.P,U2,4,P0*
G04 #@! TO.N,/DIO2*
X177955000Y-67647900D03*
G04 #@! TO.P,U2,5,P1*
G04 #@! TO.N,/TXEN*
X178605000Y-67647900D03*
G04 #@! TO.P,U2,6,P2*
G04 #@! TO.N,/RXEN*
X179255000Y-67647900D03*
G04 #@! TO.P,U2,7,P3*
G04 #@! TO.N,unconnected-(U2-Pad7)*
X179905000Y-67647900D03*
G04 #@! TO.P,U2,8,GND*
G04 #@! TO.N,GND*
X180555000Y-67647900D03*
G04 #@! TO.P,U2,9,P4*
G04 #@! TO.N,/DIO1*
X180555000Y-73372900D03*
G04 #@! TO.P,U2,10,P5*
G04 #@! TO.N,/NSS*
X179905000Y-73372900D03*
G04 #@! TO.P,U2,11,P6*
G04 #@! TO.N,/NRST*
X179255000Y-73372900D03*
G04 #@! TO.P,U2,12,P7*
G04 #@! TO.N,/BUSY*
X178605000Y-73372900D03*
G04 #@! TO.P,U2,13,~{INT}*
G04 #@! TO.N,unconnected-(U2-Pad13)*
X177955000Y-73372900D03*
G04 #@! TO.P,U2,14,SCL*
G04 #@! TO.N,/I2C_SCL*
X177305000Y-73372900D03*
G04 #@! TO.P,U2,15,SDA*
G04 #@! TO.N,/I2C_SDA*
X176655000Y-73372900D03*
G04 #@! TO.P,U2,16,VDD*
G04 #@! TO.N,+3.3V*
X176005000Y-73372900D03*
G04 #@! TD*
D16*
G04 #@! TO.P,C4,1*
G04 #@! TO.N,GND*
X172946000Y-71250900D03*
G04 #@! TO.P,C4,2*
G04 #@! TO.N,+3.3V*
X172946000Y-73325900D03*
G04 #@! TD*
D13*
G04 #@! TO.P,R3,1*
G04 #@! TO.N,+3.3V*
X194028000Y-79804900D03*
G04 #@! TO.P,R3,2*
G04 #@! TO.N,/A1*
X194028000Y-77979900D03*
G04 #@! TD*
G04 #@! TO.P,R1,1*
G04 #@! TO.N,+3.3V*
X188694000Y-79804900D03*
G04 #@! TO.P,R1,2*
G04 #@! TO.N,/A0*
X188694000Y-77979900D03*
G04 #@! TD*
D12*
G04 #@! TO.P,R6,1*
G04 #@! TO.N,/A2*
X201648000Y-77979900D03*
G04 #@! TO.P,R6,2*
G04 #@! TO.N,GND*
X201648000Y-79804900D03*
G04 #@! TD*
D17*
G04 #@! TO.N,GND*
X185392000Y-74066400D03*
X194028000Y-83210400D03*
X183614000Y-74066400D03*
X186408000Y-64668400D03*
X199108000Y-64668400D03*
X194028000Y-64668400D03*
X196568000Y-64668400D03*
X199108000Y-83210400D03*
X184122000Y-64668400D03*
D18*
G04 #@! TO.N,+5V*
X170533000Y-65303400D03*
D17*
G04 #@! TO.N,/MOSI*
X181836000Y-88544400D03*
X183868000Y-90576400D03*
G04 #@! TO.N,/NSS*
X181836000Y-76606400D03*
G04 #@! TO.N,/RXEN*
X181328000Y-64668400D03*
G04 #@! TO.N,/TXEN*
X178788000Y-64668400D03*
G04 #@! TO.N,/DIO2*
X176248000Y-64668400D03*
G04 #@! TO.N,/DIO1*
X180312000Y-77876400D03*
G04 #@! TO.N,/BUSY*
X178534000Y-80924400D03*
G04 #@! TO.N,/NRST*
X179296000Y-81686400D03*
G04 #@! TO.N,+3.3V*
X171930000Y-90322400D03*
G04 #@! TD*
D19*
G04 #@! TO.N,/NRST*
X179255000Y-73372900D02*
X179255000Y-80620095D01*
X179255000Y-80620095D02*
X179296000Y-80661095D01*
X179296000Y-80661095D02*
X179296000Y-81686400D01*
G04 #@! TO.N,/DIO1*
X180634500Y-73372900D02*
X183614000Y-76352400D01*
X180555000Y-73372900D02*
X180634500Y-73372900D01*
X183614000Y-76352400D02*
X183614000Y-77792400D01*
G04 #@! TO.N,/NSS*
X179905000Y-73372900D02*
X179905000Y-74675400D01*
X179905000Y-74675400D02*
X181836000Y-76606400D01*
G04 #@! TO.N,/BUSY*
X178605000Y-73372900D02*
X178605000Y-80853400D01*
X178605000Y-80853400D02*
X178534000Y-80924400D01*
G04 #@! TO.N,/DIO1*
X180312000Y-77876400D02*
X180396000Y-77792400D01*
X180396000Y-77792400D02*
X183614000Y-77792400D01*
D20*
G04 #@! TO.N,+5V*
X170708000Y-92870000D02*
X170708000Y-65478400D01*
X170708000Y-92870000D02*
X173248000Y-92870000D01*
X170708000Y-65478400D02*
X170533000Y-65303400D01*
D19*
G04 #@! TO.N,/MOSI*
X183868000Y-90576400D02*
X181836000Y-88544400D01*
G04 #@! TO.N,/RXEN*
X179255000Y-66741400D02*
X181328000Y-64668400D01*
X179255000Y-67647900D02*
X179255000Y-66741400D01*
G04 #@! TO.N,/TXEN*
X178605000Y-67647900D02*
X178605000Y-64851400D01*
X178605000Y-64851400D02*
X178788000Y-64668400D01*
G04 #@! TO.N,/DIO2*
X177955000Y-66375400D02*
X176248000Y-64668400D01*
X177955000Y-67647900D02*
X177955000Y-66375400D01*
G04 #@! TO.N,+3.3V*
X175958000Y-73325900D02*
X176005000Y-73372900D01*
X176005000Y-73372900D02*
X176005000Y-72045400D01*
X186662000Y-71780400D02*
X187424000Y-72542400D01*
X187424000Y-72542400D02*
X187424000Y-78534900D01*
X172946000Y-73325900D02*
X175958000Y-73325900D01*
X189531500Y-78967400D02*
X193190500Y-78967400D01*
X188694000Y-79804900D02*
X189531500Y-78967400D01*
X194028000Y-79804900D02*
X194865500Y-78967400D01*
X175994000Y-72034400D02*
X176248000Y-71780400D01*
X187424000Y-78534900D02*
X188694000Y-79804900D01*
X172946000Y-89306400D02*
X171930000Y-90322400D01*
X198270500Y-78967400D02*
X199108000Y-79804900D01*
X194865500Y-78967400D02*
X198270500Y-78967400D01*
X193190500Y-78967400D02*
X194028000Y-79804900D01*
X172946000Y-73325900D02*
X172946000Y-89306400D01*
X176005000Y-72045400D02*
X175994000Y-72034400D01*
X176248000Y-71780400D02*
X186662000Y-71780400D01*
G04 #@! TO.N,/I2C_SDA*
X176655000Y-74167400D02*
X174470000Y-76352400D01*
X174470000Y-76352400D02*
X174470000Y-94188000D01*
X174470000Y-94188000D02*
X173248000Y-95410000D01*
X176655000Y-73372900D02*
X176655000Y-74167400D01*
G04 #@! TO.N,/I2C_SCL*
X177010000Y-78638400D02*
X177010000Y-94188000D01*
X177305000Y-73372900D02*
X177305000Y-78343400D01*
X177010000Y-94188000D02*
X175788000Y-95410000D01*
X177305000Y-78343400D02*
X177010000Y-78638400D01*
G04 #@! TO.N,/A0*
X176005000Y-67647900D02*
X176005000Y-68489400D01*
X176005000Y-68489400D02*
X178534000Y-71018400D01*
X191488000Y-72288400D02*
X191488000Y-77979900D01*
X190218000Y-71018400D02*
X191488000Y-72288400D01*
X178534000Y-71018400D02*
X190218000Y-71018400D01*
X191488000Y-77979900D02*
X188694000Y-77979900D01*
G04 #@! TO.N,/A1*
X176655000Y-68336441D02*
X178574959Y-70256400D01*
X178574959Y-70256400D02*
X195298000Y-70256400D01*
X176655000Y-67647900D02*
X176655000Y-68336441D01*
X196568000Y-71526400D02*
X196568000Y-77979900D01*
X194028000Y-77979900D02*
X196568000Y-77979900D01*
X195298000Y-70256400D02*
X196568000Y-71526400D01*
G04 #@! TO.N,/A2*
X199108000Y-77979900D02*
X201648000Y-77979900D01*
X177305000Y-68336441D02*
X178462959Y-69494400D01*
X199108000Y-69494400D02*
X201648000Y-72034400D01*
X201648000Y-72034400D02*
X201648000Y-77979900D01*
X178462959Y-69494400D02*
X199108000Y-69494400D01*
X177305000Y-67647900D02*
X177305000Y-68336441D01*
G04 #@! TO.N,/DIO_INT*
X183614000Y-79992400D02*
X183114000Y-79992400D01*
X185966500Y-79992400D02*
X186154000Y-79804900D01*
X179550000Y-94188000D02*
X178328000Y-95410000D01*
X183114000Y-79992400D02*
X179550000Y-83556400D01*
X179550000Y-83556400D02*
X179550000Y-94188000D01*
X183614000Y-79992400D02*
X185966500Y-79992400D01*
G04 #@! TD*
G04 #@! TA.AperFunction,Conductor*
G04 #@! TO.N,GND*
G36*
X206770018Y-51320000D02*
G01*
X206784851Y-51322310D01*
X206784855Y-51322310D01*
X206793724Y-51323691D01*
X206811720Y-51321338D01*
X206835116Y-51320472D01*
X207083095Y-51334398D01*
X207097127Y-51335979D01*
X207211006Y-51355328D01*
X207369687Y-51382289D01*
X207383462Y-51385433D01*
X207649120Y-51461968D01*
X207662457Y-51466635D01*
X207819584Y-51531718D01*
X207917877Y-51572433D01*
X207930600Y-51578560D01*
X208172573Y-51712294D01*
X208184521Y-51719801D01*
X208410013Y-51879796D01*
X208421045Y-51888594D01*
X208627191Y-52072818D01*
X208637181Y-52082808D01*
X208821406Y-52288955D01*
X208830204Y-52299987D01*
X208990199Y-52525479D01*
X208997706Y-52537427D01*
X209081691Y-52689386D01*
X209131438Y-52779396D01*
X209137569Y-52792127D01*
X209243365Y-53047543D01*
X209248032Y-53060880D01*
X209324567Y-53326538D01*
X209327711Y-53340313D01*
X209374020Y-53612868D01*
X209375602Y-53626909D01*
X209389118Y-53867593D01*
X209387817Y-53894038D01*
X209387690Y-53894851D01*
X209387690Y-53894855D01*
X209386309Y-53903724D01*
X209387473Y-53912626D01*
X209387473Y-53912628D01*
X209390436Y-53935283D01*
X209391500Y-53951621D01*
X209391500Y-93660633D01*
X209390000Y-93680018D01*
X209387690Y-93694851D01*
X209387690Y-93694855D01*
X209386309Y-93703724D01*
X209388662Y-93721720D01*
X209389528Y-93745116D01*
X209380406Y-93907555D01*
X209375602Y-93993091D01*
X209374021Y-94007127D01*
X209356309Y-94111372D01*
X209327711Y-94279687D01*
X209324567Y-94293462D01*
X209248032Y-94559120D01*
X209243365Y-94572457D01*
X209186363Y-94710074D01*
X209177284Y-94731993D01*
X209137569Y-94827873D01*
X209131440Y-94840600D01*
X208997706Y-95082573D01*
X208990199Y-95094521D01*
X208830204Y-95320013D01*
X208821406Y-95331045D01*
X208637182Y-95537191D01*
X208627192Y-95547181D01*
X208421045Y-95731406D01*
X208410013Y-95740204D01*
X208184521Y-95900199D01*
X208172573Y-95907706D01*
X207930600Y-96041440D01*
X207917877Y-96047567D01*
X207834476Y-96082113D01*
X207662457Y-96153365D01*
X207649120Y-96158032D01*
X207383462Y-96234567D01*
X207369687Y-96237711D01*
X207233410Y-96260865D01*
X207097127Y-96284021D01*
X207083095Y-96285602D01*
X207003494Y-96290072D01*
X206842407Y-96299118D01*
X206815962Y-96297817D01*
X206815149Y-96297690D01*
X206815145Y-96297690D01*
X206806276Y-96296309D01*
X206797374Y-96297473D01*
X206797372Y-96297473D01*
X206782323Y-96299441D01*
X206774714Y-96300436D01*
X206758379Y-96301500D01*
X202464260Y-96301500D01*
X202396139Y-96281498D01*
X202349646Y-96227842D01*
X202339542Y-96157568D01*
X202356256Y-96110607D01*
X202358313Y-96107183D01*
X202452670Y-95916267D01*
X202456469Y-95906672D01*
X202518377Y-95702910D01*
X202520555Y-95692837D01*
X202521986Y-95681962D01*
X202519775Y-95667778D01*
X202506617Y-95664000D01*
X201060000Y-95664000D01*
X200991879Y-95643998D01*
X200945386Y-95590342D01*
X200934000Y-95538000D01*
X200934000Y-95282000D01*
X200954002Y-95213879D01*
X201007658Y-95167386D01*
X201060000Y-95156000D01*
X202506344Y-95156000D01*
X202519875Y-95152027D01*
X202521180Y-95142947D01*
X202479214Y-94975875D01*
X202475894Y-94966124D01*
X202390972Y-94770814D01*
X202386105Y-94761739D01*
X202270426Y-94582926D01*
X202264136Y-94574757D01*
X202120806Y-94417240D01*
X202113273Y-94410215D01*
X201946139Y-94278222D01*
X201937556Y-94272520D01*
X201900602Y-94252120D01*
X201850631Y-94201687D01*
X201835859Y-94132245D01*
X201860975Y-94065839D01*
X201888327Y-94039232D01*
X201943110Y-94000156D01*
X202067860Y-93911173D01*
X202080576Y-93898502D01*
X202136570Y-93842703D01*
X204690743Y-93842703D01*
X204691302Y-93846947D01*
X204691302Y-93846951D01*
X204691860Y-93851187D01*
X204728268Y-94127734D01*
X204729401Y-94131874D01*
X204729401Y-94131876D01*
X204747146Y-94196739D01*
X204804129Y-94405036D01*
X204805813Y-94408984D01*
X204876522Y-94574757D01*
X204916923Y-94669476D01*
X205064561Y-94916161D01*
X205244313Y-95140528D01*
X205293665Y-95187361D01*
X205445084Y-95331052D01*
X205452851Y-95338423D01*
X205686317Y-95506186D01*
X205690112Y-95508195D01*
X205690113Y-95508196D01*
X205711869Y-95519715D01*
X205940392Y-95640712D01*
X206053113Y-95681962D01*
X206201096Y-95736116D01*
X206210373Y-95739511D01*
X206491264Y-95800755D01*
X206519841Y-95803004D01*
X206714282Y-95818307D01*
X206714291Y-95818307D01*
X206716739Y-95818500D01*
X206872271Y-95818500D01*
X206874407Y-95818354D01*
X206874418Y-95818354D01*
X207082548Y-95804165D01*
X207082554Y-95804164D01*
X207086825Y-95803873D01*
X207091020Y-95803004D01*
X207091022Y-95803004D01*
X207227583Y-95774724D01*
X207368342Y-95745574D01*
X207639343Y-95649607D01*
X207894812Y-95517750D01*
X207898313Y-95515289D01*
X207898317Y-95515287D01*
X208048125Y-95410000D01*
X208130023Y-95352441D01*
X208340622Y-95156740D01*
X208522713Y-94934268D01*
X208672927Y-94689142D01*
X208723139Y-94574757D01*
X208786757Y-94429830D01*
X208788483Y-94425898D01*
X208792951Y-94410215D01*
X208850537Y-94208057D01*
X208867244Y-94149406D01*
X208907751Y-93864784D01*
X208907823Y-93851187D01*
X208909235Y-93581583D01*
X208909235Y-93581576D01*
X208909257Y-93577297D01*
X208903012Y-93529857D01*
X208872292Y-93296522D01*
X208871732Y-93292266D01*
X208795871Y-93014964D01*
X208761013Y-92933240D01*
X208684763Y-92754476D01*
X208684761Y-92754472D01*
X208683077Y-92750524D01*
X208535439Y-92503839D01*
X208355687Y-92279472D01*
X208147149Y-92081577D01*
X207913683Y-91913814D01*
X207891843Y-91902250D01*
X207814248Y-91861166D01*
X207659608Y-91779288D01*
X207389627Y-91680489D01*
X207108736Y-91619245D01*
X207077685Y-91616801D01*
X206885718Y-91601693D01*
X206885709Y-91601693D01*
X206883261Y-91601500D01*
X206727729Y-91601500D01*
X206725593Y-91601646D01*
X206725582Y-91601646D01*
X206517452Y-91615835D01*
X206517446Y-91615836D01*
X206513175Y-91616127D01*
X206508980Y-91616996D01*
X206508978Y-91616996D01*
X206413995Y-91636666D01*
X206231658Y-91674426D01*
X205960657Y-91770393D01*
X205956848Y-91772359D01*
X205805191Y-91850635D01*
X205705188Y-91902250D01*
X205701687Y-91904711D01*
X205701683Y-91904713D01*
X205696464Y-91908381D01*
X205469977Y-92067559D01*
X205454892Y-92081577D01*
X205299647Y-92225840D01*
X205259378Y-92263260D01*
X205077287Y-92485732D01*
X204927073Y-92730858D01*
X204925347Y-92734791D01*
X204925346Y-92734792D01*
X204836763Y-92936590D01*
X204811517Y-92994102D01*
X204732756Y-93270594D01*
X204692249Y-93555216D01*
X204692227Y-93559505D01*
X204692226Y-93559512D01*
X204691191Y-93757137D01*
X204690743Y-93842703D01*
X202136570Y-93842703D01*
X202222435Y-93757137D01*
X202226096Y-93753489D01*
X202234330Y-93742031D01*
X202353435Y-93576277D01*
X202356453Y-93572077D01*
X202377320Y-93529857D01*
X202453136Y-93376453D01*
X202453137Y-93376451D01*
X202455430Y-93371811D01*
X202520370Y-93158069D01*
X202549529Y-92936590D01*
X202551156Y-92870000D01*
X202532852Y-92647361D01*
X202478431Y-92430702D01*
X202389354Y-92225840D01*
X202349906Y-92164862D01*
X202270822Y-92042617D01*
X202270820Y-92042614D01*
X202268014Y-92038277D01*
X202117670Y-91873051D01*
X202113619Y-91869852D01*
X202113615Y-91869848D01*
X201946414Y-91737800D01*
X201946410Y-91737798D01*
X201942359Y-91734598D01*
X201746789Y-91626638D01*
X201741920Y-91624914D01*
X201741916Y-91624912D01*
X201541087Y-91553795D01*
X201541083Y-91553794D01*
X201536212Y-91552069D01*
X201531119Y-91551162D01*
X201531116Y-91551161D01*
X201321373Y-91513800D01*
X201321367Y-91513799D01*
X201316284Y-91512894D01*
X201242452Y-91511992D01*
X201098081Y-91510228D01*
X201098079Y-91510228D01*
X201092911Y-91510165D01*
X200872091Y-91543955D01*
X200659756Y-91613357D01*
X200461607Y-91716507D01*
X200457474Y-91719610D01*
X200457471Y-91719612D01*
X200295134Y-91841498D01*
X200282965Y-91850635D01*
X200222590Y-91913814D01*
X200162684Y-91976502D01*
X200128629Y-92012138D01*
X200021201Y-92169621D01*
X199966293Y-92214621D01*
X199895768Y-92222792D01*
X199832021Y-92191538D01*
X199811324Y-92167054D01*
X199730822Y-92042617D01*
X199730820Y-92042614D01*
X199728014Y-92038277D01*
X199577670Y-91873051D01*
X199573619Y-91869852D01*
X199573615Y-91869848D01*
X199406414Y-91737800D01*
X199406410Y-91737798D01*
X199402359Y-91734598D01*
X199206789Y-91626638D01*
X199201920Y-91624914D01*
X199201916Y-91624912D01*
X199001087Y-91553795D01*
X199001083Y-91553794D01*
X198996212Y-91552069D01*
X198991119Y-91551162D01*
X198991116Y-91551161D01*
X198781373Y-91513800D01*
X198781367Y-91513799D01*
X198776284Y-91512894D01*
X198702452Y-91511992D01*
X198558081Y-91510228D01*
X198558079Y-91510228D01*
X198552911Y-91510165D01*
X198332091Y-91543955D01*
X198119756Y-91613357D01*
X197921607Y-91716507D01*
X197917474Y-91719610D01*
X197917471Y-91719612D01*
X197755134Y-91841498D01*
X197742965Y-91850635D01*
X197682590Y-91913814D01*
X197622684Y-91976502D01*
X197588629Y-92012138D01*
X197481201Y-92169621D01*
X197426293Y-92214621D01*
X197355768Y-92222792D01*
X197292021Y-92191538D01*
X197271324Y-92167054D01*
X197190822Y-92042617D01*
X197190820Y-92042614D01*
X197188014Y-92038277D01*
X197037670Y-91873051D01*
X197033619Y-91869852D01*
X197033615Y-91869848D01*
X196866414Y-91737800D01*
X196866410Y-91737798D01*
X196862359Y-91734598D01*
X196666789Y-91626638D01*
X196661920Y-91624914D01*
X196661916Y-91624912D01*
X196461087Y-91553795D01*
X196461083Y-91553794D01*
X196456212Y-91552069D01*
X196451119Y-91551162D01*
X196451116Y-91551161D01*
X196241373Y-91513800D01*
X196241367Y-91513799D01*
X196236284Y-91512894D01*
X196162452Y-91511992D01*
X196018081Y-91510228D01*
X196018079Y-91510228D01*
X196012911Y-91510165D01*
X195792091Y-91543955D01*
X195579756Y-91613357D01*
X195381607Y-91716507D01*
X195377474Y-91719610D01*
X195377471Y-91719612D01*
X195215134Y-91841498D01*
X195202965Y-91850635D01*
X195142590Y-91913814D01*
X195082684Y-91976502D01*
X195048629Y-92012138D01*
X194941201Y-92169621D01*
X194886293Y-92214621D01*
X194815768Y-92222792D01*
X194752021Y-92191538D01*
X194731324Y-92167054D01*
X194650822Y-92042617D01*
X194650820Y-92042614D01*
X194648014Y-92038277D01*
X194497670Y-91873051D01*
X194493619Y-91869852D01*
X194493615Y-91869848D01*
X194326414Y-91737800D01*
X194326410Y-91737798D01*
X194322359Y-91734598D01*
X194126789Y-91626638D01*
X194121920Y-91624914D01*
X194121916Y-91624912D01*
X193921087Y-91553795D01*
X193921083Y-91553794D01*
X193916212Y-91552069D01*
X193911119Y-91551162D01*
X193911116Y-91551161D01*
X193701373Y-91513800D01*
X193701367Y-91513799D01*
X193696284Y-91512894D01*
X193622452Y-91511992D01*
X193478081Y-91510228D01*
X193478079Y-91510228D01*
X193472911Y-91510165D01*
X193252091Y-91543955D01*
X193039756Y-91613357D01*
X192841607Y-91716507D01*
X192837474Y-91719610D01*
X192837471Y-91719612D01*
X192675134Y-91841498D01*
X192662965Y-91850635D01*
X192602590Y-91913814D01*
X192542684Y-91976502D01*
X192508629Y-92012138D01*
X192401201Y-92169621D01*
X192346293Y-92214621D01*
X192275768Y-92222792D01*
X192212021Y-92191538D01*
X192191324Y-92167054D01*
X192110822Y-92042617D01*
X192110820Y-92042614D01*
X192108014Y-92038277D01*
X191957670Y-91873051D01*
X191953619Y-91869852D01*
X191953615Y-91869848D01*
X191786414Y-91737800D01*
X191786410Y-91737798D01*
X191782359Y-91734598D01*
X191586789Y-91626638D01*
X191581920Y-91624914D01*
X191581916Y-91624912D01*
X191381087Y-91553795D01*
X191381083Y-91553794D01*
X191376212Y-91552069D01*
X191371119Y-91551162D01*
X191371116Y-91551161D01*
X191161373Y-91513800D01*
X191161367Y-91513799D01*
X191156284Y-91512894D01*
X191082452Y-91511992D01*
X190938081Y-91510228D01*
X190938079Y-91510228D01*
X190932911Y-91510165D01*
X190712091Y-91543955D01*
X190499756Y-91613357D01*
X190301607Y-91716507D01*
X190297474Y-91719610D01*
X190297471Y-91719612D01*
X190135134Y-91841498D01*
X190122965Y-91850635D01*
X190062590Y-91913814D01*
X190002684Y-91976502D01*
X189968629Y-92012138D01*
X189861201Y-92169621D01*
X189806293Y-92214621D01*
X189735768Y-92222792D01*
X189672021Y-92191538D01*
X189651324Y-92167054D01*
X189570822Y-92042617D01*
X189570820Y-92042614D01*
X189568014Y-92038277D01*
X189417670Y-91873051D01*
X189413619Y-91869852D01*
X189413615Y-91869848D01*
X189246414Y-91737800D01*
X189246410Y-91737798D01*
X189242359Y-91734598D01*
X189046789Y-91626638D01*
X189041920Y-91624914D01*
X189041916Y-91624912D01*
X188841087Y-91553795D01*
X188841083Y-91553794D01*
X188836212Y-91552069D01*
X188831119Y-91551162D01*
X188831116Y-91551161D01*
X188621373Y-91513800D01*
X188621367Y-91513799D01*
X188616284Y-91512894D01*
X188542452Y-91511992D01*
X188398081Y-91510228D01*
X188398079Y-91510228D01*
X188392911Y-91510165D01*
X188172091Y-91543955D01*
X187959756Y-91613357D01*
X187761607Y-91716507D01*
X187757474Y-91719610D01*
X187757471Y-91719612D01*
X187595134Y-91841498D01*
X187582965Y-91850635D01*
X187522590Y-91913814D01*
X187462684Y-91976502D01*
X187428629Y-92012138D01*
X187321201Y-92169621D01*
X187266293Y-92214621D01*
X187195768Y-92222792D01*
X187132021Y-92191538D01*
X187111324Y-92167054D01*
X187030822Y-92042617D01*
X187030820Y-92042614D01*
X187028014Y-92038277D01*
X186877670Y-91873051D01*
X186873619Y-91869852D01*
X186873615Y-91869848D01*
X186706414Y-91737800D01*
X186706410Y-91737798D01*
X186702359Y-91734598D01*
X186506789Y-91626638D01*
X186501920Y-91624914D01*
X186501916Y-91624912D01*
X186301087Y-91553795D01*
X186301083Y-91553794D01*
X186296212Y-91552069D01*
X186291119Y-91551162D01*
X186291116Y-91551161D01*
X186081373Y-91513800D01*
X186081367Y-91513799D01*
X186076284Y-91512894D01*
X186002452Y-91511992D01*
X185858081Y-91510228D01*
X185858079Y-91510228D01*
X185852911Y-91510165D01*
X185632091Y-91543955D01*
X185419756Y-91613357D01*
X185221607Y-91716507D01*
X185217474Y-91719610D01*
X185217471Y-91719612D01*
X185055134Y-91841498D01*
X185042965Y-91850635D01*
X184982590Y-91913814D01*
X184922684Y-91976502D01*
X184888629Y-92012138D01*
X184781201Y-92169621D01*
X184726293Y-92214621D01*
X184655768Y-92222792D01*
X184592021Y-92191538D01*
X184571324Y-92167054D01*
X184490822Y-92042617D01*
X184490820Y-92042614D01*
X184488014Y-92038277D01*
X184337670Y-91873051D01*
X184333619Y-91869852D01*
X184333615Y-91869848D01*
X184166414Y-91737800D01*
X184166410Y-91737798D01*
X184162359Y-91734598D01*
X184076314Y-91687099D01*
X184026343Y-91636666D01*
X184011571Y-91567224D01*
X184036687Y-91500818D01*
X184093718Y-91458533D01*
X184111010Y-91453544D01*
X184143822Y-91446569D01*
X184143827Y-91446567D01*
X184150288Y-91445194D01*
X184156319Y-91442509D01*
X184318722Y-91370203D01*
X184318724Y-91370202D01*
X184324752Y-91367518D01*
X184339367Y-91356900D01*
X184433126Y-91288779D01*
X184479253Y-91255266D01*
X184607040Y-91113344D01*
X184702527Y-90947956D01*
X184761542Y-90766328D01*
X184781504Y-90576400D01*
X184761542Y-90386472D01*
X184702527Y-90204844D01*
X184607040Y-90039456D01*
X184479253Y-89897534D01*
X184358838Y-89810047D01*
X184330094Y-89789163D01*
X184330093Y-89789162D01*
X184324752Y-89785282D01*
X184318724Y-89782598D01*
X184318722Y-89782597D01*
X184156319Y-89710291D01*
X184156318Y-89710291D01*
X184150288Y-89707606D01*
X184055697Y-89687500D01*
X183969944Y-89669272D01*
X183969939Y-89669272D01*
X183963487Y-89667900D01*
X183907594Y-89667900D01*
X183839473Y-89647898D01*
X183818499Y-89630995D01*
X182783122Y-88595617D01*
X182749096Y-88533305D01*
X182746907Y-88519692D01*
X182730232Y-88361035D01*
X182730232Y-88361033D01*
X182729542Y-88354472D01*
X182670527Y-88172844D01*
X182575040Y-88007456D01*
X182447253Y-87865534D01*
X182292752Y-87753282D01*
X182286724Y-87750598D01*
X182286722Y-87750597D01*
X182124319Y-87678291D01*
X182124318Y-87678291D01*
X182118288Y-87675606D01*
X182024888Y-87655753D01*
X181937944Y-87637272D01*
X181937939Y-87637272D01*
X181931487Y-87635900D01*
X181740513Y-87635900D01*
X181734061Y-87637272D01*
X181734056Y-87637272D01*
X181647112Y-87655753D01*
X181553712Y-87675606D01*
X181547682Y-87678291D01*
X181547681Y-87678291D01*
X181385278Y-87750597D01*
X181385276Y-87750598D01*
X181379248Y-87753282D01*
X181224747Y-87865534D01*
X181096960Y-88007456D01*
X181001473Y-88172844D01*
X180942458Y-88354472D01*
X180922496Y-88544400D01*
X180942458Y-88734328D01*
X181001473Y-88915956D01*
X181096960Y-89081344D01*
X181224747Y-89223266D01*
X181306191Y-89282439D01*
X181366777Y-89326457D01*
X181379248Y-89335518D01*
X181385276Y-89338202D01*
X181385278Y-89338203D01*
X181547681Y-89410509D01*
X181553712Y-89413194D01*
X181647113Y-89433047D01*
X181734056Y-89451528D01*
X181734061Y-89451528D01*
X181740513Y-89452900D01*
X181796406Y-89452900D01*
X181864527Y-89472902D01*
X181885501Y-89489805D01*
X182920878Y-90525183D01*
X182954904Y-90587495D01*
X182957093Y-90601106D01*
X182974458Y-90766328D01*
X183033473Y-90947956D01*
X183128960Y-91113344D01*
X183256747Y-91255266D01*
X183302874Y-91288779D01*
X183308390Y-91292787D01*
X183351744Y-91349009D01*
X183357819Y-91419746D01*
X183324687Y-91482537D01*
X183262867Y-91517449D01*
X183253388Y-91519273D01*
X183202932Y-91526994D01*
X183092091Y-91543955D01*
X182879756Y-91613357D01*
X182681607Y-91716507D01*
X182677474Y-91719610D01*
X182677471Y-91719612D01*
X182515134Y-91841498D01*
X182502965Y-91850635D01*
X182442590Y-91913814D01*
X182382684Y-91976502D01*
X182348629Y-92012138D01*
X182241201Y-92169621D01*
X182186293Y-92214621D01*
X182115768Y-92222792D01*
X182052021Y-92191538D01*
X182031324Y-92167054D01*
X181950822Y-92042617D01*
X181950820Y-92042614D01*
X181948014Y-92038277D01*
X181797670Y-91873051D01*
X181793619Y-91869852D01*
X181793615Y-91869848D01*
X181626414Y-91737800D01*
X181626410Y-91737798D01*
X181622359Y-91734598D01*
X181426789Y-91626638D01*
X181421920Y-91624914D01*
X181421916Y-91624912D01*
X181221087Y-91553795D01*
X181221083Y-91553794D01*
X181216212Y-91552069D01*
X181211119Y-91551162D01*
X181211116Y-91551161D01*
X181001373Y-91513800D01*
X181001367Y-91513799D01*
X180996284Y-91512894D01*
X180922452Y-91511992D01*
X180778081Y-91510228D01*
X180778079Y-91510228D01*
X180772911Y-91510165D01*
X180552091Y-91543955D01*
X180348644Y-91610452D01*
X180277682Y-91612603D01*
X180216820Y-91576047D01*
X180185383Y-91512390D01*
X180183500Y-91490687D01*
X180183500Y-83870994D01*
X180203502Y-83802873D01*
X180220405Y-83781899D01*
X183215129Y-80787175D01*
X183277441Y-80753149D01*
X183311032Y-80750454D01*
X183312484Y-80750533D01*
X183315866Y-80750900D01*
X183912134Y-80750900D01*
X183974316Y-80744145D01*
X184110705Y-80693015D01*
X184117890Y-80687630D01*
X184117892Y-80687629D01*
X184166667Y-80651074D01*
X184233174Y-80626226D01*
X184242232Y-80625900D01*
X185137694Y-80625900D01*
X185205815Y-80645902D01*
X185219702Y-80657083D01*
X185219771Y-80656996D01*
X185225517Y-80661534D01*
X185230697Y-80666705D01*
X185236927Y-80670545D01*
X185236928Y-80670546D01*
X185374288Y-80755216D01*
X185381262Y-80759515D01*
X185461005Y-80785964D01*
X185542611Y-80813032D01*
X185542613Y-80813032D01*
X185549139Y-80815197D01*
X185555975Y-80815897D01*
X185555978Y-80815898D01*
X185599031Y-80820309D01*
X185653600Y-80825900D01*
X186654400Y-80825900D01*
X186657646Y-80825563D01*
X186657650Y-80825563D01*
X186753308Y-80815638D01*
X186753312Y-80815637D01*
X186760166Y-80814926D01*
X186766702Y-80812745D01*
X186766704Y-80812745D01*
X186898806Y-80768672D01*
X186927946Y-80758950D01*
X187078348Y-80665878D01*
X187203305Y-80540703D01*
X187207338Y-80534160D01*
X187292275Y-80396368D01*
X187292276Y-80396366D01*
X187296115Y-80390138D01*
X187304463Y-80364970D01*
X187344893Y-80306609D01*
X187410457Y-80279372D01*
X187480339Y-80291905D01*
X187532351Y-80340229D01*
X187543579Y-80364759D01*
X187550129Y-80384393D01*
X187550133Y-80384403D01*
X187552450Y-80391346D01*
X187645522Y-80541748D01*
X187770697Y-80666705D01*
X187776927Y-80670545D01*
X187776928Y-80670546D01*
X187914288Y-80755216D01*
X187921262Y-80759515D01*
X188001005Y-80785964D01*
X188082611Y-80813032D01*
X188082613Y-80813032D01*
X188089139Y-80815197D01*
X188095975Y-80815897D01*
X188095978Y-80815898D01*
X188139031Y-80820309D01*
X188193600Y-80825900D01*
X189194400Y-80825900D01*
X189197646Y-80825563D01*
X189197650Y-80825563D01*
X189293308Y-80815638D01*
X189293312Y-80815637D01*
X189300166Y-80814926D01*
X189306702Y-80812745D01*
X189306704Y-80812745D01*
X189438806Y-80768672D01*
X189467946Y-80758950D01*
X189618348Y-80665878D01*
X189743305Y-80540703D01*
X189747338Y-80534160D01*
X189832275Y-80396368D01*
X189832276Y-80396366D01*
X189836115Y-80390138D01*
X189873117Y-80278579D01*
X189889632Y-80228789D01*
X189889632Y-80228787D01*
X189891797Y-80222261D01*
X189902500Y-80117800D01*
X189902500Y-80114495D01*
X190280001Y-80114495D01*
X190280338Y-80121014D01*
X190290257Y-80216606D01*
X190293149Y-80230000D01*
X190344588Y-80384184D01*
X190350761Y-80397362D01*
X190436063Y-80535207D01*
X190445099Y-80546608D01*
X190559829Y-80661139D01*
X190571240Y-80670151D01*
X190709243Y-80755216D01*
X190722424Y-80761363D01*
X190876710Y-80812538D01*
X190890086Y-80815405D01*
X190984438Y-80825072D01*
X190990854Y-80825400D01*
X191215885Y-80825400D01*
X191231124Y-80820925D01*
X191232329Y-80819535D01*
X191234000Y-80811852D01*
X191234000Y-80077015D01*
X191229525Y-80061776D01*
X191228135Y-80060571D01*
X191220452Y-80058900D01*
X190298116Y-80058900D01*
X190282877Y-80063375D01*
X190281672Y-80064765D01*
X190280001Y-80072448D01*
X190280001Y-80114495D01*
X189902500Y-80114495D01*
X189902500Y-79726900D01*
X189922502Y-79658779D01*
X189976158Y-79612286D01*
X190028500Y-79600900D01*
X191616000Y-79600900D01*
X191684121Y-79620902D01*
X191730614Y-79674558D01*
X191742000Y-79726900D01*
X191742000Y-80807284D01*
X191746475Y-80822523D01*
X191747865Y-80823728D01*
X191755548Y-80825399D01*
X191985095Y-80825399D01*
X191991614Y-80825062D01*
X192087206Y-80815143D01*
X192100600Y-80812251D01*
X192254784Y-80760812D01*
X192267962Y-80754639D01*
X192405807Y-80669337D01*
X192417208Y-80660301D01*
X192531739Y-80545571D01*
X192540751Y-80534160D01*
X192625816Y-80396157D01*
X192631965Y-80382971D01*
X192638200Y-80364175D01*
X192678631Y-80305816D01*
X192744196Y-80278580D01*
X192814077Y-80291114D01*
X192866088Y-80339440D01*
X192877316Y-80363967D01*
X192886450Y-80391346D01*
X192979522Y-80541748D01*
X193104697Y-80666705D01*
X193110927Y-80670545D01*
X193110928Y-80670546D01*
X193248288Y-80755216D01*
X193255262Y-80759515D01*
X193335005Y-80785964D01*
X193416611Y-80813032D01*
X193416613Y-80813032D01*
X193423139Y-80815197D01*
X193429975Y-80815897D01*
X193429978Y-80815898D01*
X193473031Y-80820309D01*
X193527600Y-80825900D01*
X194528400Y-80825900D01*
X194531646Y-80825563D01*
X194531650Y-80825563D01*
X194627308Y-80815638D01*
X194627312Y-80815637D01*
X194634166Y-80814926D01*
X194640702Y-80812745D01*
X194640704Y-80812745D01*
X194772806Y-80768672D01*
X194801946Y-80758950D01*
X194952348Y-80665878D01*
X195077305Y-80540703D01*
X195081338Y-80534160D01*
X195166275Y-80396368D01*
X195166276Y-80396366D01*
X195170115Y-80390138D01*
X195178726Y-80364177D01*
X195219156Y-80305816D01*
X195284720Y-80278579D01*
X195354602Y-80291112D01*
X195406614Y-80339436D01*
X195417843Y-80363967D01*
X195424588Y-80384184D01*
X195430761Y-80397362D01*
X195516063Y-80535207D01*
X195525099Y-80546608D01*
X195639829Y-80661139D01*
X195651240Y-80670151D01*
X195789243Y-80755216D01*
X195802424Y-80761363D01*
X195956710Y-80812538D01*
X195970086Y-80815405D01*
X196064438Y-80825072D01*
X196070854Y-80825400D01*
X196295885Y-80825400D01*
X196311124Y-80820925D01*
X196312329Y-80819535D01*
X196314000Y-80811852D01*
X196314000Y-79726900D01*
X196334002Y-79658779D01*
X196387658Y-79612286D01*
X196440000Y-79600900D01*
X196696000Y-79600900D01*
X196764121Y-79620902D01*
X196810614Y-79674558D01*
X196822000Y-79726900D01*
X196822000Y-80807284D01*
X196826475Y-80822523D01*
X196827865Y-80823728D01*
X196835548Y-80825399D01*
X197065095Y-80825399D01*
X197071614Y-80825062D01*
X197167206Y-80815143D01*
X197180600Y-80812251D01*
X197334784Y-80760812D01*
X197347962Y-80754639D01*
X197485807Y-80669337D01*
X197497208Y-80660301D01*
X197611739Y-80545571D01*
X197620751Y-80534160D01*
X197705816Y-80396157D01*
X197711965Y-80382971D01*
X197718200Y-80364175D01*
X197758631Y-80305816D01*
X197824196Y-80278580D01*
X197894077Y-80291114D01*
X197946088Y-80339440D01*
X197957316Y-80363967D01*
X197966450Y-80391346D01*
X198059522Y-80541748D01*
X198184697Y-80666705D01*
X198190927Y-80670545D01*
X198190928Y-80670546D01*
X198328288Y-80755216D01*
X198335262Y-80759515D01*
X198415005Y-80785964D01*
X198496611Y-80813032D01*
X198496613Y-80813032D01*
X198503139Y-80815197D01*
X198509975Y-80815897D01*
X198509978Y-80815898D01*
X198553031Y-80820309D01*
X198607600Y-80825900D01*
X199608400Y-80825900D01*
X199611646Y-80825563D01*
X199611650Y-80825563D01*
X199707308Y-80815638D01*
X199707312Y-80815637D01*
X199714166Y-80814926D01*
X199720702Y-80812745D01*
X199720704Y-80812745D01*
X199852806Y-80768672D01*
X199881946Y-80758950D01*
X200032348Y-80665878D01*
X200157305Y-80540703D01*
X200161338Y-80534160D01*
X200246275Y-80396368D01*
X200246276Y-80396366D01*
X200250115Y-80390138D01*
X200258726Y-80364177D01*
X200299156Y-80305816D01*
X200364720Y-80278579D01*
X200434602Y-80291112D01*
X200486614Y-80339436D01*
X200497843Y-80363967D01*
X200504588Y-80384184D01*
X200510761Y-80397362D01*
X200596063Y-80535207D01*
X200605099Y-80546608D01*
X200719829Y-80661139D01*
X200731240Y-80670151D01*
X200869243Y-80755216D01*
X200882424Y-80761363D01*
X201036710Y-80812538D01*
X201050086Y-80815405D01*
X201144438Y-80825072D01*
X201150854Y-80825400D01*
X201375885Y-80825400D01*
X201391124Y-80820925D01*
X201392329Y-80819535D01*
X201394000Y-80811852D01*
X201394000Y-80807284D01*
X201902000Y-80807284D01*
X201906475Y-80822523D01*
X201907865Y-80823728D01*
X201915548Y-80825399D01*
X202145095Y-80825399D01*
X202151614Y-80825062D01*
X202247206Y-80815143D01*
X202260600Y-80812251D01*
X202414784Y-80760812D01*
X202427962Y-80754639D01*
X202565807Y-80669337D01*
X202577208Y-80660301D01*
X202691739Y-80545571D01*
X202700751Y-80534160D01*
X202785816Y-80396157D01*
X202791963Y-80382976D01*
X202843138Y-80228690D01*
X202846005Y-80215314D01*
X202855672Y-80120962D01*
X202856000Y-80114546D01*
X202856000Y-80077015D01*
X202851525Y-80061776D01*
X202850135Y-80060571D01*
X202842452Y-80058900D01*
X201920115Y-80058900D01*
X201904876Y-80063375D01*
X201903671Y-80064765D01*
X201902000Y-80072448D01*
X201902000Y-80807284D01*
X201394000Y-80807284D01*
X201394000Y-79676900D01*
X201414002Y-79608779D01*
X201467658Y-79562286D01*
X201520000Y-79550900D01*
X202837884Y-79550900D01*
X202853123Y-79546425D01*
X202854328Y-79545035D01*
X202855999Y-79537352D01*
X202855999Y-79495305D01*
X202855662Y-79488786D01*
X202845743Y-79393194D01*
X202842851Y-79379800D01*
X202791412Y-79225616D01*
X202785239Y-79212438D01*
X202699937Y-79074593D01*
X202690901Y-79063192D01*
X202609538Y-78981970D01*
X202575459Y-78919687D01*
X202580462Y-78848867D01*
X202609383Y-78803780D01*
X202692130Y-78720888D01*
X202692134Y-78720883D01*
X202697305Y-78715703D01*
X202710870Y-78693697D01*
X202786275Y-78571368D01*
X202786276Y-78571366D01*
X202790115Y-78565138D01*
X202837117Y-78423430D01*
X202843632Y-78403789D01*
X202843632Y-78403787D01*
X202845797Y-78397261D01*
X202856500Y-78292800D01*
X202856500Y-77667000D01*
X202856163Y-77663750D01*
X202846238Y-77568092D01*
X202846237Y-77568088D01*
X202845526Y-77561234D01*
X202789550Y-77393454D01*
X202696478Y-77243052D01*
X202571303Y-77118095D01*
X202543604Y-77101021D01*
X202426968Y-77029125D01*
X202426966Y-77029124D01*
X202420738Y-77025285D01*
X202367832Y-77007737D01*
X202309473Y-76967306D01*
X202282236Y-76901742D01*
X202281500Y-76888144D01*
X202281500Y-72113163D01*
X202282027Y-72101979D01*
X202283701Y-72094491D01*
X202281562Y-72026432D01*
X202281500Y-72022475D01*
X202281500Y-71994544D01*
X202280994Y-71990538D01*
X202280061Y-71978692D01*
X202278922Y-71942437D01*
X202278673Y-71934510D01*
X202273022Y-71915058D01*
X202269014Y-71895706D01*
X202267468Y-71883468D01*
X202267467Y-71883466D01*
X202266474Y-71875603D01*
X202250194Y-71834486D01*
X202246359Y-71823285D01*
X202234018Y-71780806D01*
X202229985Y-71773987D01*
X202229983Y-71773982D01*
X202223707Y-71763371D01*
X202215010Y-71745621D01*
X202207552Y-71726783D01*
X202181571Y-71691023D01*
X202175053Y-71681101D01*
X202156578Y-71649860D01*
X202156574Y-71649855D01*
X202152542Y-71643037D01*
X202138218Y-71628713D01*
X202125376Y-71613678D01*
X202124029Y-71611824D01*
X202113472Y-71597293D01*
X202079406Y-71569111D01*
X202070627Y-71561122D01*
X199611652Y-69102147D01*
X199604112Y-69093861D01*
X199600000Y-69087382D01*
X199550348Y-69040756D01*
X199547507Y-69038002D01*
X199527770Y-69018265D01*
X199524573Y-69015785D01*
X199515551Y-69008080D01*
X199489100Y-68983241D01*
X199483321Y-68977814D01*
X199476375Y-68973995D01*
X199476372Y-68973993D01*
X199465566Y-68968052D01*
X199449047Y-68957201D01*
X199445820Y-68954698D01*
X199433041Y-68944786D01*
X199425772Y-68941641D01*
X199425768Y-68941638D01*
X199392463Y-68927226D01*
X199381813Y-68922009D01*
X199343060Y-68900705D01*
X199323437Y-68895667D01*
X199304734Y-68889263D01*
X199293420Y-68884367D01*
X199293419Y-68884367D01*
X199286145Y-68881219D01*
X199278322Y-68879980D01*
X199278312Y-68879977D01*
X199242476Y-68874301D01*
X199230856Y-68871895D01*
X199195711Y-68862872D01*
X199195710Y-68862872D01*
X199188030Y-68860900D01*
X199167776Y-68860900D01*
X199148065Y-68859349D01*
X199135886Y-68857420D01*
X199128057Y-68856180D01*
X199120165Y-68856926D01*
X199084039Y-68860341D01*
X199072181Y-68860900D01*
X181235272Y-68860900D01*
X181167151Y-68840898D01*
X181120658Y-68787242D01*
X181110554Y-68716968D01*
X181135310Y-68658195D01*
X181181061Y-68598572D01*
X181189247Y-68584393D01*
X181244190Y-68451750D01*
X181248428Y-68435932D01*
X181262462Y-68329334D01*
X181263000Y-68321125D01*
X181263000Y-67866015D01*
X181258525Y-67850776D01*
X181257135Y-67849571D01*
X181249452Y-67847900D01*
X180739500Y-67847900D01*
X180671379Y-67827898D01*
X180624886Y-67774242D01*
X180613500Y-67721901D01*
X180613499Y-67573901D01*
X180633501Y-67505780D01*
X180687156Y-67459287D01*
X180739499Y-67447900D01*
X181244884Y-67447900D01*
X181260123Y-67443425D01*
X181261328Y-67442035D01*
X181262999Y-67434352D01*
X181262999Y-66974677D01*
X181262461Y-66966465D01*
X181248428Y-66859867D01*
X181244190Y-66844052D01*
X181189247Y-66711407D01*
X181181059Y-66697224D01*
X181093656Y-66583320D01*
X181082080Y-66571744D01*
X180968176Y-66484341D01*
X180953993Y-66476153D01*
X180821350Y-66421210D01*
X180805533Y-66416972D01*
X180767061Y-66411907D01*
X180702135Y-66383184D01*
X180663043Y-66323918D01*
X180662199Y-66252927D01*
X180694414Y-66197890D01*
X181278499Y-65613805D01*
X181340811Y-65579779D01*
X181367594Y-65576900D01*
X181423487Y-65576900D01*
X181429939Y-65575528D01*
X181429944Y-65575528D01*
X181516887Y-65557047D01*
X181610288Y-65537194D01*
X181619679Y-65533013D01*
X181778722Y-65462203D01*
X181778724Y-65462202D01*
X181784752Y-65459518D01*
X181939253Y-65347266D01*
X181966934Y-65316523D01*
X182062621Y-65210252D01*
X182062622Y-65210251D01*
X182067040Y-65205344D01*
X182162527Y-65039956D01*
X182221542Y-64858328D01*
X182241504Y-64668400D01*
X182221542Y-64478472D01*
X182162527Y-64296844D01*
X182067040Y-64131456D01*
X182053376Y-64116280D01*
X181943675Y-63994445D01*
X181943674Y-63994444D01*
X181939253Y-63989534D01*
X181784752Y-63877282D01*
X181778724Y-63874598D01*
X181778722Y-63874597D01*
X181616319Y-63802291D01*
X181616318Y-63802291D01*
X181610288Y-63799606D01*
X181516888Y-63779753D01*
X181429944Y-63761272D01*
X181429939Y-63761272D01*
X181423487Y-63759900D01*
X181232513Y-63759900D01*
X181226061Y-63761272D01*
X181226056Y-63761272D01*
X181139112Y-63779753D01*
X181045712Y-63799606D01*
X181039682Y-63802291D01*
X181039681Y-63802291D01*
X180877278Y-63874597D01*
X180877276Y-63874598D01*
X180871248Y-63877282D01*
X180716747Y-63989534D01*
X180712326Y-63994444D01*
X180712325Y-63994445D01*
X180602625Y-64116280D01*
X180588960Y-64131456D01*
X180493473Y-64296844D01*
X180434458Y-64478472D01*
X180433768Y-64485033D01*
X180433768Y-64485035D01*
X180417093Y-64643693D01*
X180390080Y-64709350D01*
X180380880Y-64719616D01*
X179601507Y-65498988D01*
X179539197Y-65533013D01*
X179468382Y-65527948D01*
X179411546Y-65485401D01*
X179386735Y-65418881D01*
X179401826Y-65349507D01*
X179418777Y-65325582D01*
X179433820Y-65308875D01*
X179527040Y-65205344D01*
X179622527Y-65039956D01*
X179681542Y-64858328D01*
X179701504Y-64668400D01*
X179681542Y-64478472D01*
X179622527Y-64296844D01*
X179527040Y-64131456D01*
X179513376Y-64116280D01*
X179403675Y-63994445D01*
X179403674Y-63994444D01*
X179399253Y-63989534D01*
X179244752Y-63877282D01*
X179238724Y-63874598D01*
X179238722Y-63874597D01*
X179076319Y-63802291D01*
X179076318Y-63802291D01*
X179070288Y-63799606D01*
X178976888Y-63779753D01*
X178889944Y-63761272D01*
X178889939Y-63761272D01*
X178883487Y-63759900D01*
X178692513Y-63759900D01*
X178686061Y-63761272D01*
X178686056Y-63761272D01*
X178599112Y-63779753D01*
X178505712Y-63799606D01*
X178499682Y-63802291D01*
X178499681Y-63802291D01*
X178337278Y-63874597D01*
X178337276Y-63874598D01*
X178331248Y-63877282D01*
X178176747Y-63989534D01*
X178172326Y-63994444D01*
X178172325Y-63994445D01*
X178062625Y-64116280D01*
X178048960Y-64131456D01*
X177953473Y-64296844D01*
X177894458Y-64478472D01*
X177874496Y-64668400D01*
X177894458Y-64858328D01*
X177953473Y-65039956D01*
X177956777Y-65045679D01*
X177959461Y-65051707D01*
X177957473Y-65052592D01*
X177971500Y-65104941D01*
X177971500Y-65191805D01*
X177951498Y-65259926D01*
X177897842Y-65306419D01*
X177827568Y-65316523D01*
X177762988Y-65287029D01*
X177756404Y-65280900D01*
X177565011Y-65089506D01*
X177195121Y-64719616D01*
X177161096Y-64657304D01*
X177158907Y-64643691D01*
X177142232Y-64485035D01*
X177142232Y-64485033D01*
X177141542Y-64478472D01*
X177082527Y-64296844D01*
X176987040Y-64131456D01*
X176973376Y-64116280D01*
X176863675Y-63994445D01*
X176863674Y-63994444D01*
X176859253Y-63989534D01*
X176704752Y-63877282D01*
X176698724Y-63874598D01*
X176698722Y-63874597D01*
X176536319Y-63802291D01*
X176536318Y-63802291D01*
X176530288Y-63799606D01*
X176436888Y-63779753D01*
X176349944Y-63761272D01*
X176349939Y-63761272D01*
X176343487Y-63759900D01*
X176152513Y-63759900D01*
X176146061Y-63761272D01*
X176146056Y-63761272D01*
X176059112Y-63779753D01*
X175965712Y-63799606D01*
X175959682Y-63802291D01*
X175959681Y-63802291D01*
X175797278Y-63874597D01*
X175797276Y-63874598D01*
X175791248Y-63877282D01*
X175636747Y-63989534D01*
X175632326Y-63994444D01*
X175632325Y-63994445D01*
X175522625Y-64116280D01*
X175508960Y-64131456D01*
X175413473Y-64296844D01*
X175354458Y-64478472D01*
X175334496Y-64668400D01*
X175354458Y-64858328D01*
X175413473Y-65039956D01*
X175508960Y-65205344D01*
X175513378Y-65210251D01*
X175513379Y-65210252D01*
X175609066Y-65316523D01*
X175636747Y-65347266D01*
X175791248Y-65459518D01*
X175797276Y-65462202D01*
X175797278Y-65462203D01*
X175956321Y-65533013D01*
X175965712Y-65537194D01*
X176059113Y-65557047D01*
X176146056Y-65575528D01*
X176146061Y-65575528D01*
X176152513Y-65576900D01*
X176208406Y-65576900D01*
X176276527Y-65596902D01*
X176297501Y-65613805D01*
X176870501Y-66186805D01*
X176904527Y-66249117D01*
X176899462Y-66319932D01*
X176856915Y-66376768D01*
X176790395Y-66401579D01*
X176781406Y-66401900D01*
X176580648Y-66401901D01*
X176515116Y-66401901D01*
X176511031Y-66402439D01*
X176511027Y-66402439D01*
X176404337Y-66416484D01*
X176404335Y-66416484D01*
X176396150Y-66417562D01*
X176378219Y-66424989D01*
X176307630Y-66432579D01*
X176281782Y-66424990D01*
X176278339Y-66423563D01*
X176271480Y-66420722D01*
X176271477Y-66420721D01*
X176263850Y-66417562D01*
X176220896Y-66411907D01*
X176148972Y-66402438D01*
X176148971Y-66402438D01*
X176144885Y-66401900D01*
X176005017Y-66401900D01*
X175865116Y-66401901D01*
X175861031Y-66402439D01*
X175861027Y-66402439D01*
X175754337Y-66416484D01*
X175754335Y-66416484D01*
X175746150Y-66417562D01*
X175728220Y-66424989D01*
X175605752Y-66475716D01*
X175605750Y-66475717D01*
X175598124Y-66478876D01*
X175471013Y-66576413D01*
X175465987Y-66582963D01*
X175465984Y-66582966D01*
X175422244Y-66639969D01*
X175373476Y-66703525D01*
X175312162Y-66851550D01*
X175296500Y-66970515D01*
X175296501Y-68325284D01*
X175312162Y-68444250D01*
X175315322Y-68451878D01*
X175373476Y-68592276D01*
X175373041Y-68592456D01*
X175380003Y-68608827D01*
X175380052Y-68608997D01*
X175383987Y-68628100D01*
X175386526Y-68648197D01*
X175389445Y-68655568D01*
X175389445Y-68655570D01*
X175402804Y-68689312D01*
X175406649Y-68700542D01*
X175418982Y-68742993D01*
X175423015Y-68749812D01*
X175423017Y-68749817D01*
X175429293Y-68760428D01*
X175437988Y-68778176D01*
X175445448Y-68797017D01*
X175450110Y-68803433D01*
X175450110Y-68803434D01*
X175471436Y-68832787D01*
X175477952Y-68842707D01*
X175489878Y-68862872D01*
X175500458Y-68880762D01*
X175514779Y-68895083D01*
X175527619Y-68910116D01*
X175539528Y-68926507D01*
X175567493Y-68949642D01*
X175573605Y-68954698D01*
X175582384Y-68962688D01*
X177551500Y-70931805D01*
X177585526Y-70994117D01*
X177580461Y-71064933D01*
X177537914Y-71121768D01*
X177471394Y-71146579D01*
X177462405Y-71146900D01*
X176326767Y-71146900D01*
X176315584Y-71146373D01*
X176308091Y-71144698D01*
X176300165Y-71144947D01*
X176300164Y-71144947D01*
X176240014Y-71146838D01*
X176236055Y-71146900D01*
X176208144Y-71146900D01*
X176204210Y-71147397D01*
X176204209Y-71147397D01*
X176204144Y-71147405D01*
X176192307Y-71148338D01*
X176160490Y-71149338D01*
X176156029Y-71149478D01*
X176148110Y-71149727D01*
X176130454Y-71154856D01*
X176128658Y-71155378D01*
X176109306Y-71159386D01*
X176102235Y-71160280D01*
X176089203Y-71161926D01*
X176081834Y-71164843D01*
X176081832Y-71164844D01*
X176048097Y-71178200D01*
X176036869Y-71182045D01*
X175994407Y-71194382D01*
X175987585Y-71198416D01*
X175987579Y-71198419D01*
X175976968Y-71204694D01*
X175959218Y-71213390D01*
X175947756Y-71217928D01*
X175947751Y-71217931D01*
X175940383Y-71220848D01*
X175933968Y-71225509D01*
X175904625Y-71246827D01*
X175894707Y-71253343D01*
X175876019Y-71264395D01*
X175856637Y-71275858D01*
X175842313Y-71290182D01*
X175827281Y-71303021D01*
X175810893Y-71314928D01*
X175782712Y-71348993D01*
X175774722Y-71357773D01*
X175596815Y-71535680D01*
X175578547Y-71550795D01*
X175571729Y-71555428D01*
X175566485Y-71561376D01*
X175566484Y-71561377D01*
X175534589Y-71597555D01*
X175529170Y-71603325D01*
X175517865Y-71614630D01*
X175515435Y-71617763D01*
X175508057Y-71627274D01*
X175503012Y-71633372D01*
X175495439Y-71641962D01*
X175465880Y-71675490D01*
X175462281Y-71682554D01*
X175462280Y-71682555D01*
X175462140Y-71682829D01*
X175449434Y-71702850D01*
X175449248Y-71703090D01*
X175449246Y-71703094D01*
X175444386Y-71709359D01*
X175441236Y-71716638D01*
X175422079Y-71760907D01*
X175418722Y-71768042D01*
X175393215Y-71818104D01*
X175391417Y-71826149D01*
X175384091Y-71848694D01*
X175380819Y-71856255D01*
X175377739Y-71875699D01*
X175372033Y-71911726D01*
X175370549Y-71919501D01*
X175358298Y-71974309D01*
X175358547Y-71982232D01*
X175358547Y-71982233D01*
X175358557Y-71982541D01*
X175357067Y-72006215D01*
X175355780Y-72014343D01*
X175356526Y-72022235D01*
X175356526Y-72022236D01*
X175361065Y-72070258D01*
X175361562Y-72078155D01*
X175361827Y-72086568D01*
X175363327Y-72134289D01*
X175365624Y-72142194D01*
X175370068Y-72165494D01*
X175370843Y-72173695D01*
X175370149Y-72173761D01*
X175371500Y-72185987D01*
X175371500Y-72408232D01*
X175361909Y-72456450D01*
X175312162Y-72576550D01*
X175311084Y-72584738D01*
X175308947Y-72592714D01*
X175307178Y-72592240D01*
X175282609Y-72647775D01*
X175223343Y-72686866D01*
X175186411Y-72692400D01*
X174200046Y-72692400D01*
X174131925Y-72672398D01*
X174092902Y-72632703D01*
X174023332Y-72520280D01*
X174019478Y-72514052D01*
X173894303Y-72389095D01*
X173889765Y-72386298D01*
X173849176Y-72329047D01*
X173845946Y-72258124D01*
X173881572Y-72196713D01*
X173890068Y-72189338D01*
X173900207Y-72181302D01*
X174014739Y-72066571D01*
X174023751Y-72055160D01*
X174108816Y-71917157D01*
X174114963Y-71903976D01*
X174166138Y-71749690D01*
X174169005Y-71736314D01*
X174178672Y-71641962D01*
X174179000Y-71635546D01*
X174179000Y-71523015D01*
X174174525Y-71507776D01*
X174173135Y-71506571D01*
X174165452Y-71504900D01*
X172818000Y-71504900D01*
X172749879Y-71484898D01*
X172703386Y-71431242D01*
X172692000Y-71378900D01*
X172692000Y-70978785D01*
X173200000Y-70978785D01*
X173204475Y-70994024D01*
X173205865Y-70995229D01*
X173213548Y-70996900D01*
X174160884Y-70996900D01*
X174176123Y-70992425D01*
X174177328Y-70991035D01*
X174178999Y-70983352D01*
X174178999Y-70866305D01*
X174178662Y-70859786D01*
X174168743Y-70764194D01*
X174165851Y-70750800D01*
X174114412Y-70596616D01*
X174108239Y-70583438D01*
X174022937Y-70445593D01*
X174013901Y-70434192D01*
X173899171Y-70319661D01*
X173887760Y-70310649D01*
X173749757Y-70225584D01*
X173736576Y-70219437D01*
X173582290Y-70168262D01*
X173568914Y-70165395D01*
X173474562Y-70155728D01*
X173468145Y-70155400D01*
X173218115Y-70155400D01*
X173202876Y-70159875D01*
X173201671Y-70161265D01*
X173200000Y-70168948D01*
X173200000Y-70978785D01*
X172692000Y-70978785D01*
X172692000Y-70173516D01*
X172687525Y-70158277D01*
X172686135Y-70157072D01*
X172678452Y-70155401D01*
X172423905Y-70155401D01*
X172417386Y-70155738D01*
X172321794Y-70165657D01*
X172308400Y-70168549D01*
X172154216Y-70219988D01*
X172141038Y-70226161D01*
X172003193Y-70311463D01*
X171991787Y-70320503D01*
X171931672Y-70380722D01*
X171869390Y-70414801D01*
X171798570Y-70409798D01*
X171741697Y-70367300D01*
X171716829Y-70300801D01*
X171716500Y-70291704D01*
X171716500Y-65765576D01*
X171720793Y-65732964D01*
X171757251Y-65596902D01*
X171777115Y-65522771D01*
X171796307Y-65303400D01*
X171777115Y-65084029D01*
X171720120Y-64871324D01*
X171632922Y-64684326D01*
X171629382Y-64676734D01*
X171629379Y-64676729D01*
X171627056Y-64671747D01*
X171616943Y-64657304D01*
X171503908Y-64495873D01*
X171503906Y-64495870D01*
X171500749Y-64491362D01*
X171345038Y-64335651D01*
X171164654Y-64209344D01*
X170965076Y-64116280D01*
X170752371Y-64059285D01*
X170533000Y-64040093D01*
X170313629Y-64059285D01*
X170100924Y-64116280D01*
X170056117Y-64137174D01*
X169906334Y-64207018D01*
X169906329Y-64207021D01*
X169901347Y-64209344D01*
X169896840Y-64212500D01*
X169896838Y-64212501D01*
X169725473Y-64332492D01*
X169725470Y-64332494D01*
X169720962Y-64335651D01*
X169565251Y-64491362D01*
X169562094Y-64495870D01*
X169562092Y-64495873D01*
X169449057Y-64657304D01*
X169438944Y-64671747D01*
X169436621Y-64676729D01*
X169436618Y-64676734D01*
X169433078Y-64684326D01*
X169345880Y-64871324D01*
X169288885Y-65084029D01*
X169269693Y-65303400D01*
X169288885Y-65522771D01*
X169345880Y-65735476D01*
X169348205Y-65740461D01*
X169436618Y-65930066D01*
X169436621Y-65930071D01*
X169438944Y-65935053D01*
X169565251Y-66115438D01*
X169662595Y-66212782D01*
X169696621Y-66275094D01*
X169699500Y-66301877D01*
X169699500Y-91908381D01*
X169679498Y-91976502D01*
X169664594Y-91995432D01*
X169648629Y-92012138D01*
X169522743Y-92196680D01*
X169428688Y-92399305D01*
X169368989Y-92614570D01*
X169345251Y-92836695D01*
X169345548Y-92841848D01*
X169345548Y-92841851D01*
X169351011Y-92936590D01*
X169358110Y-93059715D01*
X169359247Y-93064761D01*
X169359248Y-93064767D01*
X169370031Y-93112614D01*
X169407222Y-93277639D01*
X169491266Y-93484616D01*
X169531924Y-93550964D01*
X169605291Y-93670688D01*
X169607987Y-93675088D01*
X169611367Y-93678990D01*
X169614300Y-93682376D01*
X169754250Y-93843938D01*
X169758230Y-93847242D01*
X169762981Y-93851187D01*
X169802616Y-93910090D01*
X169804113Y-93981071D01*
X169766997Y-94041593D01*
X169726725Y-94066112D01*
X169685913Y-94081412D01*
X169611295Y-94109385D01*
X169494739Y-94196739D01*
X169407385Y-94313295D01*
X169356255Y-94449684D01*
X169349500Y-94511866D01*
X169349500Y-96175500D01*
X169329498Y-96243621D01*
X169275842Y-96290114D01*
X169223500Y-96301500D01*
X165049367Y-96301500D01*
X165029982Y-96300000D01*
X165015149Y-96297690D01*
X165015145Y-96297690D01*
X165006276Y-96296309D01*
X164988280Y-96298662D01*
X164964884Y-96299528D01*
X164716905Y-96285602D01*
X164702873Y-96284021D01*
X164566590Y-96260865D01*
X164430313Y-96237711D01*
X164416538Y-96234567D01*
X164150880Y-96158032D01*
X164137543Y-96153365D01*
X163965524Y-96082113D01*
X163882123Y-96047567D01*
X163869400Y-96041440D01*
X163627427Y-95907706D01*
X163615479Y-95900199D01*
X163389987Y-95740204D01*
X163378955Y-95731406D01*
X163172808Y-95547181D01*
X163162818Y-95537191D01*
X162978594Y-95331045D01*
X162969796Y-95320013D01*
X162809801Y-95094521D01*
X162802294Y-95082573D01*
X162668560Y-94840600D01*
X162662431Y-94827873D01*
X162622717Y-94731993D01*
X162613637Y-94710074D01*
X162556635Y-94572457D01*
X162551968Y-94559120D01*
X162475433Y-94293462D01*
X162472289Y-94279687D01*
X162443691Y-94111372D01*
X162425979Y-94007127D01*
X162424398Y-93993091D01*
X162424036Y-93986632D01*
X162415953Y-93842703D01*
X162890743Y-93842703D01*
X162891302Y-93846947D01*
X162891302Y-93846951D01*
X162891860Y-93851187D01*
X162928268Y-94127734D01*
X162929401Y-94131874D01*
X162929401Y-94131876D01*
X162947146Y-94196739D01*
X163004129Y-94405036D01*
X163005813Y-94408984D01*
X163076522Y-94574757D01*
X163116923Y-94669476D01*
X163264561Y-94916161D01*
X163444313Y-95140528D01*
X163493665Y-95187361D01*
X163645084Y-95331052D01*
X163652851Y-95338423D01*
X163886317Y-95506186D01*
X163890112Y-95508195D01*
X163890113Y-95508196D01*
X163911869Y-95519715D01*
X164140392Y-95640712D01*
X164253113Y-95681962D01*
X164401096Y-95736116D01*
X164410373Y-95739511D01*
X164691264Y-95800755D01*
X164719841Y-95803004D01*
X164914282Y-95818307D01*
X164914291Y-95818307D01*
X164916739Y-95818500D01*
X165072271Y-95818500D01*
X165074407Y-95818354D01*
X165074418Y-95818354D01*
X165282548Y-95804165D01*
X165282554Y-95804164D01*
X165286825Y-95803873D01*
X165291020Y-95803004D01*
X165291022Y-95803004D01*
X165427583Y-95774724D01*
X165568342Y-95745574D01*
X165839343Y-95649607D01*
X166094812Y-95517750D01*
X166098313Y-95515289D01*
X166098317Y-95515287D01*
X166248125Y-95410000D01*
X166330023Y-95352441D01*
X166540622Y-95156740D01*
X166722713Y-94934268D01*
X166872927Y-94689142D01*
X166923139Y-94574757D01*
X166986757Y-94429830D01*
X166988483Y-94425898D01*
X166992951Y-94410215D01*
X167050537Y-94208057D01*
X167067244Y-94149406D01*
X167107751Y-93864784D01*
X167107823Y-93851187D01*
X167109235Y-93581583D01*
X167109235Y-93581576D01*
X167109257Y-93577297D01*
X167103012Y-93529857D01*
X167072292Y-93296522D01*
X167071732Y-93292266D01*
X166995871Y-93014964D01*
X166961013Y-92933240D01*
X166884763Y-92754476D01*
X166884761Y-92754472D01*
X166883077Y-92750524D01*
X166735439Y-92503839D01*
X166555687Y-92279472D01*
X166347149Y-92081577D01*
X166113683Y-91913814D01*
X166091843Y-91902250D01*
X166014248Y-91861166D01*
X165859608Y-91779288D01*
X165589627Y-91680489D01*
X165308736Y-91619245D01*
X165277685Y-91616801D01*
X165085718Y-91601693D01*
X165085709Y-91601693D01*
X165083261Y-91601500D01*
X164927729Y-91601500D01*
X164925593Y-91601646D01*
X164925582Y-91601646D01*
X164717452Y-91615835D01*
X164717446Y-91615836D01*
X164713175Y-91616127D01*
X164708980Y-91616996D01*
X164708978Y-91616996D01*
X164613995Y-91636666D01*
X164431658Y-91674426D01*
X164160657Y-91770393D01*
X164156848Y-91772359D01*
X164005191Y-91850635D01*
X163905188Y-91902250D01*
X163901687Y-91904711D01*
X163901683Y-91904713D01*
X163896464Y-91908381D01*
X163669977Y-92067559D01*
X163654892Y-92081577D01*
X163499647Y-92225840D01*
X163459378Y-92263260D01*
X163277287Y-92485732D01*
X163127073Y-92730858D01*
X163125347Y-92734791D01*
X163125346Y-92734792D01*
X163036763Y-92936590D01*
X163011517Y-92994102D01*
X162932756Y-93270594D01*
X162892249Y-93555216D01*
X162892227Y-93559505D01*
X162892226Y-93559512D01*
X162891191Y-93757137D01*
X162890743Y-93842703D01*
X162415953Y-93842703D01*
X162411089Y-93756100D01*
X162412412Y-93732208D01*
X162412334Y-93732201D01*
X162412539Y-93729916D01*
X162412638Y-93728127D01*
X162412769Y-93727346D01*
X162413576Y-93722552D01*
X162413729Y-93710000D01*
X162409773Y-93682376D01*
X162408500Y-93664514D01*
X162408500Y-54042703D01*
X162890743Y-54042703D01*
X162928268Y-54327734D01*
X163004129Y-54605036D01*
X163116923Y-54869476D01*
X163264561Y-55116161D01*
X163444313Y-55340528D01*
X163652851Y-55538423D01*
X163886317Y-55706186D01*
X163890112Y-55708195D01*
X163890113Y-55708196D01*
X163911869Y-55719715D01*
X164140392Y-55840712D01*
X164410373Y-55939511D01*
X164691264Y-56000755D01*
X164719841Y-56003004D01*
X164914282Y-56018307D01*
X164914291Y-56018307D01*
X164916739Y-56018500D01*
X165072271Y-56018500D01*
X165074407Y-56018354D01*
X165074418Y-56018354D01*
X165282548Y-56004165D01*
X165282554Y-56004164D01*
X165286825Y-56003873D01*
X165291020Y-56003004D01*
X165291022Y-56003004D01*
X165427583Y-55974724D01*
X165568342Y-55945574D01*
X165839343Y-55849607D01*
X166094812Y-55717750D01*
X166098313Y-55715289D01*
X166098317Y-55715287D01*
X166212417Y-55635096D01*
X166330023Y-55552441D01*
X166540622Y-55356740D01*
X166722713Y-55134268D01*
X166872927Y-54889142D01*
X166988483Y-54625898D01*
X167067244Y-54349406D01*
X167107751Y-54064784D01*
X167107845Y-54046951D01*
X167107867Y-54042703D01*
X204690743Y-54042703D01*
X204728268Y-54327734D01*
X204804129Y-54605036D01*
X204916923Y-54869476D01*
X205064561Y-55116161D01*
X205244313Y-55340528D01*
X205452851Y-55538423D01*
X205686317Y-55706186D01*
X205690112Y-55708195D01*
X205690113Y-55708196D01*
X205711869Y-55719715D01*
X205940392Y-55840712D01*
X206210373Y-55939511D01*
X206491264Y-56000755D01*
X206519841Y-56003004D01*
X206714282Y-56018307D01*
X206714291Y-56018307D01*
X206716739Y-56018500D01*
X206872271Y-56018500D01*
X206874407Y-56018354D01*
X206874418Y-56018354D01*
X207082548Y-56004165D01*
X207082554Y-56004164D01*
X207086825Y-56003873D01*
X207091020Y-56003004D01*
X207091022Y-56003004D01*
X207227583Y-55974724D01*
X207368342Y-55945574D01*
X207639343Y-55849607D01*
X207894812Y-55717750D01*
X207898313Y-55715289D01*
X207898317Y-55715287D01*
X208012417Y-55635096D01*
X208130023Y-55552441D01*
X208340622Y-55356740D01*
X208522713Y-55134268D01*
X208672927Y-54889142D01*
X208788483Y-54625898D01*
X208867244Y-54349406D01*
X208907751Y-54064784D01*
X208907845Y-54046951D01*
X208909235Y-53781583D01*
X208909235Y-53781576D01*
X208909257Y-53777297D01*
X208871732Y-53492266D01*
X208795871Y-53214964D01*
X208727249Y-53054082D01*
X208684763Y-52954476D01*
X208684761Y-52954472D01*
X208683077Y-52950524D01*
X208535439Y-52703839D01*
X208355687Y-52479472D01*
X208166558Y-52299995D01*
X208150258Y-52284527D01*
X208150255Y-52284525D01*
X208147149Y-52281577D01*
X207913683Y-52113814D01*
X207891843Y-52102250D01*
X207836255Y-52072818D01*
X207659608Y-51979288D01*
X207450614Y-51902807D01*
X207393658Y-51881964D01*
X207393656Y-51881963D01*
X207389627Y-51880489D01*
X207108736Y-51819245D01*
X207077685Y-51816801D01*
X206885718Y-51801693D01*
X206885709Y-51801693D01*
X206883261Y-51801500D01*
X206727729Y-51801500D01*
X206725593Y-51801646D01*
X206725582Y-51801646D01*
X206517452Y-51815835D01*
X206517446Y-51815836D01*
X206513175Y-51816127D01*
X206508980Y-51816996D01*
X206508978Y-51816996D01*
X206372417Y-51845276D01*
X206231658Y-51874426D01*
X205960657Y-51970393D01*
X205705188Y-52102250D01*
X205701687Y-52104711D01*
X205701683Y-52104713D01*
X205691594Y-52111804D01*
X205469977Y-52267559D01*
X205259378Y-52463260D01*
X205077287Y-52685732D01*
X204927073Y-52930858D01*
X204811517Y-53194102D01*
X204732756Y-53470594D01*
X204692249Y-53755216D01*
X204692227Y-53759505D01*
X204692226Y-53759512D01*
X204691263Y-53943421D01*
X204690743Y-54042703D01*
X167107867Y-54042703D01*
X167109235Y-53781583D01*
X167109235Y-53781576D01*
X167109257Y-53777297D01*
X167071732Y-53492266D01*
X166995871Y-53214964D01*
X166927249Y-53054082D01*
X166884763Y-52954476D01*
X166884761Y-52954472D01*
X166883077Y-52950524D01*
X166735439Y-52703839D01*
X166555687Y-52479472D01*
X166366558Y-52299995D01*
X166350258Y-52284527D01*
X166350255Y-52284525D01*
X166347149Y-52281577D01*
X166113683Y-52113814D01*
X166091843Y-52102250D01*
X166036255Y-52072818D01*
X165859608Y-51979288D01*
X165650614Y-51902807D01*
X165593658Y-51881964D01*
X165593656Y-51881963D01*
X165589627Y-51880489D01*
X165308736Y-51819245D01*
X165277685Y-51816801D01*
X165085718Y-51801693D01*
X165085709Y-51801693D01*
X165083261Y-51801500D01*
X164927729Y-51801500D01*
X164925593Y-51801646D01*
X164925582Y-51801646D01*
X164717452Y-51815835D01*
X164717446Y-51815836D01*
X164713175Y-51816127D01*
X164708980Y-51816996D01*
X164708978Y-51816996D01*
X164572417Y-51845276D01*
X164431658Y-51874426D01*
X164160657Y-51970393D01*
X163905188Y-52102250D01*
X163901687Y-52104711D01*
X163901683Y-52104713D01*
X163891594Y-52111804D01*
X163669977Y-52267559D01*
X163459378Y-52463260D01*
X163277287Y-52685732D01*
X163127073Y-52930858D01*
X163011517Y-53194102D01*
X162932756Y-53470594D01*
X162892249Y-53755216D01*
X162892227Y-53759505D01*
X162892226Y-53759512D01*
X162891263Y-53943421D01*
X162890743Y-54042703D01*
X162408500Y-54042703D01*
X162408500Y-53963250D01*
X162410246Y-53942345D01*
X162412770Y-53927344D01*
X162412770Y-53927341D01*
X162413576Y-53922552D01*
X162413729Y-53910000D01*
X162413040Y-53905190D01*
X162413039Y-53905172D01*
X162411751Y-53896181D01*
X162410676Y-53871254D01*
X162415712Y-53781583D01*
X162424398Y-53626905D01*
X162425980Y-53612868D01*
X162472289Y-53340313D01*
X162475433Y-53326538D01*
X162551968Y-53060880D01*
X162556635Y-53047543D01*
X162662431Y-52792127D01*
X162668562Y-52779396D01*
X162718309Y-52689386D01*
X162802294Y-52537427D01*
X162809801Y-52525479D01*
X162969796Y-52299987D01*
X162978594Y-52288955D01*
X163162819Y-52082808D01*
X163172809Y-52072818D01*
X163378955Y-51888594D01*
X163389987Y-51879796D01*
X163615479Y-51719801D01*
X163627427Y-51712294D01*
X163869400Y-51578560D01*
X163882123Y-51572433D01*
X163980416Y-51531718D01*
X164137543Y-51466635D01*
X164150880Y-51461968D01*
X164416538Y-51385433D01*
X164430313Y-51382289D01*
X164588994Y-51355328D01*
X164702873Y-51335979D01*
X164716905Y-51334398D01*
X164796506Y-51329928D01*
X164957593Y-51320882D01*
X164984038Y-51322183D01*
X164984851Y-51322310D01*
X164984855Y-51322310D01*
X164993724Y-51323691D01*
X165002626Y-51322527D01*
X165002628Y-51322527D01*
X165017677Y-51320559D01*
X165025286Y-51319564D01*
X165041621Y-51318500D01*
X206750633Y-51318500D01*
X206770018Y-51320000D01*
G37*
G04 #@! TD.AperFunction*
G04 #@! TA.AperFunction,Conductor*
G36*
X176589532Y-75232938D02*
G01*
X176646368Y-75275485D01*
X176671179Y-75342005D01*
X176671500Y-75350994D01*
X176671500Y-78028805D01*
X176651498Y-78096926D01*
X176634595Y-78117900D01*
X176617747Y-78134748D01*
X176609461Y-78142288D01*
X176602982Y-78146400D01*
X176597557Y-78152177D01*
X176556356Y-78196052D01*
X176553601Y-78198894D01*
X176533865Y-78218630D01*
X176531385Y-78221827D01*
X176523682Y-78230847D01*
X176493414Y-78263079D01*
X176489595Y-78270025D01*
X176489593Y-78270028D01*
X176483652Y-78280834D01*
X176472801Y-78297353D01*
X176460386Y-78313359D01*
X176457241Y-78320628D01*
X176457238Y-78320632D01*
X176442826Y-78353937D01*
X176437609Y-78364587D01*
X176416305Y-78403340D01*
X176414334Y-78411015D01*
X176414334Y-78411016D01*
X176411267Y-78422962D01*
X176404863Y-78441666D01*
X176396819Y-78460255D01*
X176395580Y-78468078D01*
X176395577Y-78468088D01*
X176389901Y-78503924D01*
X176387495Y-78515544D01*
X176380864Y-78541371D01*
X176376500Y-78558370D01*
X176376500Y-78578624D01*
X176374949Y-78598334D01*
X176371780Y-78618343D01*
X176372526Y-78626235D01*
X176375941Y-78662361D01*
X176376500Y-78674219D01*
X176376500Y-91459404D01*
X176356498Y-91527525D01*
X176302842Y-91574018D01*
X176232568Y-91584122D01*
X176208440Y-91578177D01*
X176140959Y-91554280D01*
X176130988Y-91551646D01*
X176059837Y-91538972D01*
X176046540Y-91540432D01*
X176042000Y-91554989D01*
X176042000Y-92998000D01*
X176021998Y-93066121D01*
X175968342Y-93112614D01*
X175916000Y-93124000D01*
X175660000Y-93124000D01*
X175591879Y-93103998D01*
X175545386Y-93050342D01*
X175534000Y-92998000D01*
X175534000Y-91553102D01*
X175530082Y-91539758D01*
X175515806Y-91537771D01*
X175477324Y-91543660D01*
X175467288Y-91546051D01*
X175268645Y-91610977D01*
X175197681Y-91613128D01*
X175136819Y-91576572D01*
X175105383Y-91512914D01*
X175103500Y-91491212D01*
X175103500Y-76666994D01*
X175123502Y-76598873D01*
X175140405Y-76577899D01*
X176456405Y-75261899D01*
X176518717Y-75227873D01*
X176589532Y-75232938D01*
G37*
G04 #@! TD.AperFunction*
G04 #@! TA.AperFunction,Conductor*
G36*
X186415526Y-72433902D02*
G01*
X186436501Y-72450805D01*
X186753596Y-72767901D01*
X186787621Y-72830213D01*
X186790500Y-72856996D01*
X186790500Y-76833918D01*
X186770498Y-76902039D01*
X186716842Y-76948532D01*
X186658070Y-76959754D01*
X186651142Y-76959400D01*
X186426115Y-76959400D01*
X186410876Y-76963875D01*
X186409671Y-76965265D01*
X186408000Y-76972948D01*
X186408000Y-78107900D01*
X186387998Y-78176021D01*
X186334342Y-78222514D01*
X186282000Y-78233900D01*
X184964116Y-78233900D01*
X184948877Y-78238375D01*
X184947672Y-78239765D01*
X184946001Y-78247448D01*
X184946001Y-78289495D01*
X184946338Y-78296014D01*
X184956257Y-78391606D01*
X184959149Y-78405000D01*
X185010588Y-78559184D01*
X185016761Y-78572362D01*
X185102063Y-78710207D01*
X185111099Y-78721608D01*
X185192462Y-78802830D01*
X185226541Y-78865113D01*
X185221538Y-78935933D01*
X185192617Y-78981020D01*
X185109870Y-79063912D01*
X185109866Y-79063917D01*
X185104695Y-79069097D01*
X185011885Y-79219662D01*
X185003205Y-79245832D01*
X184994337Y-79272568D01*
X184953906Y-79330927D01*
X184888342Y-79358164D01*
X184874744Y-79358900D01*
X184242232Y-79358900D01*
X184174111Y-79338898D01*
X184166667Y-79333726D01*
X184117892Y-79297171D01*
X184117887Y-79297168D01*
X184110705Y-79291785D01*
X183974316Y-79240655D01*
X183912134Y-79233900D01*
X183315866Y-79233900D01*
X183253684Y-79240655D01*
X183117295Y-79291785D01*
X183110116Y-79297165D01*
X183110111Y-79297168D01*
X183048578Y-79343284D01*
X183008162Y-79363455D01*
X182994657Y-79367378D01*
X182975306Y-79371386D01*
X182968235Y-79372280D01*
X182955203Y-79373926D01*
X182947834Y-79376843D01*
X182947832Y-79376844D01*
X182914097Y-79390200D01*
X182902869Y-79394045D01*
X182860407Y-79406382D01*
X182853584Y-79410417D01*
X182853582Y-79410418D01*
X182842972Y-79416693D01*
X182825224Y-79425388D01*
X182806383Y-79432848D01*
X182799967Y-79437510D01*
X182799966Y-79437510D01*
X182770613Y-79458836D01*
X182760693Y-79465352D01*
X182729465Y-79483820D01*
X182729462Y-79483822D01*
X182722638Y-79487858D01*
X182708317Y-79502179D01*
X182693284Y-79515019D01*
X182676893Y-79526928D01*
X182661914Y-79545035D01*
X182648702Y-79561005D01*
X182640712Y-79569784D01*
X180423909Y-81786587D01*
X180361597Y-81820613D01*
X180290782Y-81815548D01*
X180233946Y-81773001D01*
X180209135Y-81706481D01*
X180208814Y-81697492D01*
X180208814Y-81692965D01*
X180209504Y-81686400D01*
X180202669Y-81621371D01*
X180190232Y-81503035D01*
X180190232Y-81503033D01*
X180189542Y-81496472D01*
X180130527Y-81314844D01*
X180035040Y-81149456D01*
X179961863Y-81068185D01*
X179931147Y-81004179D01*
X179929500Y-80983876D01*
X179929500Y-80739863D01*
X179930027Y-80728680D01*
X179931702Y-80721187D01*
X179929562Y-80653096D01*
X179929500Y-80649139D01*
X179929500Y-80621239D01*
X179928996Y-80617248D01*
X179928063Y-80605406D01*
X179926923Y-80569131D01*
X179926674Y-80561206D01*
X179924462Y-80553592D01*
X179924461Y-80553587D01*
X179921023Y-80541754D01*
X179917012Y-80522390D01*
X179915467Y-80510159D01*
X179914474Y-80502298D01*
X179898196Y-80461184D01*
X179894358Y-80449973D01*
X179893507Y-80447045D01*
X179888500Y-80411879D01*
X179888500Y-78870776D01*
X179908502Y-78802655D01*
X179962158Y-78756162D01*
X180032432Y-78746058D01*
X180040697Y-78747529D01*
X180210056Y-78783528D01*
X180210061Y-78783528D01*
X180216513Y-78784900D01*
X180407487Y-78784900D01*
X180413939Y-78783528D01*
X180413944Y-78783528D01*
X180509718Y-78763170D01*
X180594288Y-78745194D01*
X180605211Y-78740331D01*
X180762722Y-78670203D01*
X180762724Y-78670202D01*
X180768752Y-78667518D01*
X180813800Y-78634789D01*
X180917914Y-78559145D01*
X180923253Y-78555266D01*
X180928685Y-78549234D01*
X181002198Y-78467589D01*
X181062644Y-78430350D01*
X181095834Y-78425900D01*
X182985768Y-78425900D01*
X183053889Y-78445902D01*
X183061333Y-78451074D01*
X183110108Y-78487629D01*
X183110110Y-78487630D01*
X183117295Y-78493015D01*
X183253684Y-78544145D01*
X183315866Y-78550900D01*
X183912134Y-78550900D01*
X183974316Y-78544145D01*
X184110705Y-78493015D01*
X184227261Y-78405661D01*
X184314615Y-78289105D01*
X184365745Y-78152716D01*
X184372500Y-78090534D01*
X184372500Y-77707785D01*
X184946000Y-77707785D01*
X184950475Y-77723024D01*
X184951865Y-77724229D01*
X184959548Y-77725900D01*
X185881885Y-77725900D01*
X185897124Y-77721425D01*
X185898329Y-77720035D01*
X185900000Y-77712352D01*
X185900000Y-76977516D01*
X185895525Y-76962277D01*
X185894135Y-76961072D01*
X185886452Y-76959401D01*
X185656905Y-76959401D01*
X185650386Y-76959738D01*
X185554794Y-76969657D01*
X185541400Y-76972549D01*
X185387216Y-77023988D01*
X185374038Y-77030161D01*
X185236193Y-77115463D01*
X185224792Y-77124499D01*
X185110261Y-77239229D01*
X185101249Y-77250640D01*
X185016184Y-77388643D01*
X185010037Y-77401824D01*
X184958862Y-77556110D01*
X184955995Y-77569486D01*
X184946328Y-77663838D01*
X184946000Y-77670255D01*
X184946000Y-77707785D01*
X184372500Y-77707785D01*
X184372500Y-77494266D01*
X184365745Y-77432084D01*
X184314615Y-77295695D01*
X184307737Y-77286517D01*
X184272674Y-77239733D01*
X184247826Y-77173226D01*
X184247500Y-77164168D01*
X184247500Y-76431167D01*
X184248027Y-76419984D01*
X184249702Y-76412491D01*
X184247562Y-76344414D01*
X184247500Y-76340455D01*
X184247500Y-76312544D01*
X184246995Y-76308544D01*
X184246062Y-76296701D01*
X184245547Y-76280299D01*
X184244673Y-76252510D01*
X184239022Y-76233058D01*
X184235014Y-76213706D01*
X184233467Y-76201463D01*
X184232474Y-76193603D01*
X184224814Y-76174255D01*
X184216200Y-76152497D01*
X184212355Y-76141270D01*
X184211103Y-76136962D01*
X184200018Y-76098807D01*
X184195984Y-76091985D01*
X184195981Y-76091979D01*
X184189706Y-76081368D01*
X184181010Y-76063618D01*
X184176472Y-76052156D01*
X184176469Y-76052151D01*
X184173552Y-76044783D01*
X184147573Y-76009025D01*
X184141057Y-75999107D01*
X184128029Y-75977079D01*
X184118542Y-75961037D01*
X184104218Y-75946713D01*
X184091376Y-75931678D01*
X184079472Y-75915293D01*
X184045406Y-75887111D01*
X184036627Y-75879122D01*
X181300404Y-73142899D01*
X181266378Y-73080587D01*
X181263499Y-73053804D01*
X181263499Y-72695516D01*
X181262361Y-72686866D01*
X181248917Y-72584745D01*
X181248917Y-72584744D01*
X181247838Y-72576550D01*
X181245668Y-72571310D01*
X181247329Y-72501535D01*
X181287123Y-72442739D01*
X181352387Y-72414791D01*
X181367346Y-72413900D01*
X186347405Y-72413900D01*
X186415526Y-72433902D01*
G37*
G04 #@! TD.AperFunction*
G04 #@! TD*
M02*
