M48
; DRILL file {KiCad 6.0.11} date Пн 24 авг 2026 20:55:10
; FORMAT={-:-/ absolute / metric / decimal}
; #@! TF.CreationDate,2026-08-24T20:55:10+03:00
; #@! TF.GenerationSoftware,Kicad,Pcbnew,6.0.11
; #@! TF.FileFunction,Plated,1,2,PTH
FMAT,2
METRIC
; #@! TA.AperFunction,Plated,PTH,ViaDrill
T1C0.400
; #@! TA.AperFunction,Plated,PTH,ViaDrill
T2C0.500
; #@! TA.AperFunction,Plated,PTH,ComponentDrill
T3C1.000
%
G90
G05
T1
X171.93Y-90.322
X176.248Y-64.668
X178.534Y-80.924
X178.788Y-64.668
X179.296Y-81.686
X180.312Y-77.876
X181.328Y-64.668
X181.836Y-76.606
X181.836Y-88.544
X183.614Y-74.066
X183.868Y-90.576
X184.122Y-64.668
X185.392Y-74.066
X186.408Y-64.668
X194.028Y-64.668
X194.028Y-83.21
X196.568Y-64.668
X199.108Y-64.668
X199.108Y-83.21
T2
X170.533Y-65.303
T3
X170.708Y-92.87
X170.708Y-95.41
X173.248Y-92.87
X173.248Y-95.41
X175.788Y-92.87
X175.788Y-95.41
X178.328Y-92.87
X178.328Y-95.41
X180.868Y-92.87
X180.868Y-95.41
X183.408Y-92.87
X183.408Y-95.41
X185.948Y-92.87
X185.948Y-95.41
X188.488Y-92.87
X188.488Y-95.41
X191.028Y-92.87
X191.028Y-95.41
X193.568Y-92.87
X193.568Y-95.41
X196.108Y-92.87
X196.108Y-95.41
X198.648Y-92.87
X198.648Y-95.41
X201.188Y-92.87
X201.188Y-95.41
T0
M30
