G04 #@! TF.GenerationSoftware,KiCad,Pcbnew,6.0.11*
G04 #@! TF.CreationDate,2026-08-24T20:55:07+03:00*
G04 #@! TF.ProjectId,rns-gate,726e732d-6761-4746-952e-6b696361645f,rev?*
G04 #@! TF.SameCoordinates,Original*
G04 #@! TF.FileFunction,Soldermask,Bot*
G04 #@! TF.FilePolarity,Negative*
%FSLAX46Y46*%
G04 Gerber Fmt 4.6, Leading zero omitted, Abs format (unit mm)*
G04 Created by KiCad (PCBNEW 6.0.11) date 2026-08-24 20:55:07*
%MOMM*%
%LPD*%
G01*
G04 APERTURE LIST*
G04 Aperture macros list*
%AMRoundRect*
0 Rectangle with rounded corners*
0 $1 Rounding radius*
0 $2 $3 $4 $5 $6 $7 $8 $9 X,Y pos of 4 corners*
0 Add a 4 corners polygon primitive as box body*
4,1,4,$2,$3,$4,$5,$6,$7,$8,$9,$2,$3,0*
0 Add four circle primitives for the rounded corners*
1,1,$1+$1,$2,$3*
1,1,$1+$1,$4,$5*
1,1,$1+$1,$6,$7*
1,1,$1+$1,$8,$9*
0 Add four rect primitives between the rounded corners*
20,1,$1+$1,$2,$3,$4,$5,0*
20,1,$1+$1,$4,$5,$6,$7,0*
20,1,$1+$1,$6,$7,$8,$9,0*
20,1,$1+$1,$8,$9,$2,$3,0*%
G04 Aperture macros list end*
%ADD10RoundRect,0.051000X0.850000X-0.850000X0.850000X0.850000X-0.850000X0.850000X-0.850000X-0.850000X0*%
%ADD11O,1.802000X1.802000*%
%ADD12C,3.302000*%
%ADD13RoundRect,0.301000X-0.450000X0.262500X-0.450000X-0.262500X0.450000X-0.262500X0.450000X0.262500X0*%
%ADD14RoundRect,0.301000X0.450000X-0.262500X0.450000X0.262500X-0.450000X0.262500X-0.450000X-0.262500X0*%
%ADD15RoundRect,0.051000X0.250000X-0.250000X0.250000X0.250000X-0.250000X0.250000X-0.250000X-0.250000X0*%
%ADD16RoundRect,0.151000X-0.100000X0.637500X-0.100000X-0.637500X0.100000X-0.637500X0.100000X0.637500X0*%
%ADD17RoundRect,0.301000X-0.475000X0.337500X-0.475000X-0.337500X0.475000X-0.337500X0.475000X0.337500X0*%
G04 APERTURE END LIST*
D10*
G04 #@! TO.C,J2*
X170708000Y-95410000D03*
D11*
X170708000Y-92870000D03*
X173248000Y-95410000D03*
X173248000Y-92870000D03*
X175788000Y-95410000D03*
X175788000Y-92870000D03*
X178328000Y-95410000D03*
X178328000Y-92870000D03*
X180868000Y-95410000D03*
X180868000Y-92870000D03*
X183408000Y-95410000D03*
X183408000Y-92870000D03*
X185948000Y-95410000D03*
X185948000Y-92870000D03*
X188488000Y-95410000D03*
X188488000Y-92870000D03*
X191028000Y-95410000D03*
X191028000Y-92870000D03*
X193568000Y-95410000D03*
X193568000Y-92870000D03*
X196108000Y-95410000D03*
X196108000Y-92870000D03*
X198648000Y-95410000D03*
X198648000Y-92870000D03*
X201188000Y-95410000D03*
X201188000Y-92870000D03*
G04 #@! TD*
D12*
G04 #@! TO.C,REF1*
X165000000Y-53910000D03*
G04 #@! TD*
G04 #@! TO.C,REF3*
X165000000Y-93710000D03*
G04 #@! TD*
G04 #@! TO.C,REF2*
X206800000Y-53910000D03*
G04 #@! TD*
G04 #@! TO.C,REF4*
X206800000Y-93710000D03*
G04 #@! TD*
D13*
G04 #@! TO.C,R2*
X191488000Y-77979900D03*
X191488000Y-79804900D03*
G04 #@! TD*
D14*
G04 #@! TO.C,R7*
X186154000Y-79804900D03*
X186154000Y-77979900D03*
G04 #@! TD*
G04 #@! TO.C,R5*
X199108000Y-79804900D03*
X199108000Y-77979900D03*
G04 #@! TD*
D15*
G04 #@! TO.C,D1*
X183614000Y-79992400D03*
X183614000Y-77792400D03*
G04 #@! TD*
D13*
G04 #@! TO.C,R4*
X196568000Y-77979900D03*
X196568000Y-79804900D03*
G04 #@! TD*
D16*
G04 #@! TO.C,U2*
X176005000Y-67647900D03*
X176655000Y-67647900D03*
X177305000Y-67647900D03*
X177955000Y-67647900D03*
X178605000Y-67647900D03*
X179255000Y-67647900D03*
X179905000Y-67647900D03*
X180555000Y-67647900D03*
X180555000Y-73372900D03*
X179905000Y-73372900D03*
X179255000Y-73372900D03*
X178605000Y-73372900D03*
X177955000Y-73372900D03*
X177305000Y-73372900D03*
X176655000Y-73372900D03*
X176005000Y-73372900D03*
G04 #@! TD*
D17*
G04 #@! TO.C,C4*
X172946000Y-71250900D03*
X172946000Y-73325900D03*
G04 #@! TD*
D14*
G04 #@! TO.C,R3*
X194028000Y-79804900D03*
X194028000Y-77979900D03*
G04 #@! TD*
G04 #@! TO.C,R1*
X188694000Y-79804900D03*
X188694000Y-77979900D03*
G04 #@! TD*
D13*
G04 #@! TO.C,R6*
X201648000Y-77979900D03*
X201648000Y-79804900D03*
G04 #@! TD*
G36*
X176233891Y-72658274D02*
G01*
X176280944Y-72697597D01*
X176349660Y-72706230D01*
X176412289Y-72676267D01*
X176419800Y-72667597D01*
X176421690Y-72666943D01*
X176423202Y-72668253D01*
X176422975Y-72670018D01*
X176417379Y-72678394D01*
X176406000Y-72735599D01*
X176406000Y-74010201D01*
X176417379Y-74067406D01*
X176429055Y-74084880D01*
X176429186Y-74086876D01*
X176427523Y-74087987D01*
X176426109Y-74087526D01*
X176379056Y-74048203D01*
X176310340Y-74039570D01*
X176247711Y-74069533D01*
X176240200Y-74078203D01*
X176238310Y-74078857D01*
X176236798Y-74077547D01*
X176237025Y-74075782D01*
X176242621Y-74067406D01*
X176254000Y-74010201D01*
X176254000Y-72735599D01*
X176242621Y-72678394D01*
X176230945Y-72660920D01*
X176230814Y-72658924D01*
X176232477Y-72657813D01*
X176233891Y-72658274D01*
G37*
G36*
X177533891Y-72658274D02*
G01*
X177580944Y-72697597D01*
X177649660Y-72706230D01*
X177712289Y-72676267D01*
X177719800Y-72667597D01*
X177721690Y-72666943D01*
X177723202Y-72668253D01*
X177722975Y-72670018D01*
X177717379Y-72678394D01*
X177706000Y-72735599D01*
X177706000Y-74010201D01*
X177717379Y-74067406D01*
X177729055Y-74084880D01*
X177729186Y-74086876D01*
X177727523Y-74087987D01*
X177726109Y-74087526D01*
X177679056Y-74048203D01*
X177610340Y-74039570D01*
X177547711Y-74069533D01*
X177540200Y-74078203D01*
X177538310Y-74078857D01*
X177536798Y-74077547D01*
X177537025Y-74075782D01*
X177542621Y-74067406D01*
X177554000Y-74010201D01*
X177554000Y-72735599D01*
X177542621Y-72678394D01*
X177530945Y-72660920D01*
X177530814Y-72658924D01*
X177532477Y-72657813D01*
X177533891Y-72658274D01*
G37*
G36*
X179483891Y-72658274D02*
G01*
X179530944Y-72697597D01*
X179599660Y-72706230D01*
X179662289Y-72676267D01*
X179669800Y-72667597D01*
X179671690Y-72666943D01*
X179673202Y-72668253D01*
X179672975Y-72670018D01*
X179667379Y-72678394D01*
X179656000Y-72735599D01*
X179656000Y-74010201D01*
X179667379Y-74067406D01*
X179679055Y-74084880D01*
X179679186Y-74086876D01*
X179677523Y-74087987D01*
X179676109Y-74087526D01*
X179629056Y-74048203D01*
X179560340Y-74039570D01*
X179497711Y-74069533D01*
X179490200Y-74078203D01*
X179488310Y-74078857D01*
X179486798Y-74077547D01*
X179487025Y-74075782D01*
X179492621Y-74067406D01*
X179504000Y-74010201D01*
X179504000Y-72735599D01*
X179492621Y-72678394D01*
X179480945Y-72660920D01*
X179480814Y-72658924D01*
X179482477Y-72657813D01*
X179483891Y-72658274D01*
G37*
G36*
X180133891Y-72658274D02*
G01*
X180180944Y-72697597D01*
X180249660Y-72706230D01*
X180312289Y-72676267D01*
X180319800Y-72667597D01*
X180321690Y-72666943D01*
X180323202Y-72668253D01*
X180322975Y-72670018D01*
X180317379Y-72678394D01*
X180306000Y-72735599D01*
X180306000Y-74010201D01*
X180317379Y-74067406D01*
X180329055Y-74084880D01*
X180329186Y-74086876D01*
X180327523Y-74087987D01*
X180326109Y-74087526D01*
X180279056Y-74048203D01*
X180210340Y-74039570D01*
X180147711Y-74069533D01*
X180140200Y-74078203D01*
X180138310Y-74078857D01*
X180136798Y-74077547D01*
X180137025Y-74075782D01*
X180142621Y-74067406D01*
X180154000Y-74010201D01*
X180154000Y-72735599D01*
X180142621Y-72678394D01*
X180130945Y-72660920D01*
X180130814Y-72658924D01*
X180132477Y-72657813D01*
X180133891Y-72658274D01*
G37*
G36*
X176883891Y-72658274D02*
G01*
X176930944Y-72697597D01*
X176999660Y-72706230D01*
X177062289Y-72676267D01*
X177069800Y-72667597D01*
X177071690Y-72666943D01*
X177073202Y-72668253D01*
X177072975Y-72670018D01*
X177067379Y-72678394D01*
X177056000Y-72735599D01*
X177056000Y-74010201D01*
X177067379Y-74067406D01*
X177079055Y-74084880D01*
X177079186Y-74086876D01*
X177077523Y-74087987D01*
X177076109Y-74087526D01*
X177029056Y-74048203D01*
X176960340Y-74039570D01*
X176897711Y-74069533D01*
X176890200Y-74078203D01*
X176888310Y-74078857D01*
X176886798Y-74077547D01*
X176887025Y-74075782D01*
X176892621Y-74067406D01*
X176904000Y-74010201D01*
X176904000Y-72735599D01*
X176892621Y-72678394D01*
X176880945Y-72660920D01*
X176880814Y-72658924D01*
X176882477Y-72657813D01*
X176883891Y-72658274D01*
G37*
G36*
X178183891Y-72658274D02*
G01*
X178230944Y-72697597D01*
X178299660Y-72706230D01*
X178362289Y-72676267D01*
X178369800Y-72667597D01*
X178371690Y-72666943D01*
X178373202Y-72668253D01*
X178372975Y-72670018D01*
X178367379Y-72678394D01*
X178356000Y-72735599D01*
X178356000Y-74010201D01*
X178367379Y-74067406D01*
X178379055Y-74084880D01*
X178379186Y-74086876D01*
X178377523Y-74087987D01*
X178376109Y-74087526D01*
X178329056Y-74048203D01*
X178260340Y-74039570D01*
X178197711Y-74069533D01*
X178190200Y-74078203D01*
X178188310Y-74078857D01*
X178186798Y-74077547D01*
X178187025Y-74075782D01*
X178192621Y-74067406D01*
X178204000Y-74010201D01*
X178204000Y-72735599D01*
X178192621Y-72678394D01*
X178180945Y-72660920D01*
X178180814Y-72658924D01*
X178182477Y-72657813D01*
X178183891Y-72658274D01*
G37*
G36*
X178833891Y-72658274D02*
G01*
X178880944Y-72697597D01*
X178949660Y-72706230D01*
X179012289Y-72676267D01*
X179019800Y-72667597D01*
X179021690Y-72666943D01*
X179023202Y-72668253D01*
X179022975Y-72670018D01*
X179017379Y-72678394D01*
X179006000Y-72735599D01*
X179006000Y-74010201D01*
X179017379Y-74067406D01*
X179029055Y-74084880D01*
X179029186Y-74086876D01*
X179027523Y-74087987D01*
X179026109Y-74087526D01*
X178979056Y-74048203D01*
X178910340Y-74039570D01*
X178847711Y-74069533D01*
X178840200Y-74078203D01*
X178838310Y-74078857D01*
X178836798Y-74077547D01*
X178837025Y-74075782D01*
X178842621Y-74067406D01*
X178854000Y-74010201D01*
X178854000Y-72735599D01*
X178842621Y-72678394D01*
X178830945Y-72660920D01*
X178830814Y-72658924D01*
X178832477Y-72657813D01*
X178833891Y-72658274D01*
G37*
G36*
X177533891Y-66933274D02*
G01*
X177580944Y-66972597D01*
X177649660Y-66981230D01*
X177712289Y-66951267D01*
X177719800Y-66942597D01*
X177721690Y-66941943D01*
X177723202Y-66943253D01*
X177722975Y-66945018D01*
X177717379Y-66953394D01*
X177706000Y-67010599D01*
X177706000Y-68285201D01*
X177717379Y-68342406D01*
X177729055Y-68359880D01*
X177729186Y-68361876D01*
X177727523Y-68362987D01*
X177726109Y-68362526D01*
X177679056Y-68323203D01*
X177610340Y-68314570D01*
X177547711Y-68344533D01*
X177540200Y-68353203D01*
X177538310Y-68353857D01*
X177536798Y-68352547D01*
X177537025Y-68350782D01*
X177542621Y-68342406D01*
X177554000Y-68285201D01*
X177554000Y-67010599D01*
X177542621Y-66953394D01*
X177530945Y-66935920D01*
X177530814Y-66933924D01*
X177532477Y-66932813D01*
X177533891Y-66933274D01*
G37*
G36*
X180133891Y-66933274D02*
G01*
X180180944Y-66972597D01*
X180249660Y-66981230D01*
X180312289Y-66951267D01*
X180319800Y-66942597D01*
X180321690Y-66941943D01*
X180323202Y-66943253D01*
X180322975Y-66945018D01*
X180317379Y-66953394D01*
X180306000Y-67010599D01*
X180306000Y-68285201D01*
X180317379Y-68342406D01*
X180329055Y-68359880D01*
X180329186Y-68361876D01*
X180327523Y-68362987D01*
X180326109Y-68362526D01*
X180279056Y-68323203D01*
X180210340Y-68314570D01*
X180147711Y-68344533D01*
X180140200Y-68353203D01*
X180138310Y-68353857D01*
X180136798Y-68352547D01*
X180137025Y-68350782D01*
X180142621Y-68342406D01*
X180154000Y-68285201D01*
X180154000Y-67010599D01*
X180142621Y-66953394D01*
X180130945Y-66935920D01*
X180130814Y-66933924D01*
X180132477Y-66932813D01*
X180133891Y-66933274D01*
G37*
G36*
X178833891Y-66933274D02*
G01*
X178880944Y-66972597D01*
X178949660Y-66981230D01*
X179012289Y-66951267D01*
X179019800Y-66942597D01*
X179021690Y-66941943D01*
X179023202Y-66943253D01*
X179022975Y-66945018D01*
X179017379Y-66953394D01*
X179006000Y-67010599D01*
X179006000Y-68285201D01*
X179017379Y-68342406D01*
X179029055Y-68359880D01*
X179029186Y-68361876D01*
X179027523Y-68362987D01*
X179026109Y-68362526D01*
X178979056Y-68323203D01*
X178910340Y-68314570D01*
X178847711Y-68344533D01*
X178840200Y-68353203D01*
X178838310Y-68353857D01*
X178836798Y-68352547D01*
X178837025Y-68350782D01*
X178842621Y-68342406D01*
X178854000Y-68285201D01*
X178854000Y-67010599D01*
X178842621Y-66953394D01*
X178830945Y-66935920D01*
X178830814Y-66933924D01*
X178832477Y-66932813D01*
X178833891Y-66933274D01*
G37*
G36*
X176233891Y-66933274D02*
G01*
X176280944Y-66972597D01*
X176349660Y-66981230D01*
X176412289Y-66951267D01*
X176419800Y-66942597D01*
X176421690Y-66941943D01*
X176423202Y-66943253D01*
X176422975Y-66945018D01*
X176417379Y-66953394D01*
X176406000Y-67010599D01*
X176406000Y-68285201D01*
X176417379Y-68342406D01*
X176429055Y-68359880D01*
X176429186Y-68361876D01*
X176427523Y-68362987D01*
X176426109Y-68362526D01*
X176379056Y-68323203D01*
X176310340Y-68314570D01*
X176247711Y-68344533D01*
X176240200Y-68353203D01*
X176238310Y-68353857D01*
X176236798Y-68352547D01*
X176237025Y-68350782D01*
X176242621Y-68342406D01*
X176254000Y-68285201D01*
X176254000Y-67010599D01*
X176242621Y-66953394D01*
X176230945Y-66935920D01*
X176230814Y-66933924D01*
X176232477Y-66932813D01*
X176233891Y-66933274D01*
G37*
G36*
X176883891Y-66933274D02*
G01*
X176930944Y-66972597D01*
X176999660Y-66981230D01*
X177062289Y-66951267D01*
X177069800Y-66942597D01*
X177071690Y-66941943D01*
X177073202Y-66943253D01*
X177072975Y-66945018D01*
X177067379Y-66953394D01*
X177056000Y-67010599D01*
X177056000Y-68285201D01*
X177067379Y-68342406D01*
X177079055Y-68359880D01*
X177079186Y-68361876D01*
X177077523Y-68362987D01*
X177076109Y-68362526D01*
X177029056Y-68323203D01*
X176960340Y-68314570D01*
X176897711Y-68344533D01*
X176890200Y-68353203D01*
X176888310Y-68353857D01*
X176886798Y-68352547D01*
X176887025Y-68350782D01*
X176892621Y-68342406D01*
X176904000Y-68285201D01*
X176904000Y-67010599D01*
X176892621Y-66953394D01*
X176880945Y-66935920D01*
X176880814Y-66933924D01*
X176882477Y-66932813D01*
X176883891Y-66933274D01*
G37*
G36*
X178183891Y-66933274D02*
G01*
X178230944Y-66972597D01*
X178299660Y-66981230D01*
X178362289Y-66951267D01*
X178369800Y-66942597D01*
X178371690Y-66941943D01*
X178373202Y-66943253D01*
X178372975Y-66945018D01*
X178367379Y-66953394D01*
X178356000Y-67010599D01*
X178356000Y-68285201D01*
X178367379Y-68342406D01*
X178379055Y-68359880D01*
X178379186Y-68361876D01*
X178377523Y-68362987D01*
X178376109Y-68362526D01*
X178329056Y-68323203D01*
X178260340Y-68314570D01*
X178197711Y-68344533D01*
X178190200Y-68353203D01*
X178188310Y-68353857D01*
X178186798Y-68352547D01*
X178187025Y-68350782D01*
X178192621Y-68342406D01*
X178204000Y-68285201D01*
X178204000Y-67010599D01*
X178192621Y-66953394D01*
X178180945Y-66935920D01*
X178180814Y-66933924D01*
X178182477Y-66932813D01*
X178183891Y-66933274D01*
G37*
G36*
X179483891Y-66933274D02*
G01*
X179530944Y-66972597D01*
X179599660Y-66981230D01*
X179662289Y-66951267D01*
X179669800Y-66942597D01*
X179671690Y-66941943D01*
X179673202Y-66943253D01*
X179672975Y-66945018D01*
X179667379Y-66953394D01*
X179656000Y-67010599D01*
X179656000Y-68285201D01*
X179667379Y-68342406D01*
X179679055Y-68359880D01*
X179679186Y-68361876D01*
X179677523Y-68362987D01*
X179676109Y-68362526D01*
X179629056Y-68323203D01*
X179560340Y-68314570D01*
X179497711Y-68344533D01*
X179490200Y-68353203D01*
X179488310Y-68353857D01*
X179486798Y-68352547D01*
X179487025Y-68350782D01*
X179492621Y-68342406D01*
X179504000Y-68285201D01*
X179504000Y-67010599D01*
X179492621Y-66953394D01*
X179480945Y-66935920D01*
X179480814Y-66933924D01*
X179482477Y-66932813D01*
X179483891Y-66933274D01*
G37*
M02*
