G04 #@! TF.GenerationSoftware,KiCad,Pcbnew,6.0.11*
G04 #@! TF.CreationDate,2026-08-24T20:55:07+03:00*
G04 #@! TF.ProjectId,rns-gate,726e732d-6761-4746-952e-6b696361645f,rev?*
G04 #@! TF.SameCoordinates,Original*
G04 #@! TF.FileFunction,Copper,L1,Top*
G04 #@! TF.FilePolarity,Positive*
%FSLAX46Y46*%
G04 Gerber Fmt 4.6, Leading zero omitted, Abs format (unit mm)*
G04 Created by KiCad (PCBNEW 6.0.11) date 2026-08-24 20:55:07*
%MOMM*%
%LPD*%
G01*
G04 APERTURE LIST*
G04 Aperture macros list*
%AMRoundRect*
0 Rectangle with rounded corners*
0 $1 Rounding radius*
0 $2 $3 $4 $5 $6 $7 $8 $9 X,Y pos of 4 corners*
0 Add a 4 corners polygon primitive as box body*
4,1,4,$2,$3,$4,$5,$6,$7,$8,$9,$2,$3,0*
0 Add four circle primitives for the rounded corners*
1,1,$1+$1,$2,$3*
1,1,$1+$1,$4,$5*
1,1,$1+$1,$6,$7*
1,1,$1+$1,$8,$9*
0 Add four rect primitives between the rounded corners*
20,1,$1+$1,$2,$3,$4,$5,0*
20,1,$1+$1,$4,$5,$6,$7,0*
20,1,$1+$1,$6,$7,$8,$9,0*
20,1,$1+$1,$8,$9,$2,$3,0*%
G04 Aperture macros list end*
G04 #@! TA.AperFunction,ComponentPad*
%ADD10R,1.700000X1.700000*%
G04 #@! TD*
G04 #@! TA.AperFunction,ComponentPad*
%ADD11O,1.700000X1.700000*%
G04 #@! TD*
G04 #@! TA.AperFunction,SMDPad,CuDef*
%ADD12RoundRect,0.250000X0.475000X-0.337500X0.475000X0.337500X-0.475000X0.337500X-0.475000X-0.337500X0*%
G04 #@! TD*
G04 #@! TA.AperFunction,SMDPad,CuDef*
%ADD13R,1.600000X2.500000*%
G04 #@! TD*
G04 #@! TA.AperFunction,SMDPad,CuDef*
%ADD14RoundRect,0.250000X-0.875000X-1.025000X0.875000X-1.025000X0.875000X1.025000X-0.875000X1.025000X0*%
G04 #@! TD*
G04 #@! TA.AperFunction,ViaPad*
%ADD15C,0.800000*%
G04 #@! TD*
G04 #@! TA.AperFunction,ViaPad*
%ADD16C,1.500000*%
G04 #@! TD*
G04 #@! TA.AperFunction,Conductor*
%ADD17C,0.250000*%
G04 #@! TD*
G04 #@! TA.AperFunction,Conductor*
%ADD18C,1.000000*%
G04 #@! TD*
G04 APERTURE END LIST*
D10*
G04 #@! TO.P,J2,1,Pin_1*
G04 #@! TO.N,+3.3V*
X170708000Y-95410000D03*
D11*
G04 #@! TO.P,J2,2,Pin_2*
G04 #@! TO.N,+5V*
X170708000Y-92870000D03*
G04 #@! TO.P,J2,3,Pin_3*
G04 #@! TO.N,/I2C_SDA*
X173248000Y-95410000D03*
G04 #@! TO.P,J2,4,Pin_4*
G04 #@! TO.N,+5V*
X173248000Y-92870000D03*
G04 #@! TO.P,J2,5,Pin_5*
G04 #@! TO.N,/I2C_SCL*
X175788000Y-95410000D03*
G04 #@! TO.P,J2,6,Pin_6*
G04 #@! TO.N,GND*
X175788000Y-92870000D03*
G04 #@! TO.P,J2,7,Pin_7*
G04 #@! TO.N,/DIO_INT*
X178328000Y-95410000D03*
G04 #@! TO.P,J2,8,Pin_8*
G04 #@! TO.N,unconnected-(J2-Pad8)*
X178328000Y-92870000D03*
G04 #@! TO.P,J2,9,Pin_9*
G04 #@! TO.N,unconnected-(J2-Pad9)*
X180868000Y-95410000D03*
G04 #@! TO.P,J2,10,Pin_10*
G04 #@! TO.N,unconnected-(J2-Pad10)*
X180868000Y-92870000D03*
G04 #@! TO.P,J2,11,Pin_11*
G04 #@! TO.N,unconnected-(J2-Pad11)*
X183408000Y-95410000D03*
G04 #@! TO.P,J2,12,Pin_12*
G04 #@! TO.N,unconnected-(J2-Pad12)*
X183408000Y-92870000D03*
G04 #@! TO.P,J2,13,Pin_13*
G04 #@! TO.N,unconnected-(J2-Pad13)*
X185948000Y-95410000D03*
G04 #@! TO.P,J2,14,Pin_14*
G04 #@! TO.N,unconnected-(J2-Pad14)*
X185948000Y-92870000D03*
G04 #@! TO.P,J2,15,Pin_15*
G04 #@! TO.N,unconnected-(J2-Pad15)*
X188488000Y-95410000D03*
G04 #@! TO.P,J2,16,Pin_16*
G04 #@! TO.N,unconnected-(J2-Pad16)*
X188488000Y-92870000D03*
G04 #@! TO.P,J2,17,Pin_17*
G04 #@! TO.N,unconnected-(J2-Pad17)*
X191028000Y-95410000D03*
G04 #@! TO.P,J2,18,Pin_18*
G04 #@! TO.N,unconnected-(J2-Pad18)*
X191028000Y-92870000D03*
G04 #@! TO.P,J2,19,Pin_19*
G04 #@! TO.N,/MOSI*
X193568000Y-95410000D03*
G04 #@! TO.P,J2,20,Pin_20*
G04 #@! TO.N,unconnected-(J2-Pad20)*
X193568000Y-92870000D03*
G04 #@! TO.P,J2,21,Pin_21*
G04 #@! TO.N,/MISO*
X196108000Y-95410000D03*
G04 #@! TO.P,J2,22,Pin_22*
G04 #@! TO.N,unconnected-(J2-Pad22)*
X196108000Y-92870000D03*
G04 #@! TO.P,J2,23,Pin_23*
G04 #@! TO.N,/SCK*
X198648000Y-95410000D03*
G04 #@! TO.P,J2,24,Pin_24*
G04 #@! TO.N,unconnected-(J2-Pad24)*
X198648000Y-92870000D03*
G04 #@! TO.P,J2,25,Pin_25*
G04 #@! TO.N,GND*
X201188000Y-95410000D03*
G04 #@! TO.P,J2,26,Pin_26*
G04 #@! TO.N,unconnected-(J2-Pad26)*
X201188000Y-92870000D03*
G04 #@! TD*
D12*
G04 #@! TO.P,C2,1*
G04 #@! TO.N,+5V*
X171168000Y-56053900D03*
G04 #@! TO.P,C2,2*
G04 #@! TO.N,GND*
X171168000Y-53978900D03*
G04 #@! TD*
D13*
G04 #@! TO.P,U1,1,GND*
G04 #@! TO.N,GND*
X199098000Y-61812400D03*
G04 #@! TO.P,U1,2,GND*
X196558000Y-61812400D03*
G04 #@! TO.P,U1,3,GND*
X194018000Y-61812400D03*
G04 #@! TO.P,U1,4,GND*
X186418000Y-61812400D03*
G04 #@! TO.P,U1,5,GND*
X183878000Y-61812400D03*
G04 #@! TO.P,U1,6,RXEN*
G04 #@! TO.N,/RXEN*
X181338000Y-61812400D03*
G04 #@! TO.P,U1,7,TXEN*
G04 #@! TO.N,/TXEN*
X178798000Y-61812400D03*
G04 #@! TO.P,U1,8,DIO2*
G04 #@! TO.N,/DIO2*
X176258000Y-61812400D03*
G04 #@! TO.P,U1,9,VCC*
G04 #@! TO.N,+5V*
X173718000Y-61812400D03*
G04 #@! TO.P,U1,10,VCC*
X171178000Y-61812400D03*
G04 #@! TO.P,U1,11,GND*
G04 #@! TO.N,GND*
X168638000Y-61812400D03*
G04 #@! TO.P,U1,12,GND*
X168638000Y-85812400D03*
G04 #@! TO.P,U1,13,DIO1*
G04 #@! TO.N,/DIO1*
X171178000Y-85812400D03*
G04 #@! TO.P,U1,14,BUSY*
G04 #@! TO.N,/BUSY*
X173718000Y-85812400D03*
G04 #@! TO.P,U1,15,NRST*
G04 #@! TO.N,/NRST*
X176258000Y-85812400D03*
G04 #@! TO.P,U1,16,MISO*
G04 #@! TO.N,/MISO*
X178798000Y-85812400D03*
G04 #@! TO.P,U1,17,MOSI*
G04 #@! TO.N,/MOSI*
X181338000Y-85812400D03*
G04 #@! TO.P,U1,18,SCK*
G04 #@! TO.N,/SCK*
X183878000Y-85812400D03*
G04 #@! TO.P,U1,19,NSS*
G04 #@! TO.N,/NSS*
X186418000Y-85812400D03*
G04 #@! TO.P,U1,20,GND*
G04 #@! TO.N,GND*
X194018000Y-85812400D03*
G04 #@! TO.P,U1,21,ANT*
G04 #@! TO.N,unconnected-(U1-Pad21)*
X196558000Y-85812400D03*
G04 #@! TO.P,U1,22,GND*
G04 #@! TO.N,GND*
X199098000Y-85812400D03*
G04 #@! TD*
D14*
G04 #@! TO.P,C1,1*
G04 #@! TO.N,+5V*
X177366000Y-55524400D03*
G04 #@! TO.P,C1,2*
G04 #@! TO.N,GND*
X183766000Y-55524400D03*
G04 #@! TD*
D12*
G04 #@! TO.P,C3,1*
G04 #@! TO.N,+5V*
X173708000Y-56053900D03*
G04 #@! TO.P,C3,2*
G04 #@! TO.N,GND*
X173708000Y-53978900D03*
G04 #@! TD*
D15*
G04 #@! TO.N,GND*
X185392000Y-74066400D03*
X194028000Y-83210400D03*
X183614000Y-74066400D03*
X186408000Y-64668400D03*
X199108000Y-64668400D03*
X194028000Y-64668400D03*
X196568000Y-64668400D03*
X199108000Y-83210400D03*
X184122000Y-64668400D03*
D16*
G04 #@! TO.N,+5V*
X170533000Y-65303400D03*
D15*
G04 #@! TO.N,/MOSI*
X181836000Y-88544400D03*
X183868000Y-90576400D03*
G04 #@! TO.N,/NSS*
X181836000Y-76606400D03*
G04 #@! TO.N,/RXEN*
X181328000Y-64668400D03*
G04 #@! TO.N,/TXEN*
X178788000Y-64668400D03*
G04 #@! TO.N,/DIO2*
X176248000Y-64668400D03*
G04 #@! TO.N,/DIO1*
X180312000Y-77876400D03*
G04 #@! TO.N,/BUSY*
X178534000Y-80924400D03*
G04 #@! TO.N,/NRST*
X179296000Y-81686400D03*
G04 #@! TO.N,+3.3V*
X171930000Y-90322400D03*
G04 #@! TD*
D17*
G04 #@! TO.N,/NRST*
X179296000Y-81686400D02*
X177264000Y-81686400D01*
X177264000Y-81686400D02*
X176258000Y-82692400D01*
X176258000Y-82692400D02*
X176258000Y-85812400D01*
G04 #@! TO.N,/BUSY*
X178534000Y-80924400D02*
X175740000Y-80924400D01*
X175740000Y-80924400D02*
X173718000Y-82946400D01*
X173718000Y-82946400D02*
X173718000Y-85812400D01*
G04 #@! TO.N,/DIO1*
X171168000Y-80670400D02*
X171178000Y-80680400D01*
X180312000Y-77876400D02*
X173962000Y-77876400D01*
X173962000Y-77876400D02*
X171168000Y-80670400D01*
X171178000Y-80680400D02*
X171178000Y-85812400D01*
D18*
G04 #@! TO.N,+5V*
X173708000Y-56053900D02*
X173718000Y-56063900D01*
X171178000Y-56063900D02*
X171178000Y-61526900D01*
X176836500Y-56053900D02*
X177366000Y-55524400D01*
X171168000Y-56053900D02*
X173708000Y-56053900D01*
X173708000Y-56053900D02*
X176836500Y-56053900D01*
X171178000Y-61812400D02*
X172500000Y-61812400D01*
X172500000Y-61812400D02*
X173718000Y-61812400D01*
X171178000Y-64658400D02*
X171178000Y-61812400D01*
X171168000Y-56053900D02*
X171178000Y-56063900D01*
X170533000Y-65303400D02*
X171178000Y-64658400D01*
X173718000Y-56063900D02*
X173718000Y-61812400D01*
D17*
G04 #@! TO.N,/MOSI*
X192203000Y-92307400D02*
X190472000Y-90576400D01*
X181836000Y-88544400D02*
X181338000Y-88046400D01*
X192203000Y-94045000D02*
X192203000Y-92307400D01*
X181338000Y-88046400D02*
X181338000Y-85812400D01*
X193568000Y-95410000D02*
X192203000Y-94045000D01*
X190472000Y-90576400D02*
X183868000Y-90576400D01*
G04 #@! TO.N,/MISO*
X178798000Y-87030400D02*
X178798000Y-85812400D01*
X181328000Y-89560400D02*
X178798000Y-87030400D01*
X196108000Y-95410000D02*
X194933000Y-94235000D01*
X194933000Y-94235000D02*
X194933000Y-90719400D01*
X194933000Y-90719400D02*
X193774000Y-89560400D01*
X193774000Y-89560400D02*
X181328000Y-89560400D01*
G04 #@! TO.N,/SCK*
X183878000Y-86776400D02*
X183878000Y-85812400D01*
X198648000Y-95410000D02*
X197473000Y-94235000D01*
X197473000Y-92497400D02*
X194028000Y-89052400D01*
X186154000Y-89052400D02*
X183878000Y-86776400D01*
X197473000Y-94235000D02*
X197473000Y-92497400D01*
X194028000Y-89052400D02*
X186154000Y-89052400D01*
G04 #@! TO.N,/NSS*
X186418000Y-85812400D02*
X186418000Y-83728400D01*
X186418000Y-83728400D02*
X184884000Y-82194400D01*
X183106000Y-82194400D02*
X181836000Y-80924400D01*
X184884000Y-82194400D02*
X183106000Y-82194400D01*
X181836000Y-80924400D02*
X181836000Y-76606400D01*
G04 #@! TO.N,/RXEN*
X181338000Y-64658400D02*
X181338000Y-61812400D01*
X181328000Y-64668400D02*
X181338000Y-64658400D01*
G04 #@! TO.N,/TXEN*
X178798000Y-64658400D02*
X178798000Y-61812400D01*
X178788000Y-64668400D02*
X178798000Y-64658400D01*
G04 #@! TO.N,/DIO2*
X176248000Y-64668400D02*
X176258000Y-64658400D01*
X176258000Y-64658400D02*
X176258000Y-61812400D01*
G04 #@! TO.N,+3.3V*
X171930000Y-94188000D02*
X170708000Y-95410000D01*
X171930000Y-90322400D02*
X171930000Y-94188000D01*
G04 #@! TD*
G04 #@! TA.AperFunction,Conductor*
G04 #@! TO.N,GND*
G36*
X206770018Y-51320000D02*
G01*
X206784851Y-51322310D01*
X206784855Y-51322310D01*
X206793724Y-51323691D01*
X206811720Y-51321338D01*
X206835116Y-51320472D01*
X207083095Y-51334398D01*
X207097127Y-51335979D01*
X207211006Y-51355328D01*
X207369687Y-51382289D01*
X207383462Y-51385433D01*
X207649120Y-51461968D01*
X207662457Y-51466635D01*
X207819584Y-51531718D01*
X207917877Y-51572433D01*
X207930600Y-51578560D01*
X208172573Y-51712294D01*
X208184521Y-51719801D01*
X208410013Y-51879796D01*
X208421045Y-51888594D01*
X208627191Y-52072818D01*
X208637181Y-52082808D01*
X208821406Y-52288955D01*
X208830204Y-52299987D01*
X208990199Y-52525479D01*
X208997706Y-52537427D01*
X209081691Y-52689386D01*
X209131438Y-52779396D01*
X209137569Y-52792127D01*
X209243365Y-53047543D01*
X209248032Y-53060880D01*
X209324567Y-53326538D01*
X209327711Y-53340313D01*
X209370858Y-53594255D01*
X209374020Y-53612868D01*
X209375602Y-53626909D01*
X209389118Y-53867593D01*
X209387817Y-53894038D01*
X209387690Y-53894851D01*
X209387690Y-53894855D01*
X209386309Y-53903724D01*
X209387473Y-53912626D01*
X209387473Y-53912628D01*
X209390436Y-53935283D01*
X209391500Y-53951621D01*
X209391500Y-93660633D01*
X209390000Y-93680018D01*
X209387690Y-93694851D01*
X209387690Y-93694855D01*
X209386309Y-93703724D01*
X209388662Y-93721720D01*
X209389528Y-93745116D01*
X209382808Y-93864784D01*
X209375602Y-93993091D01*
X209374021Y-94007127D01*
X209355731Y-94114771D01*
X209327711Y-94279687D01*
X209324567Y-94293462D01*
X209248032Y-94559120D01*
X209243365Y-94572457D01*
X209186363Y-94710074D01*
X209177284Y-94731993D01*
X209137569Y-94827873D01*
X209131440Y-94840600D01*
X208997706Y-95082573D01*
X208990199Y-95094521D01*
X208830204Y-95320013D01*
X208821406Y-95331045D01*
X208637182Y-95537191D01*
X208627192Y-95547181D01*
X208421045Y-95731406D01*
X208410013Y-95740204D01*
X208184521Y-95900199D01*
X208172573Y-95907706D01*
X207930600Y-96041440D01*
X207917877Y-96047567D01*
X207834476Y-96082113D01*
X207662457Y-96153365D01*
X207649120Y-96158032D01*
X207383462Y-96234567D01*
X207369687Y-96237711D01*
X207233410Y-96260865D01*
X207097127Y-96284021D01*
X207083095Y-96285602D01*
X207003494Y-96290072D01*
X206842407Y-96299118D01*
X206815962Y-96297817D01*
X206815149Y-96297690D01*
X206815145Y-96297690D01*
X206806276Y-96296309D01*
X206797374Y-96297473D01*
X206797372Y-96297473D01*
X206782323Y-96299441D01*
X206774714Y-96300436D01*
X206758379Y-96301500D01*
X202464260Y-96301500D01*
X202396139Y-96281498D01*
X202349646Y-96227842D01*
X202339542Y-96157568D01*
X202356256Y-96110607D01*
X202358313Y-96107183D01*
X202452670Y-95916267D01*
X202456469Y-95906672D01*
X202518377Y-95702910D01*
X202520555Y-95692837D01*
X202521986Y-95681962D01*
X202519775Y-95667778D01*
X202506617Y-95664000D01*
X201060000Y-95664000D01*
X200991879Y-95643998D01*
X200945386Y-95590342D01*
X200934000Y-95538000D01*
X200934000Y-95282000D01*
X200954002Y-95213879D01*
X201007658Y-95167386D01*
X201060000Y-95156000D01*
X202506344Y-95156000D01*
X202519875Y-95152027D01*
X202521180Y-95142947D01*
X202479214Y-94975875D01*
X202475894Y-94966124D01*
X202390972Y-94770814D01*
X202386105Y-94761739D01*
X202270426Y-94582926D01*
X202264136Y-94574757D01*
X202120806Y-94417240D01*
X202113273Y-94410215D01*
X201946139Y-94278222D01*
X201937556Y-94272520D01*
X201900602Y-94252120D01*
X201850631Y-94201687D01*
X201835859Y-94132245D01*
X201860975Y-94065839D01*
X201888327Y-94039232D01*
X201943110Y-94000156D01*
X202067860Y-93911173D01*
X202114412Y-93864784D01*
X202136570Y-93842703D01*
X204690743Y-93842703D01*
X204691302Y-93846947D01*
X204691302Y-93846951D01*
X204691860Y-93851187D01*
X204728268Y-94127734D01*
X204729401Y-94131874D01*
X204729401Y-94131876D01*
X204747146Y-94196739D01*
X204804129Y-94405036D01*
X204805813Y-94408984D01*
X204876522Y-94574757D01*
X204916923Y-94669476D01*
X205064561Y-94916161D01*
X205244313Y-95140528D01*
X205293665Y-95187361D01*
X205445084Y-95331052D01*
X205452851Y-95338423D01*
X205686317Y-95506186D01*
X205690112Y-95508195D01*
X205690113Y-95508196D01*
X205711869Y-95519715D01*
X205940392Y-95640712D01*
X206053113Y-95681962D01*
X206201096Y-95736116D01*
X206210373Y-95739511D01*
X206491264Y-95800755D01*
X206519841Y-95803004D01*
X206714282Y-95818307D01*
X206714291Y-95818307D01*
X206716739Y-95818500D01*
X206872271Y-95818500D01*
X206874407Y-95818354D01*
X206874418Y-95818354D01*
X207082548Y-95804165D01*
X207082554Y-95804164D01*
X207086825Y-95803873D01*
X207091020Y-95803004D01*
X207091022Y-95803004D01*
X207227583Y-95774724D01*
X207368342Y-95745574D01*
X207639343Y-95649607D01*
X207894812Y-95517750D01*
X207898313Y-95515289D01*
X207898317Y-95515287D01*
X208048125Y-95410000D01*
X208130023Y-95352441D01*
X208340622Y-95156740D01*
X208522713Y-94934268D01*
X208672927Y-94689142D01*
X208723139Y-94574757D01*
X208786757Y-94429830D01*
X208788483Y-94425898D01*
X208792951Y-94410215D01*
X208850537Y-94208057D01*
X208867244Y-94149406D01*
X208907751Y-93864784D01*
X208907823Y-93851187D01*
X208909235Y-93581583D01*
X208909235Y-93581576D01*
X208909257Y-93577297D01*
X208903012Y-93529857D01*
X208872292Y-93296522D01*
X208871732Y-93292266D01*
X208795871Y-93014964D01*
X208761013Y-92933240D01*
X208684763Y-92754476D01*
X208684761Y-92754472D01*
X208683077Y-92750524D01*
X208535439Y-92503839D01*
X208355687Y-92279472D01*
X208147149Y-92081577D01*
X207913683Y-91913814D01*
X207891843Y-91902250D01*
X207802127Y-91854748D01*
X207659608Y-91779288D01*
X207389627Y-91680489D01*
X207108736Y-91619245D01*
X207077685Y-91616801D01*
X206885718Y-91601693D01*
X206885709Y-91601693D01*
X206883261Y-91601500D01*
X206727729Y-91601500D01*
X206725593Y-91601646D01*
X206725582Y-91601646D01*
X206517452Y-91615835D01*
X206517446Y-91615836D01*
X206513175Y-91616127D01*
X206508980Y-91616996D01*
X206508978Y-91616996D01*
X206423619Y-91634673D01*
X206231658Y-91674426D01*
X205960657Y-91770393D01*
X205956848Y-91772359D01*
X205805191Y-91850635D01*
X205705188Y-91902250D01*
X205701687Y-91904711D01*
X205701683Y-91904713D01*
X205691594Y-91911804D01*
X205469977Y-92067559D01*
X205454892Y-92081577D01*
X205299647Y-92225840D01*
X205259378Y-92263260D01*
X205077287Y-92485732D01*
X204927073Y-92730858D01*
X204925347Y-92734791D01*
X204925346Y-92734792D01*
X204836763Y-92936590D01*
X204811517Y-92994102D01*
X204732756Y-93270594D01*
X204702978Y-93479829D01*
X204695929Y-93529362D01*
X204692249Y-93555216D01*
X204692227Y-93559505D01*
X204692226Y-93559512D01*
X204691191Y-93757137D01*
X204690743Y-93842703D01*
X202136570Y-93842703D01*
X202222435Y-93757137D01*
X202226096Y-93753489D01*
X202234330Y-93742031D01*
X202353435Y-93576277D01*
X202356453Y-93572077D01*
X202369995Y-93544678D01*
X202453136Y-93376453D01*
X202453137Y-93376451D01*
X202455430Y-93371811D01*
X202520370Y-93158069D01*
X202549529Y-92936590D01*
X202551156Y-92870000D01*
X202532852Y-92647361D01*
X202478431Y-92430702D01*
X202389354Y-92225840D01*
X202349906Y-92164862D01*
X202270822Y-92042617D01*
X202270820Y-92042614D01*
X202268014Y-92038277D01*
X202117670Y-91873051D01*
X202113619Y-91869852D01*
X202113615Y-91869848D01*
X201946414Y-91737800D01*
X201946410Y-91737798D01*
X201942359Y-91734598D01*
X201906028Y-91714542D01*
X201844340Y-91680489D01*
X201746789Y-91626638D01*
X201741920Y-91624914D01*
X201741916Y-91624912D01*
X201541087Y-91553795D01*
X201541083Y-91553794D01*
X201536212Y-91552069D01*
X201531119Y-91551162D01*
X201531116Y-91551161D01*
X201321373Y-91513800D01*
X201321367Y-91513799D01*
X201316284Y-91512894D01*
X201242452Y-91511992D01*
X201098081Y-91510228D01*
X201098079Y-91510228D01*
X201092911Y-91510165D01*
X200872091Y-91543955D01*
X200659756Y-91613357D01*
X200461607Y-91716507D01*
X200457474Y-91719610D01*
X200457471Y-91719612D01*
X200325333Y-91818824D01*
X200282965Y-91850635D01*
X200128629Y-92012138D01*
X200021201Y-92169621D01*
X199966293Y-92214621D01*
X199895768Y-92222792D01*
X199832021Y-92191538D01*
X199811324Y-92167054D01*
X199730822Y-92042617D01*
X199730820Y-92042614D01*
X199728014Y-92038277D01*
X199577670Y-91873051D01*
X199573619Y-91869852D01*
X199573615Y-91869848D01*
X199406414Y-91737800D01*
X199406410Y-91737798D01*
X199402359Y-91734598D01*
X199366028Y-91714542D01*
X199304340Y-91680489D01*
X199206789Y-91626638D01*
X199201920Y-91624914D01*
X199201916Y-91624912D01*
X199001087Y-91553795D01*
X199001083Y-91553794D01*
X198996212Y-91552069D01*
X198991119Y-91551162D01*
X198991116Y-91551161D01*
X198781373Y-91513800D01*
X198781367Y-91513799D01*
X198776284Y-91512894D01*
X198702452Y-91511992D01*
X198558081Y-91510228D01*
X198558079Y-91510228D01*
X198552911Y-91510165D01*
X198332091Y-91543955D01*
X198119756Y-91613357D01*
X197921607Y-91716507D01*
X197917474Y-91719610D01*
X197917471Y-91719612D01*
X197818505Y-91793918D01*
X197752020Y-91818824D01*
X197682624Y-91803832D01*
X197653757Y-91782253D01*
X196102310Y-90230805D01*
X194531652Y-88660147D01*
X194524112Y-88651861D01*
X194520000Y-88645382D01*
X194470348Y-88598756D01*
X194467507Y-88596002D01*
X194447770Y-88576265D01*
X194444573Y-88573785D01*
X194435551Y-88566080D01*
X194409100Y-88541241D01*
X194403321Y-88535814D01*
X194396375Y-88531995D01*
X194396372Y-88531993D01*
X194385566Y-88526052D01*
X194369047Y-88515201D01*
X194368583Y-88514841D01*
X194353041Y-88502786D01*
X194345772Y-88499641D01*
X194345768Y-88499638D01*
X194312463Y-88485226D01*
X194301813Y-88480009D01*
X194263060Y-88458705D01*
X194243437Y-88453667D01*
X194224734Y-88447263D01*
X194213420Y-88442367D01*
X194213419Y-88442367D01*
X194206145Y-88439219D01*
X194198322Y-88437980D01*
X194198312Y-88437977D01*
X194162476Y-88432301D01*
X194150856Y-88429895D01*
X194115711Y-88420872D01*
X194115710Y-88420872D01*
X194108030Y-88418900D01*
X194087776Y-88418900D01*
X194068065Y-88417349D01*
X194055886Y-88415420D01*
X194048057Y-88414180D01*
X194040165Y-88414926D01*
X194004039Y-88418341D01*
X193992181Y-88418900D01*
X186468594Y-88418900D01*
X186400473Y-88398898D01*
X186379499Y-88381995D01*
X185783499Y-87785995D01*
X185749473Y-87723683D01*
X185754538Y-87652868D01*
X185797085Y-87596032D01*
X185863605Y-87571221D01*
X185872594Y-87570900D01*
X187266134Y-87570900D01*
X187328316Y-87564145D01*
X187464705Y-87513015D01*
X187581261Y-87425661D01*
X187668615Y-87309105D01*
X187719745Y-87172716D01*
X187726500Y-87110534D01*
X187726500Y-87107069D01*
X192710001Y-87107069D01*
X192710371Y-87113890D01*
X192715895Y-87164752D01*
X192719521Y-87180004D01*
X192764676Y-87300454D01*
X192773214Y-87316049D01*
X192849715Y-87418124D01*
X192862276Y-87430685D01*
X192964351Y-87507186D01*
X192979946Y-87515724D01*
X193100394Y-87560878D01*
X193115649Y-87564505D01*
X193166514Y-87570031D01*
X193173328Y-87570400D01*
X193745885Y-87570400D01*
X193761124Y-87565925D01*
X193762329Y-87564535D01*
X193764000Y-87556852D01*
X193764000Y-87552284D01*
X194272000Y-87552284D01*
X194276475Y-87567523D01*
X194277865Y-87568728D01*
X194285548Y-87570399D01*
X194862669Y-87570399D01*
X194869490Y-87570029D01*
X194920352Y-87564505D01*
X194935604Y-87560879D01*
X195056054Y-87515724D01*
X195071649Y-87507186D01*
X195173724Y-87430685D01*
X195186284Y-87418125D01*
X195186865Y-87417350D01*
X195187634Y-87416775D01*
X195192635Y-87411774D01*
X195193357Y-87412496D01*
X195243726Y-87374838D01*
X195314545Y-87369816D01*
X195376837Y-87403878D01*
X195388510Y-87417350D01*
X195394739Y-87425661D01*
X195511295Y-87513015D01*
X195647684Y-87564145D01*
X195709866Y-87570900D01*
X197406134Y-87570900D01*
X197468316Y-87564145D01*
X197604705Y-87513015D01*
X197721261Y-87425661D01*
X197727486Y-87417355D01*
X197728604Y-87416519D01*
X197732992Y-87412131D01*
X197733625Y-87412764D01*
X197784345Y-87374840D01*
X197855164Y-87369814D01*
X197917457Y-87403874D01*
X197929135Y-87417350D01*
X197929716Y-87418125D01*
X197942276Y-87430685D01*
X198044351Y-87507186D01*
X198059946Y-87515724D01*
X198180394Y-87560878D01*
X198195649Y-87564505D01*
X198246514Y-87570031D01*
X198253328Y-87570400D01*
X198825885Y-87570400D01*
X198841124Y-87565925D01*
X198842329Y-87564535D01*
X198844000Y-87556852D01*
X198844000Y-87552284D01*
X199352000Y-87552284D01*
X199356475Y-87567523D01*
X199357865Y-87568728D01*
X199365548Y-87570399D01*
X199942669Y-87570399D01*
X199949490Y-87570029D01*
X200000352Y-87564505D01*
X200015604Y-87560879D01*
X200136054Y-87515724D01*
X200151649Y-87507186D01*
X200253724Y-87430685D01*
X200266285Y-87418124D01*
X200342786Y-87316049D01*
X200351324Y-87300454D01*
X200396478Y-87180006D01*
X200400105Y-87164751D01*
X200405631Y-87113886D01*
X200406000Y-87107072D01*
X200406000Y-86084515D01*
X200401525Y-86069276D01*
X200400135Y-86068071D01*
X200392452Y-86066400D01*
X199370115Y-86066400D01*
X199354876Y-86070875D01*
X199353671Y-86072265D01*
X199352000Y-86079948D01*
X199352000Y-87552284D01*
X198844000Y-87552284D01*
X198844000Y-85540285D01*
X199352000Y-85540285D01*
X199356475Y-85555524D01*
X199357865Y-85556729D01*
X199365548Y-85558400D01*
X200387884Y-85558400D01*
X200403123Y-85553925D01*
X200404328Y-85552535D01*
X200405999Y-85544852D01*
X200405999Y-84517731D01*
X200405629Y-84510910D01*
X200400105Y-84460048D01*
X200396479Y-84444796D01*
X200351324Y-84324346D01*
X200342786Y-84308751D01*
X200266285Y-84206676D01*
X200253724Y-84194115D01*
X200151649Y-84117614D01*
X200136054Y-84109076D01*
X200015606Y-84063922D01*
X200000351Y-84060295D01*
X199949486Y-84054769D01*
X199942672Y-84054400D01*
X199370115Y-84054400D01*
X199354876Y-84058875D01*
X199353671Y-84060265D01*
X199352000Y-84067948D01*
X199352000Y-85540285D01*
X198844000Y-85540285D01*
X198844000Y-84072516D01*
X198839525Y-84057277D01*
X198838135Y-84056072D01*
X198830452Y-84054401D01*
X198253331Y-84054401D01*
X198246510Y-84054771D01*
X198195648Y-84060295D01*
X198180396Y-84063921D01*
X198059946Y-84109076D01*
X198044351Y-84117614D01*
X197942276Y-84194115D01*
X197929716Y-84206675D01*
X197929135Y-84207450D01*
X197928366Y-84208025D01*
X197923365Y-84213026D01*
X197922643Y-84212304D01*
X197872274Y-84249962D01*
X197801455Y-84254984D01*
X197739163Y-84220922D01*
X197727486Y-84207445D01*
X197726642Y-84206319D01*
X197721261Y-84199139D01*
X197604705Y-84111785D01*
X197468316Y-84060655D01*
X197406134Y-84053900D01*
X195709866Y-84053900D01*
X195647684Y-84060655D01*
X195511295Y-84111785D01*
X195394739Y-84199139D01*
X195389358Y-84206319D01*
X195388514Y-84207445D01*
X195387396Y-84208281D01*
X195383008Y-84212669D01*
X195382375Y-84212036D01*
X195331655Y-84249960D01*
X195260836Y-84254986D01*
X195198543Y-84220926D01*
X195186865Y-84207450D01*
X195186284Y-84206675D01*
X195173724Y-84194115D01*
X195071649Y-84117614D01*
X195056054Y-84109076D01*
X194935606Y-84063922D01*
X194920351Y-84060295D01*
X194869486Y-84054769D01*
X194862672Y-84054400D01*
X194290115Y-84054400D01*
X194274876Y-84058875D01*
X194273671Y-84060265D01*
X194272000Y-84067948D01*
X194272000Y-87552284D01*
X193764000Y-87552284D01*
X193764000Y-86084515D01*
X193759525Y-86069276D01*
X193758135Y-86068071D01*
X193750452Y-86066400D01*
X192728116Y-86066400D01*
X192712877Y-86070875D01*
X192711672Y-86072265D01*
X192710001Y-86079948D01*
X192710001Y-87107069D01*
X187726500Y-87107069D01*
X187726500Y-85540285D01*
X192710000Y-85540285D01*
X192714475Y-85555524D01*
X192715865Y-85556729D01*
X192723548Y-85558400D01*
X193745885Y-85558400D01*
X193761124Y-85553925D01*
X193762329Y-85552535D01*
X193764000Y-85544852D01*
X193764000Y-84072516D01*
X193759525Y-84057277D01*
X193758135Y-84056072D01*
X193750452Y-84054401D01*
X193173331Y-84054401D01*
X193166510Y-84054771D01*
X193115648Y-84060295D01*
X193100396Y-84063921D01*
X192979946Y-84109076D01*
X192964351Y-84117614D01*
X192862276Y-84194115D01*
X192849715Y-84206676D01*
X192773214Y-84308751D01*
X192764676Y-84324346D01*
X192719522Y-84444794D01*
X192715895Y-84460049D01*
X192710369Y-84510914D01*
X192710000Y-84517728D01*
X192710000Y-85540285D01*
X187726500Y-85540285D01*
X187726500Y-84514266D01*
X187719745Y-84452084D01*
X187668615Y-84315695D01*
X187581261Y-84199139D01*
X187464705Y-84111785D01*
X187328316Y-84060655D01*
X187266134Y-84053900D01*
X187177500Y-84053900D01*
X187109379Y-84033898D01*
X187062886Y-83980242D01*
X187051500Y-83927900D01*
X187051500Y-83807168D01*
X187052027Y-83795985D01*
X187053702Y-83788492D01*
X187051562Y-83720401D01*
X187051500Y-83716444D01*
X187051500Y-83688544D01*
X187050996Y-83684553D01*
X187050063Y-83672711D01*
X187048923Y-83636436D01*
X187048674Y-83628511D01*
X187043021Y-83609052D01*
X187039012Y-83589693D01*
X187038846Y-83588383D01*
X187036474Y-83569603D01*
X187033558Y-83562237D01*
X187033556Y-83562231D01*
X187020200Y-83528498D01*
X187016355Y-83517268D01*
X187006230Y-83482417D01*
X187006230Y-83482416D01*
X187004019Y-83474807D01*
X186993705Y-83457366D01*
X186985008Y-83439613D01*
X186980472Y-83428158D01*
X186977552Y-83420783D01*
X186951563Y-83385012D01*
X186945047Y-83375092D01*
X186926578Y-83343863D01*
X186922542Y-83337038D01*
X186908221Y-83322717D01*
X186895380Y-83307683D01*
X186888131Y-83297706D01*
X186883472Y-83291293D01*
X186849395Y-83263102D01*
X186840616Y-83255112D01*
X185387652Y-81802147D01*
X185380112Y-81793861D01*
X185376000Y-81787382D01*
X185326348Y-81740756D01*
X185323507Y-81738002D01*
X185303770Y-81718265D01*
X185300573Y-81715785D01*
X185291551Y-81708080D01*
X185265100Y-81683241D01*
X185259321Y-81677814D01*
X185252375Y-81673995D01*
X185252372Y-81673993D01*
X185241566Y-81668052D01*
X185225047Y-81657201D01*
X185224583Y-81656841D01*
X185209041Y-81644786D01*
X185201772Y-81641641D01*
X185201768Y-81641638D01*
X185168463Y-81627226D01*
X185157813Y-81622009D01*
X185119060Y-81600705D01*
X185099437Y-81595667D01*
X185080734Y-81589263D01*
X185069420Y-81584367D01*
X185069419Y-81584367D01*
X185062145Y-81581219D01*
X185054322Y-81579980D01*
X185054312Y-81579977D01*
X185018476Y-81574301D01*
X185006856Y-81571895D01*
X184971711Y-81562872D01*
X184971710Y-81562872D01*
X184964030Y-81560900D01*
X184943776Y-81560900D01*
X184924065Y-81559349D01*
X184911886Y-81557420D01*
X184904057Y-81556180D01*
X184896165Y-81556926D01*
X184860039Y-81560341D01*
X184848181Y-81560900D01*
X183420595Y-81560900D01*
X183352474Y-81540898D01*
X183331500Y-81523995D01*
X182506405Y-80698900D01*
X182472379Y-80636588D01*
X182469500Y-80609805D01*
X182469500Y-77308924D01*
X182489502Y-77240803D01*
X182501858Y-77224621D01*
X182575040Y-77143344D01*
X182670527Y-76977956D01*
X182729542Y-76796328D01*
X182749504Y-76606400D01*
X182729542Y-76416472D01*
X182670527Y-76234844D01*
X182575040Y-76069456D01*
X182447253Y-75927534D01*
X182292752Y-75815282D01*
X182286724Y-75812598D01*
X182286722Y-75812597D01*
X182124319Y-75740291D01*
X182124318Y-75740291D01*
X182118288Y-75737606D01*
X182024887Y-75717753D01*
X181937944Y-75699272D01*
X181937939Y-75699272D01*
X181931487Y-75697900D01*
X181740513Y-75697900D01*
X181734061Y-75699272D01*
X181734056Y-75699272D01*
X181647113Y-75717753D01*
X181553712Y-75737606D01*
X181547682Y-75740291D01*
X181547681Y-75740291D01*
X181385278Y-75812597D01*
X181385276Y-75812598D01*
X181379248Y-75815282D01*
X181224747Y-75927534D01*
X181096960Y-76069456D01*
X181001473Y-76234844D01*
X180942458Y-76416472D01*
X180922496Y-76606400D01*
X180942458Y-76796328D01*
X180944498Y-76802606D01*
X180999203Y-76970971D01*
X181001231Y-77041938D01*
X180964568Y-77102736D01*
X180900856Y-77134062D01*
X180830322Y-77125969D01*
X180805310Y-77111843D01*
X180768752Y-77085282D01*
X180762724Y-77082598D01*
X180762722Y-77082597D01*
X180600319Y-77010291D01*
X180600318Y-77010291D01*
X180594288Y-77007606D01*
X180481721Y-76983679D01*
X180413944Y-76969272D01*
X180413939Y-76969272D01*
X180407487Y-76967900D01*
X180216513Y-76967900D01*
X180210061Y-76969272D01*
X180210056Y-76969272D01*
X180142279Y-76983679D01*
X180029712Y-77007606D01*
X180023682Y-77010291D01*
X180023681Y-77010291D01*
X179861278Y-77082597D01*
X179861276Y-77082598D01*
X179855248Y-77085282D01*
X179849907Y-77089162D01*
X179849906Y-77089163D01*
X179818691Y-77111842D01*
X179700747Y-77197534D01*
X179696332Y-77202437D01*
X179691420Y-77206860D01*
X179690295Y-77205611D01*
X179636986Y-77238451D01*
X179603800Y-77242900D01*
X174040768Y-77242900D01*
X174029585Y-77242373D01*
X174022092Y-77240698D01*
X174014166Y-77240947D01*
X174014165Y-77240947D01*
X173954002Y-77242838D01*
X173950044Y-77242900D01*
X173922144Y-77242900D01*
X173918154Y-77243404D01*
X173906320Y-77244336D01*
X173862111Y-77245726D01*
X173854497Y-77247938D01*
X173854492Y-77247939D01*
X173842659Y-77251377D01*
X173823296Y-77255388D01*
X173803203Y-77257926D01*
X173795836Y-77260843D01*
X173795831Y-77260844D01*
X173762092Y-77274202D01*
X173750865Y-77278046D01*
X173708407Y-77290382D01*
X173701581Y-77294419D01*
X173690972Y-77300693D01*
X173673224Y-77309388D01*
X173654383Y-77316848D01*
X173647967Y-77321510D01*
X173647966Y-77321510D01*
X173618613Y-77342836D01*
X173608693Y-77349352D01*
X173577465Y-77367820D01*
X173577462Y-77367822D01*
X173570638Y-77371858D01*
X173556317Y-77386179D01*
X173541284Y-77399019D01*
X173524893Y-77410928D01*
X173519842Y-77417034D01*
X173496702Y-77445005D01*
X173488712Y-77453784D01*
X170770815Y-80171680D01*
X170752547Y-80186795D01*
X170745729Y-80191428D01*
X170740485Y-80197376D01*
X170740484Y-80197377D01*
X170708589Y-80233555D01*
X170703170Y-80239325D01*
X170691865Y-80250630D01*
X170689435Y-80253763D01*
X170682057Y-80263274D01*
X170677012Y-80269372D01*
X170656766Y-80292337D01*
X170639880Y-80311490D01*
X170636281Y-80318554D01*
X170636280Y-80318555D01*
X170636140Y-80318829D01*
X170623434Y-80338850D01*
X170623248Y-80339090D01*
X170623246Y-80339094D01*
X170618386Y-80345359D01*
X170615236Y-80352638D01*
X170596079Y-80396907D01*
X170592722Y-80404042D01*
X170567215Y-80454104D01*
X170565417Y-80462149D01*
X170558091Y-80484694D01*
X170554819Y-80492255D01*
X170553579Y-80500085D01*
X170546033Y-80547726D01*
X170544549Y-80555501D01*
X170532298Y-80610309D01*
X170532547Y-80618232D01*
X170532547Y-80618233D01*
X170532557Y-80618541D01*
X170531067Y-80642215D01*
X170529780Y-80650343D01*
X170530526Y-80658235D01*
X170530526Y-80658236D01*
X170535065Y-80706258D01*
X170535562Y-80714155D01*
X170537327Y-80770289D01*
X170539540Y-80777905D01*
X170540779Y-80785730D01*
X170540635Y-80785753D01*
X170544500Y-80812911D01*
X170544500Y-83927900D01*
X170524498Y-83996021D01*
X170470842Y-84042514D01*
X170418500Y-84053900D01*
X170329866Y-84053900D01*
X170267684Y-84060655D01*
X170131295Y-84111785D01*
X170014739Y-84199139D01*
X170009358Y-84206319D01*
X170008514Y-84207445D01*
X170007396Y-84208281D01*
X170003008Y-84212669D01*
X170002375Y-84212036D01*
X169951655Y-84249960D01*
X169880836Y-84254986D01*
X169818543Y-84220926D01*
X169806865Y-84207450D01*
X169806284Y-84206675D01*
X169793724Y-84194115D01*
X169691649Y-84117614D01*
X169676054Y-84109076D01*
X169555606Y-84063922D01*
X169540351Y-84060295D01*
X169489486Y-84054769D01*
X169482672Y-84054400D01*
X168910115Y-84054400D01*
X168894876Y-84058875D01*
X168893671Y-84060265D01*
X168892000Y-84067948D01*
X168892000Y-87552284D01*
X168896475Y-87567523D01*
X168897865Y-87568728D01*
X168905548Y-87570399D01*
X169482669Y-87570399D01*
X169489490Y-87570029D01*
X169540352Y-87564505D01*
X169555604Y-87560879D01*
X169676054Y-87515724D01*
X169691649Y-87507186D01*
X169793724Y-87430685D01*
X169806284Y-87418125D01*
X169806865Y-87417350D01*
X169807634Y-87416775D01*
X169812635Y-87411774D01*
X169813357Y-87412496D01*
X169863726Y-87374838D01*
X169934545Y-87369816D01*
X169996837Y-87403878D01*
X170008510Y-87417350D01*
X170014739Y-87425661D01*
X170131295Y-87513015D01*
X170267684Y-87564145D01*
X170329866Y-87570900D01*
X172026134Y-87570900D01*
X172088316Y-87564145D01*
X172224705Y-87513015D01*
X172341261Y-87425661D01*
X172347174Y-87417772D01*
X172347878Y-87417245D01*
X172352992Y-87412131D01*
X172353730Y-87412869D01*
X172404031Y-87375257D01*
X172474849Y-87370230D01*
X172537143Y-87404288D01*
X172548823Y-87417767D01*
X172554739Y-87425661D01*
X172671295Y-87513015D01*
X172807684Y-87564145D01*
X172869866Y-87570900D01*
X174566134Y-87570900D01*
X174628316Y-87564145D01*
X174764705Y-87513015D01*
X174881261Y-87425661D01*
X174887174Y-87417772D01*
X174887878Y-87417245D01*
X174892992Y-87412131D01*
X174893730Y-87412869D01*
X174944031Y-87375257D01*
X175014849Y-87370230D01*
X175077143Y-87404288D01*
X175088823Y-87417767D01*
X175094739Y-87425661D01*
X175211295Y-87513015D01*
X175347684Y-87564145D01*
X175409866Y-87570900D01*
X177106134Y-87570900D01*
X177168316Y-87564145D01*
X177304705Y-87513015D01*
X177421261Y-87425661D01*
X177427174Y-87417772D01*
X177427878Y-87417245D01*
X177432992Y-87412131D01*
X177433730Y-87412869D01*
X177484031Y-87375257D01*
X177554849Y-87370230D01*
X177617143Y-87404288D01*
X177628823Y-87417767D01*
X177634739Y-87425661D01*
X177751295Y-87513015D01*
X177887684Y-87564145D01*
X177949866Y-87570900D01*
X178390406Y-87570900D01*
X178458527Y-87590902D01*
X178479501Y-87607805D01*
X180824343Y-89952647D01*
X180831887Y-89960937D01*
X180836000Y-89967418D01*
X180841777Y-89972843D01*
X180885667Y-90014058D01*
X180888509Y-90016813D01*
X180908230Y-90036534D01*
X180911425Y-90039012D01*
X180920447Y-90046718D01*
X180952679Y-90076986D01*
X180959628Y-90080806D01*
X180970432Y-90086746D01*
X180986956Y-90097599D01*
X181002959Y-90110013D01*
X181043543Y-90127576D01*
X181054173Y-90132783D01*
X181092940Y-90154095D01*
X181100617Y-90156066D01*
X181100622Y-90156068D01*
X181112558Y-90159132D01*
X181131266Y-90165537D01*
X181149855Y-90173581D01*
X181157683Y-90174821D01*
X181157690Y-90174823D01*
X181193524Y-90180499D01*
X181205144Y-90182905D01*
X181240289Y-90191928D01*
X181247970Y-90193900D01*
X181268224Y-90193900D01*
X181287934Y-90195451D01*
X181307943Y-90198620D01*
X181315835Y-90197874D01*
X181351961Y-90194459D01*
X181363819Y-90193900D01*
X182863605Y-90193900D01*
X182931726Y-90213902D01*
X182978219Y-90267558D01*
X182988323Y-90337832D01*
X182983437Y-90358838D01*
X182976498Y-90380192D01*
X182976497Y-90380197D01*
X182974458Y-90386472D01*
X182954496Y-90576400D01*
X182974458Y-90766328D01*
X183033473Y-90947956D01*
X183128960Y-91113344D01*
X183256747Y-91255266D01*
X183306897Y-91291702D01*
X183308390Y-91292787D01*
X183351744Y-91349009D01*
X183357819Y-91419746D01*
X183324687Y-91482537D01*
X183262867Y-91517449D01*
X183253388Y-91519273D01*
X183202932Y-91526994D01*
X183092091Y-91543955D01*
X182879756Y-91613357D01*
X182681607Y-91716507D01*
X182677474Y-91719610D01*
X182677471Y-91719612D01*
X182545333Y-91818824D01*
X182502965Y-91850635D01*
X182348629Y-92012138D01*
X182241201Y-92169621D01*
X182186293Y-92214621D01*
X182115768Y-92222792D01*
X182052021Y-92191538D01*
X182031324Y-92167054D01*
X181950822Y-92042617D01*
X181950820Y-92042614D01*
X181948014Y-92038277D01*
X181797670Y-91873051D01*
X181793619Y-91869852D01*
X181793615Y-91869848D01*
X181626414Y-91737800D01*
X181626410Y-91737798D01*
X181622359Y-91734598D01*
X181586028Y-91714542D01*
X181524340Y-91680489D01*
X181426789Y-91626638D01*
X181421920Y-91624914D01*
X181421916Y-91624912D01*
X181221087Y-91553795D01*
X181221083Y-91553794D01*
X181216212Y-91552069D01*
X181211119Y-91551162D01*
X181211116Y-91551161D01*
X181001373Y-91513800D01*
X181001367Y-91513799D01*
X180996284Y-91512894D01*
X180922452Y-91511992D01*
X180778081Y-91510228D01*
X180778079Y-91510228D01*
X180772911Y-91510165D01*
X180552091Y-91543955D01*
X180339756Y-91613357D01*
X180141607Y-91716507D01*
X180137474Y-91719610D01*
X180137471Y-91719612D01*
X180005333Y-91818824D01*
X179962965Y-91850635D01*
X179808629Y-92012138D01*
X179701201Y-92169621D01*
X179646293Y-92214621D01*
X179575768Y-92222792D01*
X179512021Y-92191538D01*
X179491324Y-92167054D01*
X179410822Y-92042617D01*
X179410820Y-92042614D01*
X179408014Y-92038277D01*
X179257670Y-91873051D01*
X179253619Y-91869852D01*
X179253615Y-91869848D01*
X179086414Y-91737800D01*
X179086410Y-91737798D01*
X179082359Y-91734598D01*
X179046028Y-91714542D01*
X178984340Y-91680489D01*
X178886789Y-91626638D01*
X178881920Y-91624914D01*
X178881916Y-91624912D01*
X178681087Y-91553795D01*
X178681083Y-91553794D01*
X178676212Y-91552069D01*
X178671119Y-91551162D01*
X178671116Y-91551161D01*
X178461373Y-91513800D01*
X178461367Y-91513799D01*
X178456284Y-91512894D01*
X178382452Y-91511992D01*
X178238081Y-91510228D01*
X178238079Y-91510228D01*
X178232911Y-91510165D01*
X178012091Y-91543955D01*
X177799756Y-91613357D01*
X177601607Y-91716507D01*
X177597474Y-91719610D01*
X177597471Y-91719612D01*
X177465333Y-91818824D01*
X177422965Y-91850635D01*
X177268629Y-92012138D01*
X177265720Y-92016403D01*
X177265714Y-92016411D01*
X177230823Y-92067559D01*
X177161204Y-92169618D01*
X177160898Y-92170066D01*
X177105987Y-92215069D01*
X177035462Y-92223240D01*
X176971715Y-92191986D01*
X176951018Y-92167502D01*
X176870426Y-92042926D01*
X176864136Y-92034757D01*
X176720806Y-91877240D01*
X176713273Y-91870215D01*
X176546139Y-91738222D01*
X176537552Y-91732517D01*
X176351117Y-91629599D01*
X176341705Y-91625369D01*
X176140959Y-91554280D01*
X176130988Y-91551646D01*
X176059837Y-91538972D01*
X176046540Y-91540432D01*
X176042000Y-91554989D01*
X176042000Y-92998000D01*
X176021998Y-93066121D01*
X175968342Y-93112614D01*
X175916000Y-93124000D01*
X175660000Y-93124000D01*
X175591879Y-93103998D01*
X175545386Y-93050342D01*
X175534000Y-92998000D01*
X175534000Y-91553102D01*
X175530082Y-91539758D01*
X175515806Y-91537771D01*
X175477324Y-91543660D01*
X175467288Y-91546051D01*
X175264868Y-91612212D01*
X175255359Y-91616209D01*
X175066463Y-91714542D01*
X175057738Y-91720036D01*
X174887433Y-91847905D01*
X174879726Y-91854748D01*
X174732590Y-92008717D01*
X174726109Y-92016722D01*
X174621498Y-92170074D01*
X174566587Y-92215076D01*
X174496062Y-92223247D01*
X174432315Y-92191993D01*
X174411618Y-92167509D01*
X174330822Y-92042617D01*
X174330820Y-92042614D01*
X174328014Y-92038277D01*
X174177670Y-91873051D01*
X174173619Y-91869852D01*
X174173615Y-91869848D01*
X174006414Y-91737800D01*
X174006410Y-91737798D01*
X174002359Y-91734598D01*
X173966028Y-91714542D01*
X173904340Y-91680489D01*
X173806789Y-91626638D01*
X173801920Y-91624914D01*
X173801916Y-91624912D01*
X173601087Y-91553795D01*
X173601083Y-91553794D01*
X173596212Y-91552069D01*
X173591119Y-91551162D01*
X173591116Y-91551161D01*
X173381373Y-91513800D01*
X173381367Y-91513799D01*
X173376284Y-91512894D01*
X173302452Y-91511992D01*
X173158081Y-91510228D01*
X173158079Y-91510228D01*
X173152911Y-91510165D01*
X172932091Y-91543955D01*
X172728644Y-91610452D01*
X172657682Y-91612603D01*
X172596820Y-91576047D01*
X172565383Y-91512390D01*
X172563500Y-91490687D01*
X172563500Y-91024924D01*
X172583502Y-90956803D01*
X172595858Y-90940621D01*
X172669040Y-90859344D01*
X172764527Y-90693956D01*
X172823542Y-90512328D01*
X172843504Y-90322400D01*
X172827532Y-90170433D01*
X172824232Y-90139035D01*
X172824232Y-90139033D01*
X172823542Y-90132472D01*
X172764527Y-89950844D01*
X172669040Y-89785456D01*
X172541253Y-89643534D01*
X172386752Y-89531282D01*
X172380724Y-89528598D01*
X172380722Y-89528597D01*
X172218319Y-89456291D01*
X172218318Y-89456291D01*
X172212288Y-89453606D01*
X172118887Y-89433753D01*
X172031944Y-89415272D01*
X172031939Y-89415272D01*
X172025487Y-89413900D01*
X171834513Y-89413900D01*
X171828061Y-89415272D01*
X171828056Y-89415272D01*
X171741113Y-89433753D01*
X171647712Y-89453606D01*
X171641682Y-89456291D01*
X171641681Y-89456291D01*
X171479278Y-89528597D01*
X171479276Y-89528598D01*
X171473248Y-89531282D01*
X171318747Y-89643534D01*
X171190960Y-89785456D01*
X171095473Y-89950844D01*
X171036458Y-90132472D01*
X171035768Y-90139033D01*
X171035768Y-90139035D01*
X171032468Y-90170433D01*
X171016496Y-90322400D01*
X171036458Y-90512328D01*
X171095473Y-90693956D01*
X171190960Y-90859344D01*
X171264137Y-90940615D01*
X171294853Y-91004621D01*
X171296500Y-91024924D01*
X171296500Y-91458873D01*
X171276498Y-91526994D01*
X171222842Y-91573487D01*
X171152568Y-91583591D01*
X171128441Y-91577646D01*
X171061091Y-91553796D01*
X171061083Y-91553794D01*
X171056212Y-91552069D01*
X171051119Y-91551162D01*
X171051116Y-91551161D01*
X170841373Y-91513800D01*
X170841367Y-91513799D01*
X170836284Y-91512894D01*
X170762452Y-91511992D01*
X170618081Y-91510228D01*
X170618079Y-91510228D01*
X170612911Y-91510165D01*
X170392091Y-91543955D01*
X170179756Y-91613357D01*
X169981607Y-91716507D01*
X169977474Y-91719610D01*
X169977471Y-91719612D01*
X169845333Y-91818824D01*
X169802965Y-91850635D01*
X169648629Y-92012138D01*
X169645720Y-92016403D01*
X169645714Y-92016411D01*
X169610823Y-92067559D01*
X169522743Y-92196680D01*
X169428688Y-92399305D01*
X169368989Y-92614570D01*
X169345251Y-92836695D01*
X169345548Y-92841848D01*
X169345548Y-92841851D01*
X169351011Y-92936590D01*
X169358110Y-93059715D01*
X169359247Y-93064761D01*
X169359248Y-93064767D01*
X169370031Y-93112614D01*
X169407222Y-93277639D01*
X169491266Y-93484616D01*
X169531924Y-93550964D01*
X169605291Y-93670688D01*
X169607987Y-93675088D01*
X169611367Y-93678990D01*
X169614300Y-93682376D01*
X169754250Y-93843938D01*
X169758230Y-93847242D01*
X169762981Y-93851187D01*
X169802616Y-93910090D01*
X169804113Y-93981071D01*
X169766997Y-94041593D01*
X169726725Y-94066112D01*
X169685913Y-94081412D01*
X169611295Y-94109385D01*
X169494739Y-94196739D01*
X169407385Y-94313295D01*
X169356255Y-94449684D01*
X169349500Y-94511866D01*
X169349500Y-96175500D01*
X169329498Y-96243621D01*
X169275842Y-96290114D01*
X169223500Y-96301500D01*
X165049367Y-96301500D01*
X165029982Y-96300000D01*
X165015149Y-96297690D01*
X165015145Y-96297690D01*
X165006276Y-96296309D01*
X164988280Y-96298662D01*
X164964884Y-96299528D01*
X164716905Y-96285602D01*
X164702873Y-96284021D01*
X164566590Y-96260865D01*
X164430313Y-96237711D01*
X164416538Y-96234567D01*
X164150880Y-96158032D01*
X164137543Y-96153365D01*
X163965524Y-96082113D01*
X163882123Y-96047567D01*
X163869400Y-96041440D01*
X163627427Y-95907706D01*
X163615479Y-95900199D01*
X163389987Y-95740204D01*
X163378955Y-95731406D01*
X163172808Y-95547181D01*
X163162818Y-95537191D01*
X162978594Y-95331045D01*
X162969796Y-95320013D01*
X162809801Y-95094521D01*
X162802294Y-95082573D01*
X162668560Y-94840600D01*
X162662431Y-94827873D01*
X162622717Y-94731993D01*
X162613637Y-94710074D01*
X162556635Y-94572457D01*
X162551968Y-94559120D01*
X162475433Y-94293462D01*
X162472289Y-94279687D01*
X162444269Y-94114771D01*
X162425979Y-94007127D01*
X162424398Y-93993091D01*
X162424036Y-93986632D01*
X162415953Y-93842703D01*
X162890743Y-93842703D01*
X162891302Y-93846947D01*
X162891302Y-93846951D01*
X162891860Y-93851187D01*
X162928268Y-94127734D01*
X162929401Y-94131874D01*
X162929401Y-94131876D01*
X162947146Y-94196739D01*
X163004129Y-94405036D01*
X163005813Y-94408984D01*
X163076522Y-94574757D01*
X163116923Y-94669476D01*
X163264561Y-94916161D01*
X163444313Y-95140528D01*
X163493665Y-95187361D01*
X163645084Y-95331052D01*
X163652851Y-95338423D01*
X163886317Y-95506186D01*
X163890112Y-95508195D01*
X163890113Y-95508196D01*
X163911869Y-95519715D01*
X164140392Y-95640712D01*
X164253113Y-95681962D01*
X164401096Y-95736116D01*
X164410373Y-95739511D01*
X164691264Y-95800755D01*
X164719841Y-95803004D01*
X164914282Y-95818307D01*
X164914291Y-95818307D01*
X164916739Y-95818500D01*
X165072271Y-95818500D01*
X165074407Y-95818354D01*
X165074418Y-95818354D01*
X165282548Y-95804165D01*
X165282554Y-95804164D01*
X165286825Y-95803873D01*
X165291020Y-95803004D01*
X165291022Y-95803004D01*
X165427583Y-95774724D01*
X165568342Y-95745574D01*
X165839343Y-95649607D01*
X166094812Y-95517750D01*
X166098313Y-95515289D01*
X166098317Y-95515287D01*
X166248125Y-95410000D01*
X166330023Y-95352441D01*
X166540622Y-95156740D01*
X166722713Y-94934268D01*
X166872927Y-94689142D01*
X166923139Y-94574757D01*
X166986757Y-94429830D01*
X166988483Y-94425898D01*
X166992951Y-94410215D01*
X167050537Y-94208057D01*
X167067244Y-94149406D01*
X167107751Y-93864784D01*
X167107823Y-93851187D01*
X167109235Y-93581583D01*
X167109235Y-93581576D01*
X167109257Y-93577297D01*
X167103012Y-93529857D01*
X167072292Y-93296522D01*
X167071732Y-93292266D01*
X166995871Y-93014964D01*
X166961013Y-92933240D01*
X166884763Y-92754476D01*
X166884761Y-92754472D01*
X166883077Y-92750524D01*
X166735439Y-92503839D01*
X166555687Y-92279472D01*
X166347149Y-92081577D01*
X166113683Y-91913814D01*
X166091843Y-91902250D01*
X166002127Y-91854748D01*
X165859608Y-91779288D01*
X165589627Y-91680489D01*
X165308736Y-91619245D01*
X165277685Y-91616801D01*
X165085718Y-91601693D01*
X165085709Y-91601693D01*
X165083261Y-91601500D01*
X164927729Y-91601500D01*
X164925593Y-91601646D01*
X164925582Y-91601646D01*
X164717452Y-91615835D01*
X164717446Y-91615836D01*
X164713175Y-91616127D01*
X164708980Y-91616996D01*
X164708978Y-91616996D01*
X164623619Y-91634673D01*
X164431658Y-91674426D01*
X164160657Y-91770393D01*
X164156848Y-91772359D01*
X164005191Y-91850635D01*
X163905188Y-91902250D01*
X163901687Y-91904711D01*
X163901683Y-91904713D01*
X163891594Y-91911804D01*
X163669977Y-92067559D01*
X163654892Y-92081577D01*
X163499647Y-92225840D01*
X163459378Y-92263260D01*
X163277287Y-92485732D01*
X163127073Y-92730858D01*
X163125347Y-92734791D01*
X163125346Y-92734792D01*
X163036763Y-92936590D01*
X163011517Y-92994102D01*
X162932756Y-93270594D01*
X162902978Y-93479829D01*
X162895929Y-93529362D01*
X162892249Y-93555216D01*
X162892227Y-93559505D01*
X162892226Y-93559512D01*
X162891191Y-93757137D01*
X162890743Y-93842703D01*
X162415953Y-93842703D01*
X162411089Y-93756100D01*
X162412412Y-93732208D01*
X162412334Y-93732201D01*
X162412539Y-93729916D01*
X162412638Y-93728127D01*
X162412769Y-93727346D01*
X162413576Y-93722552D01*
X162413729Y-93710000D01*
X162409773Y-93682376D01*
X162408500Y-93664514D01*
X162408500Y-87107069D01*
X167330001Y-87107069D01*
X167330371Y-87113890D01*
X167335895Y-87164752D01*
X167339521Y-87180004D01*
X167384676Y-87300454D01*
X167393214Y-87316049D01*
X167469715Y-87418124D01*
X167482276Y-87430685D01*
X167584351Y-87507186D01*
X167599946Y-87515724D01*
X167720394Y-87560878D01*
X167735649Y-87564505D01*
X167786514Y-87570031D01*
X167793328Y-87570400D01*
X168365885Y-87570400D01*
X168381124Y-87565925D01*
X168382329Y-87564535D01*
X168384000Y-87556852D01*
X168384000Y-86084515D01*
X168379525Y-86069276D01*
X168378135Y-86068071D01*
X168370452Y-86066400D01*
X167348116Y-86066400D01*
X167332877Y-86070875D01*
X167331672Y-86072265D01*
X167330001Y-86079948D01*
X167330001Y-87107069D01*
X162408500Y-87107069D01*
X162408500Y-85540285D01*
X167330000Y-85540285D01*
X167334475Y-85555524D01*
X167335865Y-85556729D01*
X167343548Y-85558400D01*
X168365885Y-85558400D01*
X168381124Y-85553925D01*
X168382329Y-85552535D01*
X168384000Y-85544852D01*
X168384000Y-84072516D01*
X168379525Y-84057277D01*
X168378135Y-84056072D01*
X168370452Y-84054401D01*
X167793331Y-84054401D01*
X167786510Y-84054771D01*
X167735648Y-84060295D01*
X167720396Y-84063921D01*
X167599946Y-84109076D01*
X167584351Y-84117614D01*
X167482276Y-84194115D01*
X167469715Y-84206676D01*
X167393214Y-84308751D01*
X167384676Y-84324346D01*
X167339522Y-84444794D01*
X167335895Y-84460049D01*
X167330369Y-84510914D01*
X167330000Y-84517728D01*
X167330000Y-85540285D01*
X162408500Y-85540285D01*
X162408500Y-63107069D01*
X167330001Y-63107069D01*
X167330371Y-63113890D01*
X167335895Y-63164752D01*
X167339521Y-63180004D01*
X167384676Y-63300454D01*
X167393214Y-63316049D01*
X167469715Y-63418124D01*
X167482276Y-63430685D01*
X167584351Y-63507186D01*
X167599946Y-63515724D01*
X167720394Y-63560878D01*
X167735649Y-63564505D01*
X167786514Y-63570031D01*
X167793328Y-63570400D01*
X168365885Y-63570400D01*
X168381124Y-63565925D01*
X168382329Y-63564535D01*
X168384000Y-63556852D01*
X168384000Y-63552284D01*
X168892000Y-63552284D01*
X168896475Y-63567523D01*
X168897865Y-63568728D01*
X168905548Y-63570399D01*
X169482669Y-63570399D01*
X169489490Y-63570029D01*
X169540352Y-63564505D01*
X169555604Y-63560879D01*
X169676054Y-63515724D01*
X169691649Y-63507186D01*
X169793724Y-63430685D01*
X169806284Y-63418125D01*
X169806865Y-63417350D01*
X169807634Y-63416775D01*
X169812635Y-63411774D01*
X169813357Y-63412496D01*
X169863726Y-63374838D01*
X169934545Y-63369816D01*
X169996837Y-63403878D01*
X170008510Y-63417350D01*
X170014739Y-63425661D01*
X170021919Y-63431042D01*
X170119065Y-63503849D01*
X170161580Y-63560708D01*
X170169500Y-63604675D01*
X170169500Y-64004031D01*
X170149498Y-64072152D01*
X170096750Y-64118226D01*
X169906334Y-64207018D01*
X169906329Y-64207021D01*
X169901347Y-64209344D01*
X169896840Y-64212500D01*
X169896838Y-64212501D01*
X169725473Y-64332492D01*
X169725470Y-64332494D01*
X169720962Y-64335651D01*
X169565251Y-64491362D01*
X169438944Y-64671747D01*
X169436621Y-64676729D01*
X169436618Y-64676734D01*
X169395522Y-64764865D01*
X169345880Y-64871324D01*
X169288885Y-65084029D01*
X169269693Y-65303400D01*
X169288885Y-65522771D01*
X169345880Y-65735476D01*
X169348205Y-65740461D01*
X169436618Y-65930066D01*
X169436621Y-65930071D01*
X169438944Y-65935053D01*
X169565251Y-66115438D01*
X169720962Y-66271149D01*
X169901346Y-66397456D01*
X170100924Y-66490520D01*
X170313629Y-66547515D01*
X170533000Y-66566707D01*
X170752371Y-66547515D01*
X170965076Y-66490520D01*
X171164654Y-66397456D01*
X171345038Y-66271149D01*
X171500749Y-66115438D01*
X171627056Y-65935053D01*
X171629379Y-65930071D01*
X171629382Y-65930066D01*
X171717795Y-65740461D01*
X171720120Y-65735476D01*
X171777115Y-65522771D01*
X171777594Y-65517294D01*
X171777600Y-65517262D01*
X171812591Y-65450043D01*
X171847379Y-65415255D01*
X171857522Y-65406153D01*
X171882218Y-65386297D01*
X171887025Y-65382432D01*
X171919292Y-65343978D01*
X171922472Y-65340331D01*
X171924115Y-65338519D01*
X171926309Y-65336325D01*
X171953642Y-65303051D01*
X171954348Y-65302200D01*
X171957936Y-65297925D01*
X172014154Y-65230926D01*
X172016722Y-65226256D01*
X172020103Y-65222139D01*
X172064015Y-65140242D01*
X172064624Y-65139120D01*
X172106466Y-65063011D01*
X172106468Y-65063006D01*
X172109433Y-65057613D01*
X172111044Y-65052535D01*
X172113563Y-65047837D01*
X172140753Y-64958902D01*
X172141136Y-64957672D01*
X172167371Y-64874970D01*
X172169235Y-64869094D01*
X172169828Y-64863803D01*
X172171388Y-64858702D01*
X172180795Y-64766089D01*
X172180915Y-64764969D01*
X172186500Y-64715173D01*
X172186500Y-64711644D01*
X172186555Y-64710661D01*
X172187004Y-64704956D01*
X172190752Y-64668064D01*
X172190752Y-64668061D01*
X172191374Y-64661937D01*
X172187059Y-64616288D01*
X172186500Y-64604431D01*
X172186500Y-63604675D01*
X172206502Y-63536554D01*
X172236935Y-63503849D01*
X172334081Y-63431042D01*
X172341261Y-63425661D01*
X172347174Y-63417772D01*
X172347878Y-63417245D01*
X172352992Y-63412131D01*
X172353730Y-63412869D01*
X172404031Y-63375257D01*
X172474849Y-63370230D01*
X172537143Y-63404288D01*
X172548823Y-63417767D01*
X172554739Y-63425661D01*
X172671295Y-63513015D01*
X172807684Y-63564145D01*
X172869866Y-63570900D01*
X174566134Y-63570900D01*
X174628316Y-63564145D01*
X174764705Y-63513015D01*
X174881261Y-63425661D01*
X174887174Y-63417772D01*
X174887878Y-63417245D01*
X174892992Y-63412131D01*
X174893730Y-63412869D01*
X174944031Y-63375257D01*
X175014849Y-63370230D01*
X175077143Y-63404288D01*
X175088823Y-63417767D01*
X175094739Y-63425661D01*
X175211295Y-63513015D01*
X175347684Y-63564145D01*
X175409866Y-63570900D01*
X175498500Y-63570900D01*
X175566621Y-63590902D01*
X175613114Y-63644558D01*
X175624500Y-63696900D01*
X175624500Y-63954769D01*
X175604498Y-64022890D01*
X175592136Y-64039080D01*
X175522625Y-64116280D01*
X175508960Y-64131456D01*
X175505659Y-64137174D01*
X175505657Y-64137177D01*
X175462169Y-64212501D01*
X175413473Y-64296844D01*
X175354458Y-64478472D01*
X175334496Y-64668400D01*
X175354458Y-64858328D01*
X175413473Y-65039956D01*
X175416776Y-65045678D01*
X175416777Y-65045679D01*
X175421047Y-65053075D01*
X175508960Y-65205344D01*
X175513378Y-65210251D01*
X175513379Y-65210252D01*
X175624750Y-65333942D01*
X175636747Y-65347266D01*
X175791248Y-65459518D01*
X175797276Y-65462202D01*
X175797278Y-65462203D01*
X175959681Y-65534509D01*
X175965712Y-65537194D01*
X176059113Y-65557047D01*
X176146056Y-65575528D01*
X176146061Y-65575528D01*
X176152513Y-65576900D01*
X176343487Y-65576900D01*
X176349939Y-65575528D01*
X176349944Y-65575528D01*
X176436887Y-65557047D01*
X176530288Y-65537194D01*
X176536319Y-65534509D01*
X176698722Y-65462203D01*
X176698724Y-65462202D01*
X176704752Y-65459518D01*
X176859253Y-65347266D01*
X176871250Y-65333942D01*
X176982621Y-65210252D01*
X176982622Y-65210251D01*
X176987040Y-65205344D01*
X177074953Y-65053075D01*
X177079223Y-65045679D01*
X177079224Y-65045678D01*
X177082527Y-65039956D01*
X177141542Y-64858328D01*
X177161504Y-64668400D01*
X177141542Y-64478472D01*
X177082527Y-64296844D01*
X176987040Y-64131456D01*
X176973376Y-64116280D01*
X176923864Y-64061292D01*
X176893147Y-63997285D01*
X176891500Y-63976982D01*
X176891500Y-63696900D01*
X176911502Y-63628779D01*
X176965158Y-63582286D01*
X177017500Y-63570900D01*
X177106134Y-63570900D01*
X177168316Y-63564145D01*
X177304705Y-63513015D01*
X177421261Y-63425661D01*
X177427174Y-63417772D01*
X177427878Y-63417245D01*
X177432992Y-63412131D01*
X177433730Y-63412869D01*
X177484031Y-63375257D01*
X177554849Y-63370230D01*
X177617143Y-63404288D01*
X177628823Y-63417767D01*
X177634739Y-63425661D01*
X177751295Y-63513015D01*
X177887684Y-63564145D01*
X177949866Y-63570900D01*
X178038500Y-63570900D01*
X178106621Y-63590902D01*
X178153114Y-63644558D01*
X178164500Y-63696900D01*
X178164500Y-63954769D01*
X178144498Y-64022890D01*
X178132136Y-64039080D01*
X178062625Y-64116280D01*
X178048960Y-64131456D01*
X178045659Y-64137174D01*
X178045657Y-64137177D01*
X178002169Y-64212501D01*
X177953473Y-64296844D01*
X177894458Y-64478472D01*
X177874496Y-64668400D01*
X177894458Y-64858328D01*
X177953473Y-65039956D01*
X177956776Y-65045678D01*
X177956777Y-65045679D01*
X177961047Y-65053075D01*
X178048960Y-65205344D01*
X178053378Y-65210251D01*
X178053379Y-65210252D01*
X178164750Y-65333942D01*
X178176747Y-65347266D01*
X178331248Y-65459518D01*
X178337276Y-65462202D01*
X178337278Y-65462203D01*
X178499681Y-65534509D01*
X178505712Y-65537194D01*
X178599113Y-65557047D01*
X178686056Y-65575528D01*
X178686061Y-65575528D01*
X178692513Y-65576900D01*
X178883487Y-65576900D01*
X178889939Y-65575528D01*
X178889944Y-65575528D01*
X178976887Y-65557047D01*
X179070288Y-65537194D01*
X179076319Y-65534509D01*
X179238722Y-65462203D01*
X179238724Y-65462202D01*
X179244752Y-65459518D01*
X179399253Y-65347266D01*
X179411250Y-65333942D01*
X179522621Y-65210252D01*
X179522622Y-65210251D01*
X179527040Y-65205344D01*
X179614953Y-65053075D01*
X179619223Y-65045679D01*
X179619224Y-65045678D01*
X179622527Y-65039956D01*
X179681542Y-64858328D01*
X179701504Y-64668400D01*
X179681542Y-64478472D01*
X179622527Y-64296844D01*
X179527040Y-64131456D01*
X179513376Y-64116280D01*
X179463864Y-64061292D01*
X179433147Y-63997285D01*
X179431500Y-63976982D01*
X179431500Y-63696900D01*
X179451502Y-63628779D01*
X179505158Y-63582286D01*
X179557500Y-63570900D01*
X179646134Y-63570900D01*
X179708316Y-63564145D01*
X179844705Y-63513015D01*
X179961261Y-63425661D01*
X179967174Y-63417772D01*
X179967878Y-63417245D01*
X179972992Y-63412131D01*
X179973730Y-63412869D01*
X180024031Y-63375257D01*
X180094849Y-63370230D01*
X180157143Y-63404288D01*
X180168823Y-63417767D01*
X180174739Y-63425661D01*
X180291295Y-63513015D01*
X180427684Y-63564145D01*
X180489866Y-63570900D01*
X180578500Y-63570900D01*
X180646621Y-63590902D01*
X180693114Y-63644558D01*
X180704500Y-63696900D01*
X180704500Y-63954769D01*
X180684498Y-64022890D01*
X180672136Y-64039080D01*
X180602625Y-64116280D01*
X180588960Y-64131456D01*
X180585659Y-64137174D01*
X180585657Y-64137177D01*
X180542169Y-64212501D01*
X180493473Y-64296844D01*
X180434458Y-64478472D01*
X180414496Y-64668400D01*
X180434458Y-64858328D01*
X180493473Y-65039956D01*
X180496776Y-65045678D01*
X180496777Y-65045679D01*
X180501047Y-65053075D01*
X180588960Y-65205344D01*
X180593378Y-65210251D01*
X180593379Y-65210252D01*
X180704750Y-65333942D01*
X180716747Y-65347266D01*
X180871248Y-65459518D01*
X180877276Y-65462202D01*
X180877278Y-65462203D01*
X181039681Y-65534509D01*
X181045712Y-65537194D01*
X181139113Y-65557047D01*
X181226056Y-65575528D01*
X181226061Y-65575528D01*
X181232513Y-65576900D01*
X181423487Y-65576900D01*
X181429939Y-65575528D01*
X181429944Y-65575528D01*
X181516887Y-65557047D01*
X181610288Y-65537194D01*
X181616319Y-65534509D01*
X181778722Y-65462203D01*
X181778724Y-65462202D01*
X181784752Y-65459518D01*
X181939253Y-65347266D01*
X181951250Y-65333942D01*
X182062621Y-65210252D01*
X182062622Y-65210251D01*
X182067040Y-65205344D01*
X182154953Y-65053075D01*
X182159223Y-65045679D01*
X182159224Y-65045678D01*
X182162527Y-65039956D01*
X182221542Y-64858328D01*
X182241504Y-64668400D01*
X182221542Y-64478472D01*
X182162527Y-64296844D01*
X182067040Y-64131456D01*
X182053376Y-64116280D01*
X182003864Y-64061292D01*
X181973147Y-63997285D01*
X181971500Y-63976982D01*
X181971500Y-63696900D01*
X181991502Y-63628779D01*
X182045158Y-63582286D01*
X182097500Y-63570900D01*
X182186134Y-63570900D01*
X182248316Y-63564145D01*
X182384705Y-63513015D01*
X182501261Y-63425661D01*
X182507486Y-63417355D01*
X182508604Y-63416519D01*
X182512992Y-63412131D01*
X182513625Y-63412764D01*
X182564345Y-63374840D01*
X182635164Y-63369814D01*
X182697457Y-63403874D01*
X182709135Y-63417350D01*
X182709716Y-63418125D01*
X182722276Y-63430685D01*
X182824351Y-63507186D01*
X182839946Y-63515724D01*
X182960394Y-63560878D01*
X182975649Y-63564505D01*
X183026514Y-63570031D01*
X183033328Y-63570400D01*
X183605885Y-63570400D01*
X183621124Y-63565925D01*
X183622329Y-63564535D01*
X183624000Y-63556852D01*
X183624000Y-63552284D01*
X184132000Y-63552284D01*
X184136475Y-63567523D01*
X184137865Y-63568728D01*
X184145548Y-63570399D01*
X184722669Y-63570399D01*
X184729490Y-63570029D01*
X184780352Y-63564505D01*
X184795604Y-63560879D01*
X184916054Y-63515724D01*
X184931649Y-63507186D01*
X185033724Y-63430685D01*
X185046286Y-63418123D01*
X185047174Y-63416938D01*
X185048351Y-63416058D01*
X185052635Y-63411774D01*
X185053253Y-63412392D01*
X185104033Y-63374423D01*
X185174852Y-63369397D01*
X185237145Y-63403457D01*
X185248826Y-63416938D01*
X185249714Y-63418123D01*
X185262276Y-63430685D01*
X185364351Y-63507186D01*
X185379946Y-63515724D01*
X185500394Y-63560878D01*
X185515649Y-63564505D01*
X185566514Y-63570031D01*
X185573328Y-63570400D01*
X186145885Y-63570400D01*
X186161124Y-63565925D01*
X186162329Y-63564535D01*
X186164000Y-63556852D01*
X186164000Y-63552284D01*
X186672000Y-63552284D01*
X186676475Y-63567523D01*
X186677865Y-63568728D01*
X186685548Y-63570399D01*
X187262669Y-63570399D01*
X187269490Y-63570029D01*
X187320352Y-63564505D01*
X187335604Y-63560879D01*
X187456054Y-63515724D01*
X187471649Y-63507186D01*
X187573724Y-63430685D01*
X187586285Y-63418124D01*
X187662786Y-63316049D01*
X187671324Y-63300454D01*
X187716478Y-63180006D01*
X187720105Y-63164751D01*
X187725631Y-63113886D01*
X187726000Y-63107072D01*
X187726000Y-63107069D01*
X192710001Y-63107069D01*
X192710371Y-63113890D01*
X192715895Y-63164752D01*
X192719521Y-63180004D01*
X192764676Y-63300454D01*
X192773214Y-63316049D01*
X192849715Y-63418124D01*
X192862276Y-63430685D01*
X192964351Y-63507186D01*
X192979946Y-63515724D01*
X193100394Y-63560878D01*
X193115649Y-63564505D01*
X193166514Y-63570031D01*
X193173328Y-63570400D01*
X193745885Y-63570400D01*
X193761124Y-63565925D01*
X193762329Y-63564535D01*
X193764000Y-63556852D01*
X193764000Y-63552284D01*
X194272000Y-63552284D01*
X194276475Y-63567523D01*
X194277865Y-63568728D01*
X194285548Y-63570399D01*
X194862669Y-63570399D01*
X194869490Y-63570029D01*
X194920352Y-63564505D01*
X194935604Y-63560879D01*
X195056054Y-63515724D01*
X195071649Y-63507186D01*
X195173724Y-63430685D01*
X195186286Y-63418123D01*
X195187174Y-63416938D01*
X195188351Y-63416058D01*
X195192635Y-63411774D01*
X195193253Y-63412392D01*
X195244033Y-63374423D01*
X195314852Y-63369397D01*
X195377145Y-63403457D01*
X195388826Y-63416938D01*
X195389714Y-63418123D01*
X195402276Y-63430685D01*
X195504351Y-63507186D01*
X195519946Y-63515724D01*
X195640394Y-63560878D01*
X195655649Y-63564505D01*
X195706514Y-63570031D01*
X195713328Y-63570400D01*
X196285885Y-63570400D01*
X196301124Y-63565925D01*
X196302329Y-63564535D01*
X196304000Y-63556852D01*
X196304000Y-63552284D01*
X196812000Y-63552284D01*
X196816475Y-63567523D01*
X196817865Y-63568728D01*
X196825548Y-63570399D01*
X197402669Y-63570399D01*
X197409490Y-63570029D01*
X197460352Y-63564505D01*
X197475604Y-63560879D01*
X197596054Y-63515724D01*
X197611649Y-63507186D01*
X197713724Y-63430685D01*
X197726286Y-63418123D01*
X197727174Y-63416938D01*
X197728351Y-63416058D01*
X197732635Y-63411774D01*
X197733253Y-63412392D01*
X197784033Y-63374423D01*
X197854852Y-63369397D01*
X197917145Y-63403457D01*
X197928826Y-63416938D01*
X197929714Y-63418123D01*
X197942276Y-63430685D01*
X198044351Y-63507186D01*
X198059946Y-63515724D01*
X198180394Y-63560878D01*
X198195649Y-63564505D01*
X198246514Y-63570031D01*
X198253328Y-63570400D01*
X198825885Y-63570400D01*
X198841124Y-63565925D01*
X198842329Y-63564535D01*
X198844000Y-63556852D01*
X198844000Y-63552284D01*
X199352000Y-63552284D01*
X199356475Y-63567523D01*
X199357865Y-63568728D01*
X199365548Y-63570399D01*
X199942669Y-63570399D01*
X199949490Y-63570029D01*
X200000352Y-63564505D01*
X200015604Y-63560879D01*
X200136054Y-63515724D01*
X200151649Y-63507186D01*
X200253724Y-63430685D01*
X200266285Y-63418124D01*
X200342786Y-63316049D01*
X200351324Y-63300454D01*
X200396478Y-63180006D01*
X200400105Y-63164751D01*
X200405631Y-63113886D01*
X200406000Y-63107072D01*
X200406000Y-62084515D01*
X200401525Y-62069276D01*
X200400135Y-62068071D01*
X200392452Y-62066400D01*
X199370115Y-62066400D01*
X199354876Y-62070875D01*
X199353671Y-62072265D01*
X199352000Y-62079948D01*
X199352000Y-63552284D01*
X198844000Y-63552284D01*
X198844000Y-62084515D01*
X198839525Y-62069276D01*
X198838135Y-62068071D01*
X198830452Y-62066400D01*
X196830115Y-62066400D01*
X196814876Y-62070875D01*
X196813671Y-62072265D01*
X196812000Y-62079948D01*
X196812000Y-63552284D01*
X196304000Y-63552284D01*
X196304000Y-62084515D01*
X196299525Y-62069276D01*
X196298135Y-62068071D01*
X196290452Y-62066400D01*
X194290115Y-62066400D01*
X194274876Y-62070875D01*
X194273671Y-62072265D01*
X194272000Y-62079948D01*
X194272000Y-63552284D01*
X193764000Y-63552284D01*
X193764000Y-62084515D01*
X193759525Y-62069276D01*
X193758135Y-62068071D01*
X193750452Y-62066400D01*
X192728116Y-62066400D01*
X192712877Y-62070875D01*
X192711672Y-62072265D01*
X192710001Y-62079948D01*
X192710001Y-63107069D01*
X187726000Y-63107069D01*
X187726000Y-62084515D01*
X187721525Y-62069276D01*
X187720135Y-62068071D01*
X187712452Y-62066400D01*
X186690115Y-62066400D01*
X186674876Y-62070875D01*
X186673671Y-62072265D01*
X186672000Y-62079948D01*
X186672000Y-63552284D01*
X186164000Y-63552284D01*
X186164000Y-62084515D01*
X186159525Y-62069276D01*
X186158135Y-62068071D01*
X186150452Y-62066400D01*
X184150115Y-62066400D01*
X184134876Y-62070875D01*
X184133671Y-62072265D01*
X184132000Y-62079948D01*
X184132000Y-63552284D01*
X183624000Y-63552284D01*
X183624000Y-61540285D01*
X184132000Y-61540285D01*
X184136475Y-61555524D01*
X184137865Y-61556729D01*
X184145548Y-61558400D01*
X186145885Y-61558400D01*
X186161124Y-61553925D01*
X186162329Y-61552535D01*
X186164000Y-61544852D01*
X186164000Y-61540285D01*
X186672000Y-61540285D01*
X186676475Y-61555524D01*
X186677865Y-61556729D01*
X186685548Y-61558400D01*
X187707884Y-61558400D01*
X187723123Y-61553925D01*
X187724328Y-61552535D01*
X187725999Y-61544852D01*
X187725999Y-61540285D01*
X192710000Y-61540285D01*
X192714475Y-61555524D01*
X192715865Y-61556729D01*
X192723548Y-61558400D01*
X193745885Y-61558400D01*
X193761124Y-61553925D01*
X193762329Y-61552535D01*
X193764000Y-61544852D01*
X193764000Y-61540285D01*
X194272000Y-61540285D01*
X194276475Y-61555524D01*
X194277865Y-61556729D01*
X194285548Y-61558400D01*
X196285885Y-61558400D01*
X196301124Y-61553925D01*
X196302329Y-61552535D01*
X196304000Y-61544852D01*
X196304000Y-61540285D01*
X196812000Y-61540285D01*
X196816475Y-61555524D01*
X196817865Y-61556729D01*
X196825548Y-61558400D01*
X198825885Y-61558400D01*
X198841124Y-61553925D01*
X198842329Y-61552535D01*
X198844000Y-61544852D01*
X198844000Y-61540285D01*
X199352000Y-61540285D01*
X199356475Y-61555524D01*
X199357865Y-61556729D01*
X199365548Y-61558400D01*
X200387884Y-61558400D01*
X200403123Y-61553925D01*
X200404328Y-61552535D01*
X200405999Y-61544852D01*
X200405999Y-60517731D01*
X200405629Y-60510910D01*
X200400105Y-60460048D01*
X200396479Y-60444796D01*
X200351324Y-60324346D01*
X200342786Y-60308751D01*
X200266285Y-60206676D01*
X200253724Y-60194115D01*
X200151649Y-60117614D01*
X200136054Y-60109076D01*
X200015606Y-60063922D01*
X200000351Y-60060295D01*
X199949486Y-60054769D01*
X199942672Y-60054400D01*
X199370115Y-60054400D01*
X199354876Y-60058875D01*
X199353671Y-60060265D01*
X199352000Y-60067948D01*
X199352000Y-61540285D01*
X198844000Y-61540285D01*
X198844000Y-60072516D01*
X198839525Y-60057277D01*
X198838135Y-60056072D01*
X198830452Y-60054401D01*
X198253331Y-60054401D01*
X198246510Y-60054771D01*
X198195648Y-60060295D01*
X198180396Y-60063921D01*
X198059946Y-60109076D01*
X198044351Y-60117614D01*
X197942276Y-60194115D01*
X197929714Y-60206677D01*
X197928826Y-60207862D01*
X197927649Y-60208742D01*
X197923365Y-60213026D01*
X197922747Y-60212408D01*
X197871967Y-60250377D01*
X197801148Y-60255403D01*
X197738855Y-60221343D01*
X197727174Y-60207862D01*
X197726286Y-60206677D01*
X197713724Y-60194115D01*
X197611649Y-60117614D01*
X197596054Y-60109076D01*
X197475606Y-60063922D01*
X197460351Y-60060295D01*
X197409486Y-60054769D01*
X197402672Y-60054400D01*
X196830115Y-60054400D01*
X196814876Y-60058875D01*
X196813671Y-60060265D01*
X196812000Y-60067948D01*
X196812000Y-61540285D01*
X196304000Y-61540285D01*
X196304000Y-60072516D01*
X196299525Y-60057277D01*
X196298135Y-60056072D01*
X196290452Y-60054401D01*
X195713331Y-60054401D01*
X195706510Y-60054771D01*
X195655648Y-60060295D01*
X195640396Y-60063921D01*
X195519946Y-60109076D01*
X195504351Y-60117614D01*
X195402276Y-60194115D01*
X195389714Y-60206677D01*
X195388826Y-60207862D01*
X195387649Y-60208742D01*
X195383365Y-60213026D01*
X195382747Y-60212408D01*
X195331967Y-60250377D01*
X195261148Y-60255403D01*
X195198855Y-60221343D01*
X195187174Y-60207862D01*
X195186286Y-60206677D01*
X195173724Y-60194115D01*
X195071649Y-60117614D01*
X195056054Y-60109076D01*
X194935606Y-60063922D01*
X194920351Y-60060295D01*
X194869486Y-60054769D01*
X194862672Y-60054400D01*
X194290115Y-60054400D01*
X194274876Y-60058875D01*
X194273671Y-60060265D01*
X194272000Y-60067948D01*
X194272000Y-61540285D01*
X193764000Y-61540285D01*
X193764000Y-60072516D01*
X193759525Y-60057277D01*
X193758135Y-60056072D01*
X193750452Y-60054401D01*
X193173331Y-60054401D01*
X193166510Y-60054771D01*
X193115648Y-60060295D01*
X193100396Y-60063921D01*
X192979946Y-60109076D01*
X192964351Y-60117614D01*
X192862276Y-60194115D01*
X192849715Y-60206676D01*
X192773214Y-60308751D01*
X192764676Y-60324346D01*
X192719522Y-60444794D01*
X192715895Y-60460049D01*
X192710369Y-60510914D01*
X192710000Y-60517728D01*
X192710000Y-61540285D01*
X187725999Y-61540285D01*
X187725999Y-60517731D01*
X187725629Y-60510910D01*
X187720105Y-60460048D01*
X187716479Y-60444796D01*
X187671324Y-60324346D01*
X187662786Y-60308751D01*
X187586285Y-60206676D01*
X187573724Y-60194115D01*
X187471649Y-60117614D01*
X187456054Y-60109076D01*
X187335606Y-60063922D01*
X187320351Y-60060295D01*
X187269486Y-60054769D01*
X187262672Y-60054400D01*
X186690115Y-60054400D01*
X186674876Y-60058875D01*
X186673671Y-60060265D01*
X186672000Y-60067948D01*
X186672000Y-61540285D01*
X186164000Y-61540285D01*
X186164000Y-60072516D01*
X186159525Y-60057277D01*
X186158135Y-60056072D01*
X186150452Y-60054401D01*
X185573331Y-60054401D01*
X185566510Y-60054771D01*
X185515648Y-60060295D01*
X185500396Y-60063921D01*
X185379946Y-60109076D01*
X185364351Y-60117614D01*
X185262276Y-60194115D01*
X185249714Y-60206677D01*
X185248826Y-60207862D01*
X185247649Y-60208742D01*
X185243365Y-60213026D01*
X185242747Y-60212408D01*
X185191967Y-60250377D01*
X185121148Y-60255403D01*
X185058855Y-60221343D01*
X185047174Y-60207862D01*
X185046286Y-60206677D01*
X185033724Y-60194115D01*
X184931649Y-60117614D01*
X184916054Y-60109076D01*
X184795606Y-60063922D01*
X184780351Y-60060295D01*
X184729486Y-60054769D01*
X184722672Y-60054400D01*
X184150115Y-60054400D01*
X184134876Y-60058875D01*
X184133671Y-60060265D01*
X184132000Y-60067948D01*
X184132000Y-61540285D01*
X183624000Y-61540285D01*
X183624000Y-60072516D01*
X183619525Y-60057277D01*
X183618135Y-60056072D01*
X183610452Y-60054401D01*
X183033331Y-60054401D01*
X183026510Y-60054771D01*
X182975648Y-60060295D01*
X182960396Y-60063921D01*
X182839946Y-60109076D01*
X182824351Y-60117614D01*
X182722276Y-60194115D01*
X182709716Y-60206675D01*
X182709135Y-60207450D01*
X182708366Y-60208025D01*
X182703365Y-60213026D01*
X182702643Y-60212304D01*
X182652274Y-60249962D01*
X182581455Y-60254984D01*
X182519163Y-60220922D01*
X182507486Y-60207445D01*
X182506642Y-60206319D01*
X182501261Y-60199139D01*
X182384705Y-60111785D01*
X182248316Y-60060655D01*
X182186134Y-60053900D01*
X180489866Y-60053900D01*
X180427684Y-60060655D01*
X180291295Y-60111785D01*
X180174739Y-60199139D01*
X180168826Y-60207028D01*
X180168122Y-60207555D01*
X180163008Y-60212669D01*
X180162270Y-60211931D01*
X180111969Y-60249543D01*
X180041151Y-60254570D01*
X179978857Y-60220512D01*
X179967177Y-60207033D01*
X179961261Y-60199139D01*
X179844705Y-60111785D01*
X179708316Y-60060655D01*
X179646134Y-60053900D01*
X177949866Y-60053900D01*
X177887684Y-60060655D01*
X177751295Y-60111785D01*
X177634739Y-60199139D01*
X177628826Y-60207028D01*
X177628122Y-60207555D01*
X177623008Y-60212669D01*
X177622270Y-60211931D01*
X177571969Y-60249543D01*
X177501151Y-60254570D01*
X177438857Y-60220512D01*
X177427177Y-60207033D01*
X177421261Y-60199139D01*
X177304705Y-60111785D01*
X177168316Y-60060655D01*
X177106134Y-60053900D01*
X175409866Y-60053900D01*
X175347684Y-60060655D01*
X175211295Y-60111785D01*
X175094739Y-60199139D01*
X175088826Y-60207028D01*
X175088122Y-60207555D01*
X175083008Y-60212669D01*
X175082270Y-60211931D01*
X175031969Y-60249543D01*
X174961151Y-60254570D01*
X174898857Y-60220512D01*
X174887177Y-60207033D01*
X174881261Y-60199139D01*
X174776935Y-60120951D01*
X174734420Y-60064092D01*
X174726500Y-60020125D01*
X174726500Y-57188400D01*
X174746502Y-57120279D01*
X174800158Y-57073786D01*
X174852500Y-57062400D01*
X175879114Y-57062400D01*
X175947235Y-57082402D01*
X175968131Y-57099226D01*
X176017697Y-57148705D01*
X176023927Y-57152545D01*
X176023928Y-57152546D01*
X176161288Y-57237216D01*
X176168262Y-57241515D01*
X176248005Y-57267964D01*
X176329611Y-57295032D01*
X176329613Y-57295032D01*
X176336139Y-57297197D01*
X176342975Y-57297897D01*
X176342978Y-57297898D01*
X176386031Y-57302309D01*
X176440600Y-57307900D01*
X178291400Y-57307900D01*
X178294646Y-57307563D01*
X178294650Y-57307563D01*
X178390308Y-57297638D01*
X178390312Y-57297637D01*
X178397166Y-57296926D01*
X178403702Y-57294745D01*
X178403704Y-57294745D01*
X178535806Y-57250672D01*
X178564946Y-57240950D01*
X178715348Y-57147878D01*
X178840305Y-57022703D01*
X178858706Y-56992851D01*
X178929275Y-56878368D01*
X178929276Y-56878366D01*
X178933115Y-56872138D01*
X178983054Y-56721576D01*
X178986632Y-56710789D01*
X178986632Y-56710787D01*
X178988797Y-56704261D01*
X178999500Y-56599800D01*
X178999500Y-56596495D01*
X182133001Y-56596495D01*
X182133338Y-56603014D01*
X182143257Y-56698606D01*
X182146149Y-56712000D01*
X182197588Y-56866184D01*
X182203761Y-56879362D01*
X182289063Y-57017207D01*
X182298099Y-57028608D01*
X182412829Y-57143139D01*
X182424240Y-57152151D01*
X182562243Y-57237216D01*
X182575424Y-57243363D01*
X182729710Y-57294538D01*
X182743086Y-57297405D01*
X182837438Y-57307072D01*
X182843854Y-57307400D01*
X183493885Y-57307400D01*
X183509124Y-57302925D01*
X183510329Y-57301535D01*
X183512000Y-57293852D01*
X183512000Y-57289284D01*
X184020000Y-57289284D01*
X184024475Y-57304523D01*
X184025865Y-57305728D01*
X184033548Y-57307399D01*
X184688095Y-57307399D01*
X184694614Y-57307062D01*
X184790206Y-57297143D01*
X184803600Y-57294251D01*
X184957784Y-57242812D01*
X184970962Y-57236639D01*
X185108807Y-57151337D01*
X185120208Y-57142301D01*
X185234739Y-57027571D01*
X185243751Y-57016160D01*
X185328816Y-56878157D01*
X185334963Y-56864976D01*
X185386138Y-56710690D01*
X185389005Y-56697314D01*
X185398672Y-56602962D01*
X185399000Y-56596546D01*
X185399000Y-55796515D01*
X185394525Y-55781276D01*
X185393135Y-55780071D01*
X185385452Y-55778400D01*
X184038115Y-55778400D01*
X184022876Y-55782875D01*
X184021671Y-55784265D01*
X184020000Y-55791948D01*
X184020000Y-57289284D01*
X183512000Y-57289284D01*
X183512000Y-55796515D01*
X183507525Y-55781276D01*
X183506135Y-55780071D01*
X183498452Y-55778400D01*
X182151116Y-55778400D01*
X182135877Y-55782875D01*
X182134672Y-55784265D01*
X182133001Y-55791948D01*
X182133001Y-56596495D01*
X178999500Y-56596495D01*
X178999500Y-55252285D01*
X182133000Y-55252285D01*
X182137475Y-55267524D01*
X182138865Y-55268729D01*
X182146548Y-55270400D01*
X183493885Y-55270400D01*
X183509124Y-55265925D01*
X183510329Y-55264535D01*
X183512000Y-55256852D01*
X183512000Y-55252285D01*
X184020000Y-55252285D01*
X184024475Y-55267524D01*
X184025865Y-55268729D01*
X184033548Y-55270400D01*
X185380884Y-55270400D01*
X185396123Y-55265925D01*
X185397328Y-55264535D01*
X185398999Y-55256852D01*
X185398999Y-54452305D01*
X185398662Y-54445786D01*
X185388743Y-54350194D01*
X185385851Y-54336800D01*
X185334412Y-54182616D01*
X185328239Y-54169438D01*
X185249812Y-54042703D01*
X204690743Y-54042703D01*
X204728268Y-54327734D01*
X204729401Y-54331874D01*
X204729401Y-54331876D01*
X204732508Y-54343234D01*
X204804129Y-54605036D01*
X204805813Y-54608984D01*
X204900182Y-54830227D01*
X204916923Y-54869476D01*
X205064561Y-55116161D01*
X205244313Y-55340528D01*
X205452851Y-55538423D01*
X205686317Y-55706186D01*
X205690112Y-55708195D01*
X205690113Y-55708196D01*
X205711869Y-55719715D01*
X205940392Y-55840712D01*
X206210373Y-55939511D01*
X206491264Y-56000755D01*
X206519841Y-56003004D01*
X206714282Y-56018307D01*
X206714291Y-56018307D01*
X206716739Y-56018500D01*
X206872271Y-56018500D01*
X206874407Y-56018354D01*
X206874418Y-56018354D01*
X207082548Y-56004165D01*
X207082554Y-56004164D01*
X207086825Y-56003873D01*
X207091020Y-56003004D01*
X207091022Y-56003004D01*
X207227583Y-55974724D01*
X207368342Y-55945574D01*
X207639343Y-55849607D01*
X207894812Y-55717750D01*
X207898313Y-55715289D01*
X207898317Y-55715287D01*
X208107347Y-55568378D01*
X208130023Y-55552441D01*
X208208403Y-55479606D01*
X208337479Y-55359661D01*
X208337481Y-55359658D01*
X208340622Y-55356740D01*
X208522713Y-55134268D01*
X208672927Y-54889142D01*
X208788483Y-54625898D01*
X208867244Y-54349406D01*
X208907751Y-54064784D01*
X208907845Y-54046951D01*
X208909235Y-53781583D01*
X208909235Y-53781576D01*
X208909257Y-53777297D01*
X208906225Y-53754262D01*
X208888528Y-53619844D01*
X208871732Y-53492266D01*
X208795871Y-53214964D01*
X208724510Y-53047661D01*
X208684763Y-52954476D01*
X208684761Y-52954472D01*
X208683077Y-52950524D01*
X208535439Y-52703839D01*
X208355687Y-52479472D01*
X208166558Y-52299995D01*
X208150258Y-52284527D01*
X208150255Y-52284525D01*
X208147149Y-52281577D01*
X207913683Y-52113814D01*
X207891843Y-52102250D01*
X207836255Y-52072818D01*
X207659608Y-51979288D01*
X207450614Y-51902807D01*
X207393658Y-51881964D01*
X207393656Y-51881963D01*
X207389627Y-51880489D01*
X207108736Y-51819245D01*
X207077685Y-51816801D01*
X206885718Y-51801693D01*
X206885709Y-51801693D01*
X206883261Y-51801500D01*
X206727729Y-51801500D01*
X206725593Y-51801646D01*
X206725582Y-51801646D01*
X206517452Y-51815835D01*
X206517446Y-51815836D01*
X206513175Y-51816127D01*
X206508980Y-51816996D01*
X206508978Y-51816996D01*
X206372417Y-51845276D01*
X206231658Y-51874426D01*
X205960657Y-51970393D01*
X205705188Y-52102250D01*
X205701687Y-52104711D01*
X205701683Y-52104713D01*
X205691594Y-52111804D01*
X205469977Y-52267559D01*
X205259378Y-52463260D01*
X205077287Y-52685732D01*
X204927073Y-52930858D01*
X204925347Y-52934791D01*
X204925346Y-52934792D01*
X204825069Y-53163229D01*
X204811517Y-53194102D01*
X204732756Y-53470594D01*
X204702485Y-53683296D01*
X204693381Y-53747265D01*
X204692249Y-53755216D01*
X204692227Y-53759505D01*
X204692226Y-53759512D01*
X204690765Y-54038417D01*
X204690743Y-54042703D01*
X185249812Y-54042703D01*
X185242937Y-54031593D01*
X185233901Y-54020192D01*
X185119171Y-53905661D01*
X185107760Y-53896649D01*
X184969757Y-53811584D01*
X184956576Y-53805437D01*
X184802290Y-53754262D01*
X184788914Y-53751395D01*
X184694562Y-53741728D01*
X184688145Y-53741400D01*
X184038115Y-53741400D01*
X184022876Y-53745875D01*
X184021671Y-53747265D01*
X184020000Y-53754948D01*
X184020000Y-55252285D01*
X183512000Y-55252285D01*
X183512000Y-53759516D01*
X183507525Y-53744277D01*
X183506135Y-53743072D01*
X183498452Y-53741401D01*
X182843905Y-53741401D01*
X182837386Y-53741738D01*
X182741794Y-53751657D01*
X182728400Y-53754549D01*
X182574216Y-53805988D01*
X182561038Y-53812161D01*
X182423193Y-53897463D01*
X182411792Y-53906499D01*
X182297261Y-54021229D01*
X182288249Y-54032640D01*
X182203184Y-54170643D01*
X182197037Y-54183824D01*
X182145862Y-54338110D01*
X182142995Y-54351486D01*
X182133328Y-54445838D01*
X182133000Y-54452255D01*
X182133000Y-55252285D01*
X178999500Y-55252285D01*
X178999500Y-54449000D01*
X178991305Y-54370014D01*
X178989238Y-54350092D01*
X178989237Y-54350088D01*
X178988526Y-54343234D01*
X178932550Y-54175454D01*
X178839478Y-54025052D01*
X178714303Y-53900095D01*
X178708072Y-53896254D01*
X178569968Y-53811125D01*
X178569966Y-53811124D01*
X178563738Y-53807285D01*
X178483995Y-53780836D01*
X178402389Y-53753768D01*
X178402387Y-53753768D01*
X178395861Y-53751603D01*
X178389025Y-53750903D01*
X178389022Y-53750902D01*
X178345969Y-53746491D01*
X178291400Y-53740900D01*
X176440600Y-53740900D01*
X176437354Y-53741237D01*
X176437350Y-53741237D01*
X176341692Y-53751162D01*
X176341688Y-53751163D01*
X176334834Y-53751874D01*
X176328298Y-53754055D01*
X176328296Y-53754055D01*
X176196194Y-53798128D01*
X176167054Y-53807850D01*
X176016652Y-53900922D01*
X175891695Y-54026097D01*
X175798885Y-54176662D01*
X175778120Y-54239268D01*
X175750189Y-54323478D01*
X175743203Y-54344539D01*
X175742503Y-54351375D01*
X175742502Y-54351378D01*
X175740598Y-54369962D01*
X175732500Y-54449000D01*
X175732500Y-54919400D01*
X175712498Y-54987521D01*
X175658842Y-55034014D01*
X175606500Y-55045400D01*
X174830163Y-55045400D01*
X174762042Y-55025398D01*
X174715549Y-54971742D01*
X174705445Y-54901468D01*
X174734939Y-54836888D01*
X174740990Y-54830382D01*
X174776739Y-54794571D01*
X174785751Y-54783160D01*
X174870816Y-54645157D01*
X174876963Y-54631976D01*
X174928138Y-54477690D01*
X174931005Y-54464314D01*
X174940672Y-54369962D01*
X174941000Y-54363546D01*
X174941000Y-54251015D01*
X174936525Y-54235776D01*
X174935135Y-54234571D01*
X174927452Y-54232900D01*
X172493118Y-54232900D01*
X172479008Y-54237043D01*
X172416727Y-54239268D01*
X172387453Y-54232900D01*
X169953116Y-54232900D01*
X169937877Y-54237375D01*
X169936672Y-54238765D01*
X169935001Y-54246448D01*
X169935001Y-54363495D01*
X169935338Y-54370014D01*
X169945257Y-54465606D01*
X169948149Y-54479000D01*
X169999588Y-54633184D01*
X170005761Y-54646362D01*
X170091063Y-54784207D01*
X170100099Y-54795608D01*
X170214828Y-54910138D01*
X170223762Y-54917194D01*
X170264823Y-54975112D01*
X170268053Y-55046035D01*
X170232426Y-55107446D01*
X170224593Y-55114246D01*
X170218652Y-55117922D01*
X170093695Y-55243097D01*
X170089855Y-55249327D01*
X170089854Y-55249328D01*
X170021844Y-55359661D01*
X170000885Y-55393662D01*
X169998581Y-55400609D01*
X169947404Y-55554904D01*
X169945203Y-55561539D01*
X169934500Y-55666000D01*
X169934500Y-56441800D01*
X169945474Y-56547566D01*
X169947655Y-56554102D01*
X169947655Y-56554104D01*
X169963973Y-56603014D01*
X170001450Y-56715346D01*
X170094522Y-56865748D01*
X170099704Y-56870921D01*
X170132518Y-56903678D01*
X170166597Y-56965961D01*
X170169500Y-56992851D01*
X170169500Y-60020125D01*
X170149498Y-60088246D01*
X170119065Y-60120951D01*
X170014739Y-60199139D01*
X170009358Y-60206319D01*
X170008514Y-60207445D01*
X170007396Y-60208281D01*
X170003008Y-60212669D01*
X170002375Y-60212036D01*
X169951655Y-60249960D01*
X169880836Y-60254986D01*
X169818543Y-60220926D01*
X169806865Y-60207450D01*
X169806284Y-60206675D01*
X169793724Y-60194115D01*
X169691649Y-60117614D01*
X169676054Y-60109076D01*
X169555606Y-60063922D01*
X169540351Y-60060295D01*
X169489486Y-60054769D01*
X169482672Y-60054400D01*
X168910115Y-60054400D01*
X168894876Y-60058875D01*
X168893671Y-60060265D01*
X168892000Y-60067948D01*
X168892000Y-63552284D01*
X168384000Y-63552284D01*
X168384000Y-62084515D01*
X168379525Y-62069276D01*
X168378135Y-62068071D01*
X168370452Y-62066400D01*
X167348116Y-62066400D01*
X167332877Y-62070875D01*
X167331672Y-62072265D01*
X167330001Y-62079948D01*
X167330001Y-63107069D01*
X162408500Y-63107069D01*
X162408500Y-61540285D01*
X167330000Y-61540285D01*
X167334475Y-61555524D01*
X167335865Y-61556729D01*
X167343548Y-61558400D01*
X168365885Y-61558400D01*
X168381124Y-61553925D01*
X168382329Y-61552535D01*
X168384000Y-61544852D01*
X168384000Y-60072516D01*
X168379525Y-60057277D01*
X168378135Y-60056072D01*
X168370452Y-60054401D01*
X167793331Y-60054401D01*
X167786510Y-60054771D01*
X167735648Y-60060295D01*
X167720396Y-60063921D01*
X167599946Y-60109076D01*
X167584351Y-60117614D01*
X167482276Y-60194115D01*
X167469715Y-60206676D01*
X167393214Y-60308751D01*
X167384676Y-60324346D01*
X167339522Y-60444794D01*
X167335895Y-60460049D01*
X167330369Y-60510914D01*
X167330000Y-60517728D01*
X167330000Y-61540285D01*
X162408500Y-61540285D01*
X162408500Y-54042703D01*
X162890743Y-54042703D01*
X162928268Y-54327734D01*
X162929401Y-54331874D01*
X162929401Y-54331876D01*
X162932508Y-54343234D01*
X163004129Y-54605036D01*
X163005813Y-54608984D01*
X163100182Y-54830227D01*
X163116923Y-54869476D01*
X163264561Y-55116161D01*
X163444313Y-55340528D01*
X163652851Y-55538423D01*
X163886317Y-55706186D01*
X163890112Y-55708195D01*
X163890113Y-55708196D01*
X163911869Y-55719715D01*
X164140392Y-55840712D01*
X164410373Y-55939511D01*
X164691264Y-56000755D01*
X164719841Y-56003004D01*
X164914282Y-56018307D01*
X164914291Y-56018307D01*
X164916739Y-56018500D01*
X165072271Y-56018500D01*
X165074407Y-56018354D01*
X165074418Y-56018354D01*
X165282548Y-56004165D01*
X165282554Y-56004164D01*
X165286825Y-56003873D01*
X165291020Y-56003004D01*
X165291022Y-56003004D01*
X165427583Y-55974724D01*
X165568342Y-55945574D01*
X165839343Y-55849607D01*
X166094812Y-55717750D01*
X166098313Y-55715289D01*
X166098317Y-55715287D01*
X166307347Y-55568378D01*
X166330023Y-55552441D01*
X166408403Y-55479606D01*
X166537479Y-55359661D01*
X166537481Y-55359658D01*
X166540622Y-55356740D01*
X166722713Y-55134268D01*
X166872927Y-54889142D01*
X166988483Y-54625898D01*
X167067244Y-54349406D01*
X167107751Y-54064784D01*
X167107845Y-54046951D01*
X167109235Y-53781583D01*
X167109235Y-53781576D01*
X167109257Y-53777297D01*
X167106225Y-53754262D01*
X167099974Y-53706785D01*
X169935000Y-53706785D01*
X169939475Y-53722024D01*
X169940865Y-53723229D01*
X169948548Y-53724900D01*
X170895885Y-53724900D01*
X170911124Y-53720425D01*
X170912329Y-53719035D01*
X170914000Y-53711352D01*
X170914000Y-53706785D01*
X171422000Y-53706785D01*
X171426475Y-53722024D01*
X171427865Y-53723229D01*
X171435548Y-53724900D01*
X172382882Y-53724900D01*
X172396992Y-53720757D01*
X172459273Y-53718532D01*
X172488547Y-53724900D01*
X173435885Y-53724900D01*
X173451124Y-53720425D01*
X173452329Y-53719035D01*
X173454000Y-53711352D01*
X173454000Y-53706785D01*
X173962000Y-53706785D01*
X173966475Y-53722024D01*
X173967865Y-53723229D01*
X173975548Y-53724900D01*
X174922884Y-53724900D01*
X174938123Y-53720425D01*
X174939328Y-53719035D01*
X174940999Y-53711352D01*
X174940999Y-53594305D01*
X174940662Y-53587786D01*
X174930743Y-53492194D01*
X174927851Y-53478800D01*
X174876412Y-53324616D01*
X174870239Y-53311438D01*
X174784937Y-53173593D01*
X174775901Y-53162192D01*
X174661171Y-53047661D01*
X174649760Y-53038649D01*
X174511757Y-52953584D01*
X174498576Y-52947437D01*
X174344290Y-52896262D01*
X174330914Y-52893395D01*
X174236562Y-52883728D01*
X174230145Y-52883400D01*
X173980115Y-52883400D01*
X173964876Y-52887875D01*
X173963671Y-52889265D01*
X173962000Y-52896948D01*
X173962000Y-53706785D01*
X173454000Y-53706785D01*
X173454000Y-52901516D01*
X173449525Y-52886277D01*
X173448135Y-52885072D01*
X173440452Y-52883401D01*
X173185905Y-52883401D01*
X173179386Y-52883738D01*
X173083794Y-52893657D01*
X173070400Y-52896549D01*
X172916216Y-52947988D01*
X172903038Y-52954161D01*
X172765193Y-53039463D01*
X172753792Y-53048499D01*
X172639261Y-53163229D01*
X172630249Y-53174640D01*
X172545343Y-53312383D01*
X172492571Y-53359876D01*
X172422499Y-53371300D01*
X172357375Y-53343026D01*
X172330939Y-53312570D01*
X172244937Y-53173593D01*
X172235901Y-53162192D01*
X172121171Y-53047661D01*
X172109760Y-53038649D01*
X171971757Y-52953584D01*
X171958576Y-52947437D01*
X171804290Y-52896262D01*
X171790914Y-52893395D01*
X171696562Y-52883728D01*
X171690145Y-52883400D01*
X171440115Y-52883400D01*
X171424876Y-52887875D01*
X171423671Y-52889265D01*
X171422000Y-52896948D01*
X171422000Y-53706785D01*
X170914000Y-53706785D01*
X170914000Y-52901516D01*
X170909525Y-52886277D01*
X170908135Y-52885072D01*
X170900452Y-52883401D01*
X170645905Y-52883401D01*
X170639386Y-52883738D01*
X170543794Y-52893657D01*
X170530400Y-52896549D01*
X170376216Y-52947988D01*
X170363038Y-52954161D01*
X170225193Y-53039463D01*
X170213792Y-53048499D01*
X170099261Y-53163229D01*
X170090249Y-53174640D01*
X170005184Y-53312643D01*
X169999037Y-53325824D01*
X169947862Y-53480110D01*
X169944995Y-53493486D01*
X169935328Y-53587838D01*
X169935000Y-53594255D01*
X169935000Y-53706785D01*
X167099974Y-53706785D01*
X167088528Y-53619844D01*
X167071732Y-53492266D01*
X166995871Y-53214964D01*
X166924510Y-53047661D01*
X166884763Y-52954476D01*
X166884761Y-52954472D01*
X166883077Y-52950524D01*
X166735439Y-52703839D01*
X166555687Y-52479472D01*
X166366558Y-52299995D01*
X166350258Y-52284527D01*
X166350255Y-52284525D01*
X166347149Y-52281577D01*
X166113683Y-52113814D01*
X166091843Y-52102250D01*
X166036255Y-52072818D01*
X165859608Y-51979288D01*
X165650614Y-51902807D01*
X165593658Y-51881964D01*
X165593656Y-51881963D01*
X165589627Y-51880489D01*
X165308736Y-51819245D01*
X165277685Y-51816801D01*
X165085718Y-51801693D01*
X165085709Y-51801693D01*
X165083261Y-51801500D01*
X164927729Y-51801500D01*
X164925593Y-51801646D01*
X164925582Y-51801646D01*
X164717452Y-51815835D01*
X164717446Y-51815836D01*
X164713175Y-51816127D01*
X164708980Y-51816996D01*
X164708978Y-51816996D01*
X164572417Y-51845276D01*
X164431658Y-51874426D01*
X164160657Y-51970393D01*
X163905188Y-52102250D01*
X163901687Y-52104711D01*
X163901683Y-52104713D01*
X163891594Y-52111804D01*
X163669977Y-52267559D01*
X163459378Y-52463260D01*
X163277287Y-52685732D01*
X163127073Y-52930858D01*
X163125347Y-52934791D01*
X163125346Y-52934792D01*
X163025069Y-53163229D01*
X163011517Y-53194102D01*
X162932756Y-53470594D01*
X162902485Y-53683296D01*
X162893381Y-53747265D01*
X162892249Y-53755216D01*
X162892227Y-53759505D01*
X162892226Y-53759512D01*
X162890765Y-54038417D01*
X162890743Y-54042703D01*
X162408500Y-54042703D01*
X162408500Y-53963250D01*
X162410246Y-53942345D01*
X162412770Y-53927344D01*
X162412770Y-53927341D01*
X162413576Y-53922552D01*
X162413729Y-53910000D01*
X162413040Y-53905190D01*
X162413039Y-53905172D01*
X162411751Y-53896181D01*
X162410676Y-53871254D01*
X162415712Y-53781583D01*
X162424398Y-53626905D01*
X162425980Y-53612868D01*
X162429143Y-53594255D01*
X162472289Y-53340313D01*
X162475433Y-53326538D01*
X162551968Y-53060880D01*
X162556635Y-53047543D01*
X162662431Y-52792127D01*
X162668562Y-52779396D01*
X162718309Y-52689386D01*
X162802294Y-52537427D01*
X162809801Y-52525479D01*
X162969796Y-52299987D01*
X162978594Y-52288955D01*
X163162819Y-52082808D01*
X163172809Y-52072818D01*
X163378955Y-51888594D01*
X163389987Y-51879796D01*
X163615479Y-51719801D01*
X163627427Y-51712294D01*
X163869400Y-51578560D01*
X163882123Y-51572433D01*
X163980416Y-51531718D01*
X164137543Y-51466635D01*
X164150880Y-51461968D01*
X164416538Y-51385433D01*
X164430313Y-51382289D01*
X164588994Y-51355328D01*
X164702873Y-51335979D01*
X164716905Y-51334398D01*
X164796506Y-51329928D01*
X164957593Y-51320882D01*
X164984038Y-51322183D01*
X164984851Y-51322310D01*
X164984855Y-51322310D01*
X164993724Y-51323691D01*
X165002626Y-51322527D01*
X165002628Y-51322527D01*
X165017677Y-51320559D01*
X165025286Y-51319564D01*
X165041621Y-51318500D01*
X206750633Y-51318500D01*
X206770018Y-51320000D01*
G37*
G04 #@! TD.AperFunction*
G04 #@! TD*
M02*
