M48
; DRILL file {KiCad 6.0.11} date Пн 24 авг 2026 20:59:44
; FORMAT={-:-/ absolute / metric / decimal}
; #@! TF.CreationDate,2026-08-24T20:59:44+03:00
; #@! TF.GenerationSoftware,Kicad,Pcbnew,6.0.11
; #@! TF.FileFunction,Plated,1,2,PTH
FMAT,2
METRIC
; #@! TA.AperFunction,Plated,PTH,ViaDrill
T1C0.400
; #@! TA.AperFunction,Plated,PTH,ComponentDrill
T2C1.000
%
G90
G05
T1
X172.692Y-66.7
X181.836Y-88.544
X183.868Y-90.576
X188.44Y-78.892
X189.71Y-78.892
X191.234Y-78.892
T2
X170.708Y-92.87
X170.708Y-95.41
X173.248Y-92.87
X173.248Y-95.41
X175.788Y-92.87
X175.788Y-95.41
X178.328Y-92.87
X178.328Y-95.41
X180.868Y-92.87
X180.868Y-95.41
X183.408Y-92.87
X183.408Y-95.41
X185.948Y-92.87
X185.948Y-95.41
X188.488Y-92.87
X188.488Y-95.41
X191.028Y-92.87
X191.028Y-95.41
X193.568Y-92.87
X193.568Y-95.41
X196.108Y-92.87
X196.108Y-95.41
X198.648Y-92.87
X198.648Y-95.41
X201.188Y-92.87
X201.188Y-95.41
T0
M30
