G04 #@! TF.GenerationSoftware,KiCad,Pcbnew,6.0.11*
G04 #@! TF.CreationDate,2026-08-24T20:59:41+03:00*
G04 #@! TF.ProjectId,rns-gate,726e732d-6761-4746-952e-6b696361645f,rev?*
G04 #@! TF.SameCoordinates,Original*
G04 #@! TF.FileFunction,Copper,L2,Bot*
G04 #@! TF.FilePolarity,Positive*
%FSLAX46Y46*%
G04 Gerber Fmt 4.6, Leading zero omitted, Abs format (unit mm)*
G04 Created by KiCad (PCBNEW 6.0.11) date 2026-08-24 20:59:41*
%MOMM*%
%LPD*%
G01*
G04 APERTURE LIST*
G04 #@! TA.AperFunction,ComponentPad*
%ADD10R,1.700000X1.700000*%
G04 #@! TD*
G04 #@! TA.AperFunction,ComponentPad*
%ADD11O,1.700000X1.700000*%
G04 #@! TD*
G04 #@! TA.AperFunction,ViaPad*
%ADD12C,0.800000*%
G04 #@! TD*
G04 #@! TA.AperFunction,Conductor*
%ADD13C,1.000000*%
G04 #@! TD*
G04 #@! TA.AperFunction,Conductor*
%ADD14C,0.250000*%
G04 #@! TD*
G04 APERTURE END LIST*
D10*
G04 #@! TO.P,J2,1,Pin_1*
G04 #@! TO.N,unconnected-(J2-Pad1)*
X170708000Y-95410000D03*
D11*
G04 #@! TO.P,J2,2,Pin_2*
G04 #@! TO.N,+5V*
X170708000Y-92870000D03*
G04 #@! TO.P,J2,3,Pin_3*
G04 #@! TO.N,/DIO1*
X173248000Y-95410000D03*
G04 #@! TO.P,J2,4,Pin_4*
G04 #@! TO.N,+5V*
X173248000Y-92870000D03*
G04 #@! TO.P,J2,5,Pin_5*
G04 #@! TO.N,/BUSY*
X175788000Y-95410000D03*
G04 #@! TO.P,J2,6,Pin_6*
G04 #@! TO.N,GND*
X175788000Y-92870000D03*
G04 #@! TO.P,J2,7,Pin_7*
G04 #@! TO.N,/NRST*
X178328000Y-95410000D03*
G04 #@! TO.P,J2,8,Pin_8*
G04 #@! TO.N,unconnected-(J2-Pad8)*
X178328000Y-92870000D03*
G04 #@! TO.P,J2,9,Pin_9*
G04 #@! TO.N,unconnected-(J2-Pad9)*
X180868000Y-95410000D03*
G04 #@! TO.P,J2,10,Pin_10*
G04 #@! TO.N,unconnected-(J2-Pad10)*
X180868000Y-92870000D03*
G04 #@! TO.P,J2,11,Pin_11*
G04 #@! TO.N,unconnected-(J2-Pad11)*
X183408000Y-95410000D03*
G04 #@! TO.P,J2,12,Pin_12*
G04 #@! TO.N,unconnected-(J2-Pad12)*
X183408000Y-92870000D03*
G04 #@! TO.P,J2,13,Pin_13*
G04 #@! TO.N,unconnected-(J2-Pad13)*
X185948000Y-95410000D03*
G04 #@! TO.P,J2,14,Pin_14*
G04 #@! TO.N,unconnected-(J2-Pad14)*
X185948000Y-92870000D03*
G04 #@! TO.P,J2,15,Pin_15*
G04 #@! TO.N,unconnected-(J2-Pad15)*
X188488000Y-95410000D03*
G04 #@! TO.P,J2,16,Pin_16*
G04 #@! TO.N,/DIO2*
X188488000Y-92870000D03*
G04 #@! TO.P,J2,17,Pin_17*
G04 #@! TO.N,unconnected-(J2-Pad17)*
X191028000Y-95410000D03*
G04 #@! TO.P,J2,18,Pin_18*
G04 #@! TO.N,/TXEN*
X191028000Y-92870000D03*
G04 #@! TO.P,J2,19,Pin_19*
G04 #@! TO.N,/MOSI*
X193568000Y-95410000D03*
G04 #@! TO.P,J2,20,Pin_20*
G04 #@! TO.N,unconnected-(J2-Pad20)*
X193568000Y-92870000D03*
G04 #@! TO.P,J2,21,Pin_21*
G04 #@! TO.N,/MISO*
X196108000Y-95410000D03*
G04 #@! TO.P,J2,22,Pin_22*
G04 #@! TO.N,/RXEN*
X196108000Y-92870000D03*
G04 #@! TO.P,J2,23,Pin_23*
G04 #@! TO.N,/SCK*
X198648000Y-95410000D03*
G04 #@! TO.P,J2,24,Pin_24*
G04 #@! TO.N,/NSS*
X198648000Y-92870000D03*
G04 #@! TO.P,J2,25,Pin_25*
G04 #@! TO.N,GND*
X201188000Y-95410000D03*
G04 #@! TO.P,J2,26,Pin_26*
G04 #@! TO.N,unconnected-(J2-Pad26)*
X201188000Y-92870000D03*
G04 #@! TD*
D12*
G04 #@! TO.N,+5V*
X172692000Y-66700400D03*
G04 #@! TO.N,/MOSI*
X181836000Y-88544400D03*
X183868000Y-90576400D03*
G04 #@! TO.N,/RXEN*
X191234000Y-78892400D03*
G04 #@! TO.N,/TXEN*
X189710000Y-78892400D03*
G04 #@! TO.N,/DIO2*
X188440000Y-78892400D03*
G04 #@! TD*
D13*
G04 #@! TO.N,+5V*
X172692000Y-66700400D02*
X173248000Y-67256400D01*
X170708000Y-92870000D02*
X173248000Y-92870000D01*
X173248000Y-67256400D02*
X173248000Y-92870000D01*
D14*
G04 #@! TO.N,/MOSI*
X183868000Y-90576400D02*
X181836000Y-88544400D01*
G04 #@! TO.N,/RXEN*
X191234000Y-87996000D02*
X196108000Y-92870000D01*
X191234000Y-78892400D02*
X191234000Y-87996000D01*
G04 #@! TO.N,/TXEN*
X191028000Y-92870000D02*
X189710000Y-91552000D01*
X189710000Y-91552000D02*
X189710000Y-78892400D01*
G04 #@! TO.N,/DIO2*
X188488000Y-92870000D02*
X188488000Y-78940400D01*
X188488000Y-78940400D02*
X188440000Y-78892400D01*
G04 #@! TD*
G04 #@! TA.AperFunction,Conductor*
G04 #@! TO.N,GND*
G36*
X206770018Y-51320000D02*
G01*
X206784851Y-51322310D01*
X206784855Y-51322310D01*
X206793724Y-51323691D01*
X206811720Y-51321338D01*
X206835116Y-51320472D01*
X207083095Y-51334398D01*
X207097127Y-51335979D01*
X207211006Y-51355328D01*
X207369687Y-51382289D01*
X207383462Y-51385433D01*
X207649120Y-51461968D01*
X207662457Y-51466635D01*
X207819584Y-51531718D01*
X207917877Y-51572433D01*
X207930600Y-51578560D01*
X208172573Y-51712294D01*
X208184521Y-51719801D01*
X208410013Y-51879796D01*
X208421045Y-51888594D01*
X208623480Y-52069502D01*
X208627191Y-52072818D01*
X208637181Y-52082808D01*
X208821406Y-52288955D01*
X208830204Y-52299987D01*
X208990199Y-52525479D01*
X208997706Y-52537427D01*
X209131438Y-52779396D01*
X209137569Y-52792127D01*
X209243365Y-53047543D01*
X209248032Y-53060880D01*
X209324567Y-53326538D01*
X209327711Y-53340313D01*
X209366375Y-53567870D01*
X209374020Y-53612868D01*
X209375602Y-53626905D01*
X209380072Y-53706506D01*
X209389118Y-53867593D01*
X209387817Y-53894038D01*
X209387690Y-53894851D01*
X209387690Y-53894855D01*
X209386309Y-53903724D01*
X209387473Y-53912626D01*
X209387473Y-53912628D01*
X209390436Y-53935283D01*
X209391500Y-53951621D01*
X209391500Y-93660633D01*
X209390000Y-93680018D01*
X209387690Y-93694851D01*
X209387690Y-93694855D01*
X209386309Y-93703724D01*
X209388662Y-93721720D01*
X209389528Y-93745116D01*
X209377100Y-93966425D01*
X209375602Y-93993091D01*
X209374021Y-94007127D01*
X209355731Y-94114771D01*
X209327711Y-94279687D01*
X209324567Y-94293462D01*
X209248032Y-94559120D01*
X209243365Y-94572457D01*
X209186363Y-94710074D01*
X209177284Y-94731993D01*
X209137569Y-94827873D01*
X209131440Y-94840600D01*
X208997706Y-95082573D01*
X208990199Y-95094521D01*
X208830204Y-95320013D01*
X208821406Y-95331045D01*
X208676043Y-95493706D01*
X208637182Y-95537191D01*
X208627192Y-95547181D01*
X208421045Y-95731406D01*
X208410013Y-95740204D01*
X208184521Y-95900199D01*
X208172573Y-95907706D01*
X207930600Y-96041440D01*
X207917877Y-96047567D01*
X207834476Y-96082113D01*
X207662457Y-96153365D01*
X207649120Y-96158032D01*
X207383462Y-96234567D01*
X207369687Y-96237711D01*
X207233410Y-96260865D01*
X207097127Y-96284021D01*
X207083095Y-96285602D01*
X207003494Y-96290072D01*
X206842407Y-96299118D01*
X206815962Y-96297817D01*
X206815149Y-96297690D01*
X206815145Y-96297690D01*
X206806276Y-96296309D01*
X206797374Y-96297473D01*
X206797372Y-96297473D01*
X206782323Y-96299441D01*
X206774714Y-96300436D01*
X206758379Y-96301500D01*
X202464260Y-96301500D01*
X202396139Y-96281498D01*
X202349646Y-96227842D01*
X202339542Y-96157568D01*
X202356256Y-96110607D01*
X202358313Y-96107183D01*
X202452670Y-95916267D01*
X202456469Y-95906672D01*
X202518377Y-95702910D01*
X202520555Y-95692837D01*
X202521986Y-95681962D01*
X202519775Y-95667778D01*
X202506617Y-95664000D01*
X201060000Y-95664000D01*
X200991879Y-95643998D01*
X200945386Y-95590342D01*
X200934000Y-95538000D01*
X200934000Y-95282000D01*
X200954002Y-95213879D01*
X201007658Y-95167386D01*
X201060000Y-95156000D01*
X202506344Y-95156000D01*
X202519875Y-95152027D01*
X202521180Y-95142947D01*
X202479214Y-94975875D01*
X202475894Y-94966124D01*
X202390972Y-94770814D01*
X202386105Y-94761739D01*
X202270426Y-94582926D01*
X202264136Y-94574757D01*
X202120806Y-94417240D01*
X202113273Y-94410215D01*
X201946139Y-94278222D01*
X201937556Y-94272520D01*
X201900602Y-94252120D01*
X201850631Y-94201687D01*
X201835859Y-94132245D01*
X201860975Y-94065839D01*
X201888327Y-94039232D01*
X201943110Y-94000156D01*
X202067860Y-93911173D01*
X202080576Y-93898502D01*
X202222167Y-93757404D01*
X204536941Y-93757404D01*
X204537304Y-93761552D01*
X204537304Y-93761556D01*
X204550657Y-93914171D01*
X204563091Y-94056292D01*
X204564001Y-94060364D01*
X204564002Y-94060369D01*
X204620538Y-94313295D01*
X204628540Y-94349095D01*
X204732140Y-94630671D01*
X204734084Y-94634359D01*
X204734088Y-94634367D01*
X204870116Y-94892367D01*
X204872069Y-94896071D01*
X205045871Y-95140633D01*
X205250490Y-95360061D01*
X205482333Y-95550498D01*
X205737325Y-95708600D01*
X206010988Y-95831589D01*
X206185368Y-95883574D01*
X206294514Y-95916112D01*
X206294516Y-95916112D01*
X206298513Y-95917304D01*
X206302633Y-95917957D01*
X206302635Y-95917957D01*
X206421509Y-95936785D01*
X206594848Y-95964239D01*
X206637577Y-95966179D01*
X206687262Y-95968436D01*
X206687281Y-95968436D01*
X206688681Y-95968500D01*
X206876107Y-95968500D01*
X207099370Y-95953671D01*
X207103464Y-95952846D01*
X207103468Y-95952845D01*
X207244513Y-95924405D01*
X207393480Y-95894368D01*
X207677163Y-95796688D01*
X207680896Y-95794819D01*
X207680900Y-95794817D01*
X207941691Y-95664222D01*
X207941693Y-95664221D01*
X207945435Y-95662347D01*
X208128407Y-95538000D01*
X208190125Y-95496057D01*
X208190128Y-95496055D01*
X208193584Y-95493706D01*
X208417248Y-95293726D01*
X208419966Y-95290555D01*
X208609779Y-95069097D01*
X208609782Y-95069093D01*
X208612499Y-95065923D01*
X208614773Y-95062421D01*
X208614777Y-95062416D01*
X208773628Y-94817807D01*
X208773631Y-94817802D01*
X208775907Y-94814297D01*
X208904600Y-94543270D01*
X208915124Y-94510494D01*
X208995038Y-94261591D01*
X208995038Y-94261590D01*
X208996318Y-94257604D01*
X209022017Y-94114771D01*
X209048709Y-93966425D01*
X209048710Y-93966420D01*
X209049448Y-93962316D01*
X209050967Y-93928880D01*
X209062870Y-93666766D01*
X209062870Y-93666760D01*
X209063059Y-93662596D01*
X209055140Y-93572077D01*
X209037273Y-93367870D01*
X209036909Y-93363708D01*
X209017671Y-93277639D01*
X208972372Y-93074984D01*
X208972371Y-93074981D01*
X208971460Y-93070905D01*
X208965442Y-93054547D01*
X208869302Y-92793249D01*
X208867860Y-92789329D01*
X208865916Y-92785641D01*
X208865912Y-92785633D01*
X208729884Y-92527633D01*
X208729883Y-92527632D01*
X208727931Y-92523929D01*
X208554129Y-92279367D01*
X208349510Y-92059939D01*
X208117667Y-91869502D01*
X207862675Y-91711400D01*
X207589012Y-91588411D01*
X207375650Y-91524805D01*
X207305486Y-91503888D01*
X207305484Y-91503888D01*
X207301487Y-91502696D01*
X207297367Y-91502043D01*
X207297365Y-91502043D01*
X207174208Y-91482537D01*
X207005152Y-91455761D01*
X206962423Y-91453821D01*
X206912738Y-91451564D01*
X206912719Y-91451564D01*
X206911319Y-91451500D01*
X206723893Y-91451500D01*
X206500630Y-91466329D01*
X206496536Y-91467154D01*
X206496532Y-91467155D01*
X206355487Y-91495595D01*
X206206520Y-91525632D01*
X205922837Y-91623312D01*
X205919104Y-91625181D01*
X205919100Y-91625183D01*
X205658309Y-91755778D01*
X205654565Y-91757653D01*
X205651100Y-91760008D01*
X205429012Y-91910938D01*
X205406416Y-91926294D01*
X205182752Y-92126274D01*
X205180035Y-92129444D01*
X205180034Y-92129445D01*
X205054155Y-92276311D01*
X204987501Y-92354077D01*
X204985227Y-92357579D01*
X204985223Y-92357584D01*
X204874792Y-92527633D01*
X204824093Y-92605703D01*
X204822299Y-92609482D01*
X204822298Y-92609483D01*
X204804312Y-92647361D01*
X204695400Y-92876730D01*
X204694121Y-92880713D01*
X204694120Y-92880716D01*
X204635027Y-93064767D01*
X204603682Y-93162396D01*
X204602941Y-93166515D01*
X204565168Y-93376453D01*
X204550552Y-93457684D01*
X204550363Y-93461851D01*
X204550362Y-93461858D01*
X204537639Y-93742031D01*
X204536941Y-93757404D01*
X202222167Y-93757404D01*
X202222435Y-93757137D01*
X202226096Y-93753489D01*
X202234330Y-93742031D01*
X202353435Y-93576277D01*
X202356453Y-93572077D01*
X202369995Y-93544678D01*
X202453136Y-93376453D01*
X202453137Y-93376451D01*
X202455430Y-93371811D01*
X202520370Y-93158069D01*
X202549529Y-92936590D01*
X202551156Y-92870000D01*
X202532852Y-92647361D01*
X202478431Y-92430702D01*
X202389354Y-92225840D01*
X202271022Y-92042926D01*
X202270822Y-92042617D01*
X202270820Y-92042614D01*
X202268014Y-92038277D01*
X202117670Y-91873051D01*
X202113619Y-91869852D01*
X202113615Y-91869848D01*
X201946414Y-91737800D01*
X201946410Y-91737798D01*
X201942359Y-91734598D01*
X201906028Y-91714542D01*
X201821988Y-91668150D01*
X201746789Y-91626638D01*
X201741920Y-91624914D01*
X201741916Y-91624912D01*
X201541087Y-91553795D01*
X201541083Y-91553794D01*
X201536212Y-91552069D01*
X201531119Y-91551162D01*
X201531116Y-91551161D01*
X201321373Y-91513800D01*
X201321367Y-91513799D01*
X201316284Y-91512894D01*
X201242452Y-91511992D01*
X201098081Y-91510228D01*
X201098079Y-91510228D01*
X201092911Y-91510165D01*
X200872091Y-91543955D01*
X200659756Y-91613357D01*
X200461607Y-91716507D01*
X200457474Y-91719610D01*
X200457471Y-91719612D01*
X200304612Y-91834382D01*
X200282965Y-91850635D01*
X200279393Y-91854373D01*
X200210664Y-91926294D01*
X200128629Y-92012138D01*
X200021201Y-92169621D01*
X199966293Y-92214621D01*
X199895768Y-92222792D01*
X199832021Y-92191538D01*
X199811324Y-92167054D01*
X199730822Y-92042617D01*
X199730820Y-92042614D01*
X199728014Y-92038277D01*
X199577670Y-91873051D01*
X199573619Y-91869852D01*
X199573615Y-91869848D01*
X199406414Y-91737800D01*
X199406410Y-91737798D01*
X199402359Y-91734598D01*
X199366028Y-91714542D01*
X199281988Y-91668150D01*
X199206789Y-91626638D01*
X199201920Y-91624914D01*
X199201916Y-91624912D01*
X199001087Y-91553795D01*
X199001083Y-91553794D01*
X198996212Y-91552069D01*
X198991119Y-91551162D01*
X198991116Y-91551161D01*
X198781373Y-91513800D01*
X198781367Y-91513799D01*
X198776284Y-91512894D01*
X198702452Y-91511992D01*
X198558081Y-91510228D01*
X198558079Y-91510228D01*
X198552911Y-91510165D01*
X198332091Y-91543955D01*
X198119756Y-91613357D01*
X197921607Y-91716507D01*
X197917474Y-91719610D01*
X197917471Y-91719612D01*
X197764612Y-91834382D01*
X197742965Y-91850635D01*
X197739393Y-91854373D01*
X197670664Y-91926294D01*
X197588629Y-92012138D01*
X197481201Y-92169621D01*
X197426293Y-92214621D01*
X197355768Y-92222792D01*
X197292021Y-92191538D01*
X197271324Y-92167054D01*
X197190822Y-92042617D01*
X197190820Y-92042614D01*
X197188014Y-92038277D01*
X197037670Y-91873051D01*
X197033619Y-91869852D01*
X197033615Y-91869848D01*
X196866414Y-91737800D01*
X196866410Y-91737798D01*
X196862359Y-91734598D01*
X196826028Y-91714542D01*
X196741988Y-91668150D01*
X196666789Y-91626638D01*
X196661920Y-91624914D01*
X196661916Y-91624912D01*
X196461087Y-91553795D01*
X196461083Y-91553794D01*
X196456212Y-91552069D01*
X196451119Y-91551162D01*
X196451116Y-91551161D01*
X196241373Y-91513800D01*
X196241367Y-91513799D01*
X196236284Y-91512894D01*
X196162452Y-91511992D01*
X196018081Y-91510228D01*
X196018079Y-91510228D01*
X196012911Y-91510165D01*
X195792091Y-91543955D01*
X195779532Y-91548060D01*
X195708568Y-91550210D01*
X195651294Y-91517389D01*
X191904405Y-87770500D01*
X191870379Y-87708188D01*
X191867500Y-87681405D01*
X191867500Y-79594924D01*
X191887502Y-79526803D01*
X191899858Y-79510621D01*
X191973040Y-79429344D01*
X192068527Y-79263956D01*
X192127542Y-79082328D01*
X192147504Y-78892400D01*
X192127542Y-78702472D01*
X192068527Y-78520844D01*
X191973040Y-78355456D01*
X191934678Y-78312850D01*
X191849675Y-78218445D01*
X191849671Y-78218441D01*
X191845253Y-78213534D01*
X191690752Y-78101282D01*
X191684724Y-78098598D01*
X191684722Y-78098597D01*
X191522319Y-78026291D01*
X191522318Y-78026291D01*
X191516288Y-78023606D01*
X191422887Y-78003753D01*
X191335944Y-77985272D01*
X191335939Y-77985272D01*
X191329487Y-77983900D01*
X191138513Y-77983900D01*
X191132061Y-77985272D01*
X191132056Y-77985272D01*
X191045113Y-78003753D01*
X190951712Y-78023606D01*
X190945682Y-78026291D01*
X190945681Y-78026291D01*
X190783278Y-78098597D01*
X190783276Y-78098598D01*
X190777248Y-78101282D01*
X190622747Y-78213534D01*
X190565635Y-78276964D01*
X190505190Y-78314202D01*
X190434206Y-78312850D01*
X190378366Y-78276964D01*
X190321253Y-78213534D01*
X190166752Y-78101282D01*
X190160724Y-78098598D01*
X190160722Y-78098597D01*
X189998319Y-78026291D01*
X189998318Y-78026291D01*
X189992288Y-78023606D01*
X189898887Y-78003753D01*
X189811944Y-77985272D01*
X189811939Y-77985272D01*
X189805487Y-77983900D01*
X189614513Y-77983900D01*
X189608061Y-77985272D01*
X189608056Y-77985272D01*
X189521113Y-78003753D01*
X189427712Y-78023606D01*
X189421682Y-78026291D01*
X189421681Y-78026291D01*
X189259278Y-78098597D01*
X189259276Y-78098598D01*
X189253248Y-78101282D01*
X189149060Y-78176979D01*
X189082194Y-78200837D01*
X189013042Y-78184757D01*
X189000944Y-78176982D01*
X188896752Y-78101282D01*
X188890724Y-78098598D01*
X188890722Y-78098597D01*
X188728319Y-78026291D01*
X188728318Y-78026291D01*
X188722288Y-78023606D01*
X188628887Y-78003753D01*
X188541944Y-77985272D01*
X188541939Y-77985272D01*
X188535487Y-77983900D01*
X188344513Y-77983900D01*
X188338061Y-77985272D01*
X188338056Y-77985272D01*
X188251113Y-78003753D01*
X188157712Y-78023606D01*
X188151682Y-78026291D01*
X188151681Y-78026291D01*
X187989278Y-78098597D01*
X187989276Y-78098598D01*
X187983248Y-78101282D01*
X187828747Y-78213534D01*
X187824329Y-78218441D01*
X187824325Y-78218445D01*
X187739323Y-78312850D01*
X187700960Y-78355456D01*
X187605473Y-78520844D01*
X187546458Y-78702472D01*
X187526496Y-78892400D01*
X187546458Y-79082328D01*
X187605473Y-79263956D01*
X187700960Y-79429344D01*
X187705375Y-79434247D01*
X187705379Y-79434252D01*
X187822136Y-79563924D01*
X187852854Y-79627931D01*
X187854500Y-79648234D01*
X187854500Y-91591692D01*
X187834498Y-91659813D01*
X187786683Y-91703453D01*
X187761607Y-91716507D01*
X187757474Y-91719610D01*
X187757471Y-91719612D01*
X187604612Y-91834382D01*
X187582965Y-91850635D01*
X187579393Y-91854373D01*
X187510664Y-91926294D01*
X187428629Y-92012138D01*
X187321201Y-92169621D01*
X187266293Y-92214621D01*
X187195768Y-92222792D01*
X187132021Y-92191538D01*
X187111324Y-92167054D01*
X187030822Y-92042617D01*
X187030820Y-92042614D01*
X187028014Y-92038277D01*
X186877670Y-91873051D01*
X186873619Y-91869852D01*
X186873615Y-91869848D01*
X186706414Y-91737800D01*
X186706410Y-91737798D01*
X186702359Y-91734598D01*
X186666028Y-91714542D01*
X186581988Y-91668150D01*
X186506789Y-91626638D01*
X186501920Y-91624914D01*
X186501916Y-91624912D01*
X186301087Y-91553795D01*
X186301083Y-91553794D01*
X186296212Y-91552069D01*
X186291119Y-91551162D01*
X186291116Y-91551161D01*
X186081373Y-91513800D01*
X186081367Y-91513799D01*
X186076284Y-91512894D01*
X186002452Y-91511992D01*
X185858081Y-91510228D01*
X185858079Y-91510228D01*
X185852911Y-91510165D01*
X185632091Y-91543955D01*
X185419756Y-91613357D01*
X185221607Y-91716507D01*
X185217474Y-91719610D01*
X185217471Y-91719612D01*
X185064612Y-91834382D01*
X185042965Y-91850635D01*
X185039393Y-91854373D01*
X184970664Y-91926294D01*
X184888629Y-92012138D01*
X184781201Y-92169621D01*
X184726293Y-92214621D01*
X184655768Y-92222792D01*
X184592021Y-92191538D01*
X184571324Y-92167054D01*
X184490822Y-92042617D01*
X184490820Y-92042614D01*
X184488014Y-92038277D01*
X184337670Y-91873051D01*
X184333619Y-91869852D01*
X184333615Y-91869848D01*
X184166414Y-91737800D01*
X184166410Y-91737798D01*
X184162359Y-91734598D01*
X184126028Y-91714542D01*
X184076314Y-91687099D01*
X184026343Y-91636666D01*
X184011571Y-91567224D01*
X184036687Y-91500818D01*
X184093718Y-91458533D01*
X184111010Y-91453544D01*
X184143822Y-91446569D01*
X184143827Y-91446567D01*
X184150288Y-91445194D01*
X184156319Y-91442509D01*
X184318722Y-91370203D01*
X184318724Y-91370202D01*
X184324752Y-91367518D01*
X184350228Y-91349009D01*
X184432003Y-91289595D01*
X184479253Y-91255266D01*
X184607040Y-91113344D01*
X184702527Y-90947956D01*
X184761542Y-90766328D01*
X184781504Y-90576400D01*
X184761542Y-90386472D01*
X184702527Y-90204844D01*
X184607040Y-90039456D01*
X184479253Y-89897534D01*
X184324752Y-89785282D01*
X184318724Y-89782598D01*
X184318722Y-89782597D01*
X184156319Y-89710291D01*
X184156318Y-89710291D01*
X184150288Y-89707606D01*
X184056887Y-89687753D01*
X183969944Y-89669272D01*
X183969939Y-89669272D01*
X183963487Y-89667900D01*
X183907594Y-89667900D01*
X183839473Y-89647898D01*
X183818499Y-89630995D01*
X182783122Y-88595617D01*
X182749096Y-88533305D01*
X182746907Y-88519692D01*
X182741610Y-88469288D01*
X182729542Y-88354472D01*
X182670527Y-88172844D01*
X182664365Y-88162170D01*
X182593746Y-88039856D01*
X182575040Y-88007456D01*
X182517757Y-87943836D01*
X182451675Y-87870445D01*
X182451674Y-87870444D01*
X182447253Y-87865534D01*
X182348157Y-87793536D01*
X182298094Y-87757163D01*
X182298093Y-87757162D01*
X182292752Y-87753282D01*
X182286724Y-87750598D01*
X182286722Y-87750597D01*
X182124319Y-87678291D01*
X182124318Y-87678291D01*
X182118288Y-87675606D01*
X182024888Y-87655753D01*
X181937944Y-87637272D01*
X181937939Y-87637272D01*
X181931487Y-87635900D01*
X181740513Y-87635900D01*
X181734061Y-87637272D01*
X181734056Y-87637272D01*
X181647112Y-87655753D01*
X181553712Y-87675606D01*
X181547682Y-87678291D01*
X181547681Y-87678291D01*
X181385278Y-87750597D01*
X181385276Y-87750598D01*
X181379248Y-87753282D01*
X181373907Y-87757162D01*
X181373906Y-87757163D01*
X181323843Y-87793536D01*
X181224747Y-87865534D01*
X181220326Y-87870444D01*
X181220325Y-87870445D01*
X181154244Y-87943836D01*
X181096960Y-88007456D01*
X181078254Y-88039856D01*
X181007636Y-88162170D01*
X181001473Y-88172844D01*
X180942458Y-88354472D01*
X180922496Y-88544400D01*
X180942458Y-88734328D01*
X181001473Y-88915956D01*
X181096960Y-89081344D01*
X181224747Y-89223266D01*
X181379248Y-89335518D01*
X181385276Y-89338202D01*
X181385278Y-89338203D01*
X181547681Y-89410509D01*
X181553712Y-89413194D01*
X181647113Y-89433047D01*
X181734056Y-89451528D01*
X181734061Y-89451528D01*
X181740513Y-89452900D01*
X181796406Y-89452900D01*
X181864527Y-89472902D01*
X181885501Y-89489805D01*
X182920878Y-90525183D01*
X182954904Y-90587495D01*
X182957093Y-90601106D01*
X182974458Y-90766328D01*
X183033473Y-90947956D01*
X183128960Y-91113344D01*
X183256747Y-91255266D01*
X183269027Y-91264188D01*
X183308390Y-91292787D01*
X183351744Y-91349009D01*
X183357819Y-91419746D01*
X183324687Y-91482537D01*
X183262867Y-91517449D01*
X183253388Y-91519273D01*
X183211833Y-91525632D01*
X183092091Y-91543955D01*
X182879756Y-91613357D01*
X182681607Y-91716507D01*
X182677474Y-91719610D01*
X182677471Y-91719612D01*
X182524612Y-91834382D01*
X182502965Y-91850635D01*
X182499393Y-91854373D01*
X182430664Y-91926294D01*
X182348629Y-92012138D01*
X182241201Y-92169621D01*
X182186293Y-92214621D01*
X182115768Y-92222792D01*
X182052021Y-92191538D01*
X182031324Y-92167054D01*
X181950822Y-92042617D01*
X181950820Y-92042614D01*
X181948014Y-92038277D01*
X181797670Y-91873051D01*
X181793619Y-91869852D01*
X181793615Y-91869848D01*
X181626414Y-91737800D01*
X181626410Y-91737798D01*
X181622359Y-91734598D01*
X181586028Y-91714542D01*
X181501988Y-91668150D01*
X181426789Y-91626638D01*
X181421920Y-91624914D01*
X181421916Y-91624912D01*
X181221087Y-91553795D01*
X181221083Y-91553794D01*
X181216212Y-91552069D01*
X181211119Y-91551162D01*
X181211116Y-91551161D01*
X181001373Y-91513800D01*
X181001367Y-91513799D01*
X180996284Y-91512894D01*
X180922452Y-91511992D01*
X180778081Y-91510228D01*
X180778079Y-91510228D01*
X180772911Y-91510165D01*
X180552091Y-91543955D01*
X180339756Y-91613357D01*
X180141607Y-91716507D01*
X180137474Y-91719610D01*
X180137471Y-91719612D01*
X179984612Y-91834382D01*
X179962965Y-91850635D01*
X179959393Y-91854373D01*
X179890664Y-91926294D01*
X179808629Y-92012138D01*
X179701201Y-92169621D01*
X179646293Y-92214621D01*
X179575768Y-92222792D01*
X179512021Y-92191538D01*
X179491324Y-92167054D01*
X179410822Y-92042617D01*
X179410820Y-92042614D01*
X179408014Y-92038277D01*
X179257670Y-91873051D01*
X179253619Y-91869852D01*
X179253615Y-91869848D01*
X179086414Y-91737800D01*
X179086410Y-91737798D01*
X179082359Y-91734598D01*
X179046028Y-91714542D01*
X178961988Y-91668150D01*
X178886789Y-91626638D01*
X178881920Y-91624914D01*
X178881916Y-91624912D01*
X178681087Y-91553795D01*
X178681083Y-91553794D01*
X178676212Y-91552069D01*
X178671119Y-91551162D01*
X178671116Y-91551161D01*
X178461373Y-91513800D01*
X178461367Y-91513799D01*
X178456284Y-91512894D01*
X178382452Y-91511992D01*
X178238081Y-91510228D01*
X178238079Y-91510228D01*
X178232911Y-91510165D01*
X178012091Y-91543955D01*
X177799756Y-91613357D01*
X177601607Y-91716507D01*
X177597474Y-91719610D01*
X177597471Y-91719612D01*
X177444612Y-91834382D01*
X177422965Y-91850635D01*
X177419393Y-91854373D01*
X177350664Y-91926294D01*
X177268629Y-92012138D01*
X177161204Y-92169618D01*
X177160898Y-92170066D01*
X177105987Y-92215069D01*
X177035462Y-92223240D01*
X176971715Y-92191986D01*
X176951018Y-92167502D01*
X176870426Y-92042926D01*
X176864136Y-92034757D01*
X176720806Y-91877240D01*
X176713273Y-91870215D01*
X176546139Y-91738222D01*
X176537552Y-91732517D01*
X176351117Y-91629599D01*
X176341705Y-91625369D01*
X176140959Y-91554280D01*
X176130988Y-91551646D01*
X176059837Y-91538972D01*
X176046540Y-91540432D01*
X176042000Y-91554989D01*
X176042000Y-92998000D01*
X176021998Y-93066121D01*
X175968342Y-93112614D01*
X175916000Y-93124000D01*
X175660000Y-93124000D01*
X175591879Y-93103998D01*
X175545386Y-93050342D01*
X175534000Y-92998000D01*
X175534000Y-91553102D01*
X175530082Y-91539758D01*
X175515806Y-91537771D01*
X175477324Y-91543660D01*
X175467288Y-91546051D01*
X175264868Y-91612212D01*
X175255359Y-91616209D01*
X175066463Y-91714542D01*
X175057738Y-91720036D01*
X174887433Y-91847905D01*
X174879726Y-91854748D01*
X174732590Y-92008717D01*
X174726109Y-92016722D01*
X174621498Y-92170074D01*
X174566587Y-92215076D01*
X174496062Y-92223247D01*
X174432315Y-92191993D01*
X174411618Y-92167509D01*
X174340314Y-92057290D01*
X174328014Y-92038277D01*
X174324532Y-92034450D01*
X174289306Y-91995737D01*
X174258254Y-91931891D01*
X174256500Y-91910938D01*
X174256500Y-67318250D01*
X174257237Y-67304642D01*
X174260659Y-67273139D01*
X174261325Y-67267012D01*
X174256947Y-67216970D01*
X174256621Y-67212188D01*
X174256500Y-67209710D01*
X174256500Y-67206631D01*
X174256201Y-67203577D01*
X174256200Y-67203566D01*
X174252313Y-67163929D01*
X174252191Y-67162615D01*
X174249083Y-67127088D01*
X174244087Y-67069987D01*
X174242600Y-67064868D01*
X174242080Y-67059567D01*
X174215209Y-66970566D01*
X174214874Y-66969433D01*
X174190630Y-66885986D01*
X174190628Y-66885982D01*
X174188909Y-66880064D01*
X174186456Y-66875332D01*
X174184916Y-66870231D01*
X174141269Y-66788140D01*
X174140657Y-66786974D01*
X174100729Y-66709947D01*
X174097892Y-66704474D01*
X174094569Y-66700311D01*
X174092066Y-66695604D01*
X174033261Y-66623502D01*
X174032433Y-66622475D01*
X174003469Y-66586192D01*
X174003464Y-66586187D01*
X174001262Y-66583428D01*
X173998761Y-66580927D01*
X173998119Y-66580209D01*
X173994406Y-66575861D01*
X173986642Y-66566341D01*
X173967065Y-66542338D01*
X173962323Y-66538415D01*
X173962321Y-66538413D01*
X173931727Y-66513103D01*
X173922947Y-66505113D01*
X173369925Y-65952091D01*
X173255739Y-65858297D01*
X173081437Y-65764838D01*
X172972781Y-65731618D01*
X172898200Y-65708816D01*
X172898198Y-65708816D01*
X172892302Y-65707013D01*
X172834449Y-65701136D01*
X172701666Y-65687648D01*
X172701661Y-65687648D01*
X172695538Y-65687026D01*
X172571475Y-65698754D01*
X172504771Y-65705059D01*
X172504769Y-65705059D01*
X172498638Y-65705639D01*
X172403871Y-65733890D01*
X172315007Y-65760381D01*
X172315005Y-65760382D01*
X172309104Y-65762141D01*
X172134154Y-65854382D01*
X171980453Y-65978847D01*
X171853854Y-66130796D01*
X171759178Y-66304441D01*
X171700035Y-66493168D01*
X171699370Y-66499291D01*
X171699369Y-66499295D01*
X171679341Y-66683663D01*
X171678676Y-66689788D01*
X171695913Y-66886813D01*
X171697632Y-66892730D01*
X171697633Y-66892735D01*
X171720283Y-66970696D01*
X171751091Y-67076736D01*
X171842108Y-67252326D01*
X171845948Y-67257136D01*
X171936542Y-67370623D01*
X171936549Y-67370630D01*
X171938738Y-67373373D01*
X172202595Y-67637230D01*
X172236621Y-67699542D01*
X172239500Y-67726325D01*
X172239500Y-91735500D01*
X172219498Y-91803621D01*
X172165842Y-91850114D01*
X172113500Y-91861500D01*
X171666799Y-91861500D01*
X171598678Y-91841498D01*
X171588707Y-91834382D01*
X171466414Y-91737800D01*
X171466410Y-91737798D01*
X171462359Y-91734598D01*
X171426028Y-91714542D01*
X171341988Y-91668150D01*
X171266789Y-91626638D01*
X171261920Y-91624914D01*
X171261916Y-91624912D01*
X171061087Y-91553795D01*
X171061083Y-91553794D01*
X171056212Y-91552069D01*
X171051119Y-91551162D01*
X171051116Y-91551161D01*
X170841373Y-91513800D01*
X170841367Y-91513799D01*
X170836284Y-91512894D01*
X170762452Y-91511992D01*
X170618081Y-91510228D01*
X170618079Y-91510228D01*
X170612911Y-91510165D01*
X170392091Y-91543955D01*
X170179756Y-91613357D01*
X169981607Y-91716507D01*
X169977474Y-91719610D01*
X169977471Y-91719612D01*
X169824612Y-91834382D01*
X169802965Y-91850635D01*
X169799393Y-91854373D01*
X169730664Y-91926294D01*
X169648629Y-92012138D01*
X169645720Y-92016403D01*
X169645714Y-92016411D01*
X169570771Y-92126274D01*
X169522743Y-92196680D01*
X169428688Y-92399305D01*
X169368989Y-92614570D01*
X169345251Y-92836695D01*
X169345548Y-92841848D01*
X169345548Y-92841851D01*
X169351011Y-92936590D01*
X169358110Y-93059715D01*
X169359247Y-93064761D01*
X169359248Y-93064767D01*
X169370031Y-93112614D01*
X169407222Y-93277639D01*
X169491266Y-93484616D01*
X169542019Y-93567438D01*
X169605291Y-93670688D01*
X169607987Y-93675088D01*
X169611367Y-93678990D01*
X169614300Y-93682376D01*
X169754250Y-93843938D01*
X169758230Y-93847242D01*
X169762981Y-93851187D01*
X169802616Y-93910090D01*
X169804113Y-93981071D01*
X169766997Y-94041593D01*
X169726725Y-94066112D01*
X169685913Y-94081412D01*
X169611295Y-94109385D01*
X169494739Y-94196739D01*
X169407385Y-94313295D01*
X169356255Y-94449684D01*
X169349500Y-94511866D01*
X169349500Y-96175500D01*
X169329498Y-96243621D01*
X169275842Y-96290114D01*
X169223500Y-96301500D01*
X165049367Y-96301500D01*
X165029982Y-96300000D01*
X165015149Y-96297690D01*
X165015145Y-96297690D01*
X165006276Y-96296309D01*
X164988280Y-96298662D01*
X164964884Y-96299528D01*
X164716905Y-96285602D01*
X164702873Y-96284021D01*
X164566590Y-96260865D01*
X164430313Y-96237711D01*
X164416538Y-96234567D01*
X164150880Y-96158032D01*
X164137543Y-96153365D01*
X163965524Y-96082113D01*
X163882123Y-96047567D01*
X163869400Y-96041440D01*
X163627427Y-95907706D01*
X163615479Y-95900199D01*
X163389987Y-95740204D01*
X163378955Y-95731406D01*
X163172808Y-95547181D01*
X163162818Y-95537191D01*
X163123957Y-95493706D01*
X162978594Y-95331045D01*
X162969796Y-95320013D01*
X162809801Y-95094521D01*
X162802294Y-95082573D01*
X162668560Y-94840600D01*
X162662431Y-94827873D01*
X162622717Y-94731993D01*
X162613637Y-94710074D01*
X162556635Y-94572457D01*
X162551968Y-94559120D01*
X162475433Y-94293462D01*
X162472289Y-94279687D01*
X162444269Y-94114771D01*
X162425979Y-94007127D01*
X162424398Y-93993091D01*
X162424036Y-93986632D01*
X162411162Y-93757404D01*
X162736941Y-93757404D01*
X162737304Y-93761552D01*
X162737304Y-93761556D01*
X162750657Y-93914171D01*
X162763091Y-94056292D01*
X162764001Y-94060364D01*
X162764002Y-94060369D01*
X162820538Y-94313295D01*
X162828540Y-94349095D01*
X162932140Y-94630671D01*
X162934084Y-94634359D01*
X162934088Y-94634367D01*
X163070116Y-94892367D01*
X163072069Y-94896071D01*
X163245871Y-95140633D01*
X163450490Y-95360061D01*
X163682333Y-95550498D01*
X163937325Y-95708600D01*
X164210988Y-95831589D01*
X164385368Y-95883574D01*
X164494514Y-95916112D01*
X164494516Y-95916112D01*
X164498513Y-95917304D01*
X164502633Y-95917957D01*
X164502635Y-95917957D01*
X164621509Y-95936785D01*
X164794848Y-95964239D01*
X164837577Y-95966179D01*
X164887262Y-95968436D01*
X164887281Y-95968436D01*
X164888681Y-95968500D01*
X165076107Y-95968500D01*
X165299370Y-95953671D01*
X165303464Y-95952846D01*
X165303468Y-95952845D01*
X165444513Y-95924405D01*
X165593480Y-95894368D01*
X165877163Y-95796688D01*
X165880896Y-95794819D01*
X165880900Y-95794817D01*
X166141691Y-95664222D01*
X166141693Y-95664221D01*
X166145435Y-95662347D01*
X166328407Y-95538000D01*
X166390125Y-95496057D01*
X166390128Y-95496055D01*
X166393584Y-95493706D01*
X166617248Y-95293726D01*
X166619966Y-95290555D01*
X166809779Y-95069097D01*
X166809782Y-95069093D01*
X166812499Y-95065923D01*
X166814773Y-95062421D01*
X166814777Y-95062416D01*
X166973628Y-94817807D01*
X166973631Y-94817802D01*
X166975907Y-94814297D01*
X167104600Y-94543270D01*
X167115124Y-94510494D01*
X167195038Y-94261591D01*
X167195038Y-94261590D01*
X167196318Y-94257604D01*
X167222017Y-94114771D01*
X167248709Y-93966425D01*
X167248710Y-93966420D01*
X167249448Y-93962316D01*
X167250967Y-93928880D01*
X167262870Y-93666766D01*
X167262870Y-93666760D01*
X167263059Y-93662596D01*
X167255140Y-93572077D01*
X167237273Y-93367870D01*
X167236909Y-93363708D01*
X167217671Y-93277639D01*
X167172372Y-93074984D01*
X167172371Y-93074981D01*
X167171460Y-93070905D01*
X167165442Y-93054547D01*
X167069302Y-92793249D01*
X167067860Y-92789329D01*
X167065916Y-92785641D01*
X167065912Y-92785633D01*
X166929884Y-92527633D01*
X166929883Y-92527632D01*
X166927931Y-92523929D01*
X166754129Y-92279367D01*
X166549510Y-92059939D01*
X166317667Y-91869502D01*
X166062675Y-91711400D01*
X165789012Y-91588411D01*
X165575650Y-91524805D01*
X165505486Y-91503888D01*
X165505484Y-91503888D01*
X165501487Y-91502696D01*
X165497367Y-91502043D01*
X165497365Y-91502043D01*
X165374208Y-91482537D01*
X165205152Y-91455761D01*
X165162423Y-91453821D01*
X165112738Y-91451564D01*
X165112719Y-91451564D01*
X165111319Y-91451500D01*
X164923893Y-91451500D01*
X164700630Y-91466329D01*
X164696536Y-91467154D01*
X164696532Y-91467155D01*
X164555487Y-91495595D01*
X164406520Y-91525632D01*
X164122837Y-91623312D01*
X164119104Y-91625181D01*
X164119100Y-91625183D01*
X163858309Y-91755778D01*
X163854565Y-91757653D01*
X163851100Y-91760008D01*
X163629012Y-91910938D01*
X163606416Y-91926294D01*
X163382752Y-92126274D01*
X163380035Y-92129444D01*
X163380034Y-92129445D01*
X163254155Y-92276311D01*
X163187501Y-92354077D01*
X163185227Y-92357579D01*
X163185223Y-92357584D01*
X163074792Y-92527633D01*
X163024093Y-92605703D01*
X163022299Y-92609482D01*
X163022298Y-92609483D01*
X163004312Y-92647361D01*
X162895400Y-92876730D01*
X162894121Y-92880713D01*
X162894120Y-92880716D01*
X162835027Y-93064767D01*
X162803682Y-93162396D01*
X162802941Y-93166515D01*
X162765168Y-93376453D01*
X162750552Y-93457684D01*
X162750363Y-93461851D01*
X162750362Y-93461858D01*
X162737639Y-93742031D01*
X162736941Y-93757404D01*
X162411162Y-93757404D01*
X162411089Y-93756100D01*
X162412412Y-93732208D01*
X162412334Y-93732201D01*
X162412539Y-93729916D01*
X162412638Y-93728127D01*
X162412769Y-93727346D01*
X162413576Y-93722552D01*
X162413729Y-93710000D01*
X162409773Y-93682376D01*
X162408500Y-93664514D01*
X162408500Y-53963250D01*
X162408988Y-53957404D01*
X162736941Y-53957404D01*
X162763091Y-54256292D01*
X162764001Y-54260364D01*
X162764002Y-54260369D01*
X162827628Y-54545016D01*
X162828540Y-54549095D01*
X162932140Y-54830671D01*
X162934084Y-54834359D01*
X162934088Y-54834367D01*
X163030805Y-55017807D01*
X163072069Y-55096071D01*
X163245871Y-55340633D01*
X163450490Y-55560061D01*
X163682333Y-55750498D01*
X163937325Y-55908600D01*
X164210988Y-56031589D01*
X164385368Y-56083574D01*
X164494514Y-56116112D01*
X164494516Y-56116112D01*
X164498513Y-56117304D01*
X164502633Y-56117957D01*
X164502635Y-56117957D01*
X164621509Y-56136785D01*
X164794848Y-56164239D01*
X164837577Y-56166179D01*
X164887262Y-56168436D01*
X164887281Y-56168436D01*
X164888681Y-56168500D01*
X165076107Y-56168500D01*
X165299370Y-56153671D01*
X165303464Y-56152846D01*
X165303468Y-56152845D01*
X165444513Y-56124405D01*
X165593480Y-56094368D01*
X165877163Y-55996688D01*
X165880896Y-55994819D01*
X165880900Y-55994817D01*
X166141691Y-55864222D01*
X166141693Y-55864221D01*
X166145435Y-55862347D01*
X166393584Y-55693706D01*
X166617248Y-55493726D01*
X166619966Y-55490555D01*
X166809779Y-55269097D01*
X166809782Y-55269093D01*
X166812499Y-55265923D01*
X166814773Y-55262421D01*
X166814777Y-55262416D01*
X166973628Y-55017807D01*
X166973631Y-55017802D01*
X166975907Y-55014297D01*
X167104600Y-54743270D01*
X167196318Y-54457604D01*
X167249448Y-54162316D01*
X167258754Y-53957404D01*
X204536941Y-53957404D01*
X204563091Y-54256292D01*
X204564001Y-54260364D01*
X204564002Y-54260369D01*
X204627628Y-54545016D01*
X204628540Y-54549095D01*
X204732140Y-54830671D01*
X204734084Y-54834359D01*
X204734088Y-54834367D01*
X204830805Y-55017807D01*
X204872069Y-55096071D01*
X205045871Y-55340633D01*
X205250490Y-55560061D01*
X205482333Y-55750498D01*
X205737325Y-55908600D01*
X206010988Y-56031589D01*
X206185368Y-56083574D01*
X206294514Y-56116112D01*
X206294516Y-56116112D01*
X206298513Y-56117304D01*
X206302633Y-56117957D01*
X206302635Y-56117957D01*
X206421509Y-56136785D01*
X206594848Y-56164239D01*
X206637577Y-56166179D01*
X206687262Y-56168436D01*
X206687281Y-56168436D01*
X206688681Y-56168500D01*
X206876107Y-56168500D01*
X207099370Y-56153671D01*
X207103464Y-56152846D01*
X207103468Y-56152845D01*
X207244513Y-56124405D01*
X207393480Y-56094368D01*
X207677163Y-55996688D01*
X207680896Y-55994819D01*
X207680900Y-55994817D01*
X207941691Y-55864222D01*
X207941693Y-55864221D01*
X207945435Y-55862347D01*
X208193584Y-55693706D01*
X208417248Y-55493726D01*
X208419966Y-55490555D01*
X208609779Y-55269097D01*
X208609782Y-55269093D01*
X208612499Y-55265923D01*
X208614773Y-55262421D01*
X208614777Y-55262416D01*
X208773628Y-55017807D01*
X208773631Y-55017802D01*
X208775907Y-55014297D01*
X208904600Y-54743270D01*
X208996318Y-54457604D01*
X209049448Y-54162316D01*
X209058967Y-53952723D01*
X209062870Y-53866766D01*
X209062870Y-53866760D01*
X209063059Y-53862596D01*
X209036909Y-53563708D01*
X208992832Y-53366515D01*
X208972372Y-53274984D01*
X208972371Y-53274981D01*
X208971460Y-53270905D01*
X208867860Y-52989329D01*
X208865916Y-52985641D01*
X208865912Y-52985633D01*
X208729884Y-52727633D01*
X208729883Y-52727632D01*
X208727931Y-52723929D01*
X208554129Y-52479367D01*
X208349510Y-52259939D01*
X208117667Y-52069502D01*
X207862675Y-51911400D01*
X207589012Y-51788411D01*
X207375650Y-51724805D01*
X207305486Y-51703888D01*
X207305484Y-51703888D01*
X207301487Y-51702696D01*
X207297367Y-51702043D01*
X207297365Y-51702043D01*
X207178491Y-51683215D01*
X207005152Y-51655761D01*
X206962423Y-51653821D01*
X206912738Y-51651564D01*
X206912719Y-51651564D01*
X206911319Y-51651500D01*
X206723893Y-51651500D01*
X206500630Y-51666329D01*
X206496536Y-51667154D01*
X206496532Y-51667155D01*
X206355487Y-51695595D01*
X206206520Y-51725632D01*
X205922837Y-51823312D01*
X205919104Y-51825181D01*
X205919100Y-51825183D01*
X205658309Y-51955778D01*
X205654565Y-51957653D01*
X205651100Y-51960008D01*
X205470403Y-52082809D01*
X205406416Y-52126294D01*
X205182752Y-52326274D01*
X205180035Y-52329444D01*
X205180034Y-52329445D01*
X205007076Y-52531239D01*
X204987501Y-52554077D01*
X204985227Y-52557579D01*
X204985223Y-52557584D01*
X204832909Y-52792127D01*
X204824093Y-52805703D01*
X204695400Y-53076730D01*
X204603682Y-53362396D01*
X204602941Y-53366515D01*
X204558616Y-53612868D01*
X204550552Y-53657684D01*
X204550363Y-53661851D01*
X204550362Y-53661858D01*
X204537130Y-53953234D01*
X204536941Y-53957404D01*
X167258754Y-53957404D01*
X167258967Y-53952723D01*
X167262870Y-53866766D01*
X167262870Y-53866760D01*
X167263059Y-53862596D01*
X167236909Y-53563708D01*
X167192832Y-53366515D01*
X167172372Y-53274984D01*
X167172371Y-53274981D01*
X167171460Y-53270905D01*
X167067860Y-52989329D01*
X167065916Y-52985641D01*
X167065912Y-52985633D01*
X166929884Y-52727633D01*
X166929883Y-52727632D01*
X166927931Y-52723929D01*
X166754129Y-52479367D01*
X166549510Y-52259939D01*
X166317667Y-52069502D01*
X166062675Y-51911400D01*
X165789012Y-51788411D01*
X165575650Y-51724805D01*
X165505486Y-51703888D01*
X165505484Y-51703888D01*
X165501487Y-51702696D01*
X165497367Y-51702043D01*
X165497365Y-51702043D01*
X165378491Y-51683215D01*
X165205152Y-51655761D01*
X165162423Y-51653821D01*
X165112738Y-51651564D01*
X165112719Y-51651564D01*
X165111319Y-51651500D01*
X164923893Y-51651500D01*
X164700630Y-51666329D01*
X164696536Y-51667154D01*
X164696532Y-51667155D01*
X164555487Y-51695595D01*
X164406520Y-51725632D01*
X164122837Y-51823312D01*
X164119104Y-51825181D01*
X164119100Y-51825183D01*
X163858309Y-51955778D01*
X163854565Y-51957653D01*
X163851100Y-51960008D01*
X163670403Y-52082809D01*
X163606416Y-52126294D01*
X163382752Y-52326274D01*
X163380035Y-52329444D01*
X163380034Y-52329445D01*
X163207076Y-52531239D01*
X163187501Y-52554077D01*
X163185227Y-52557579D01*
X163185223Y-52557584D01*
X163032909Y-52792127D01*
X163024093Y-52805703D01*
X162895400Y-53076730D01*
X162803682Y-53362396D01*
X162802941Y-53366515D01*
X162758616Y-53612868D01*
X162750552Y-53657684D01*
X162750363Y-53661851D01*
X162750362Y-53661858D01*
X162737130Y-53953234D01*
X162736941Y-53957404D01*
X162408988Y-53957404D01*
X162410246Y-53942345D01*
X162412770Y-53927344D01*
X162412770Y-53927341D01*
X162413576Y-53922552D01*
X162413729Y-53910000D01*
X162413040Y-53905190D01*
X162413039Y-53905172D01*
X162411751Y-53896181D01*
X162410676Y-53871254D01*
X162411395Y-53858444D01*
X162424398Y-53626905D01*
X162425980Y-53612868D01*
X162433626Y-53567870D01*
X162472289Y-53340313D01*
X162475433Y-53326538D01*
X162551968Y-53060880D01*
X162556635Y-53047543D01*
X162662431Y-52792127D01*
X162668562Y-52779396D01*
X162802294Y-52537427D01*
X162809801Y-52525479D01*
X162969796Y-52299987D01*
X162978594Y-52288955D01*
X163162819Y-52082808D01*
X163172809Y-52072818D01*
X163176520Y-52069502D01*
X163378955Y-51888594D01*
X163389987Y-51879796D01*
X163615479Y-51719801D01*
X163627427Y-51712294D01*
X163869400Y-51578560D01*
X163882123Y-51572433D01*
X163980416Y-51531718D01*
X164137543Y-51466635D01*
X164150880Y-51461968D01*
X164416538Y-51385433D01*
X164430313Y-51382289D01*
X164588994Y-51355328D01*
X164702873Y-51335979D01*
X164716905Y-51334398D01*
X164796506Y-51329928D01*
X164957593Y-51320882D01*
X164984038Y-51322183D01*
X164984851Y-51322310D01*
X164984855Y-51322310D01*
X164993724Y-51323691D01*
X165002626Y-51322527D01*
X165002628Y-51322527D01*
X165017677Y-51320559D01*
X165025286Y-51319564D01*
X165041621Y-51318500D01*
X206750633Y-51318500D01*
X206770018Y-51320000D01*
G37*
G04 #@! TD.AperFunction*
G04 #@! TD*
M02*
